<svg width="12" height="21" fill="none" xmlns="http://www.w3.org/2000/svg"><mask id="path-1-inside-1" fill="#fff"><path fill-rule="evenodd" clip-rule="evenodd" d="M8.803 16.478c.18.395.18.395 0 0zm2.073 3.629c.286-.164.561-.893.416-1.188-.505-1.03-.876-2.136-1.236-3.249-.066-.204-.162-.406-.338-.508-.22-.127-.417-.086-.608.003-.155.072-.29.186-.424.297-.409.34-.742.49-.521.798.124.174.283.318.392.504a17.246 17.246 0 011.418 2.992c.136.381.552.55.9.351zm-4.232-8.355c.18.395.18.395 0 0zm-.664-1.454c-.167-.821-.996-2.181-1.494-3.272l1.577 3.454-.083-.182zm.66.242c.232-.31.478-.796.312-1.13-.454-.91-.823-1.98-1.215-3.145-.118-.352-.338-.738-.688-.654-.085.02-.171.057-.257.1a2.274 2.274 0 00-.423.299c-.414.344-.75.494-.51.811.121.162.27.299.376.474.573.95 1.089 2.054 1.468 3.137.11.315.452.454.74.29l.018-.011a.675.675 0 00.179-.171zM3.905 5.754a2.784 2.784 0 01-.132-.379c-.242-.83-.985-2.067-1.445-3.075l1.577 3.454zm.578-.1c.296-.162.501-.593.349-.893-.472-.928-.85-2.024-1.253-3.222-.118-.352-.338-.738-.688-.654-.086.02-.171.056-.257.1-.153.075-.288.19-.427.293-.463.346-.869.386-.447.867.098.112.196.225.275.354a17.262 17.262 0 011.522 3.243c.103.296.452.454.652.204a.74.74 0 00.026-.034c.068-.096.148-.204.248-.258zm.425 5.028c-.66-.08-1.157-.256-1.817-.337.66.081 1.073.074 1.817.337a118.255 118.255 0 00-.248-.088c-1.075-.531-1.983-.7-2.81-1.144.744.263 1.487.525 2.562 1.057-.91-.626-1.901-.976-2.893-1.326.992.35 2.066.882 3.389 1.5.248.088.248.088 0 0zm-.33.188l-.248-.087-.405.004c-.458 0-.466.053-.008.003-.347.038-.341.151.006.114l.242-.027c-.825.014-1.568.21-2.31.405.291-.032.562-.072.819-.112.158-.024.164.07.006.098l1.733-.303.165-.095zm.498 1.091c-.33.189-.576.559-1.071.842.33-.189.576-.559 1.071-.842-.495.283-1.071.842-1.566 1.125.495-.283.907-.748 1.401-1.03-.66.377-1.319.754-1.896 1.313.412-.465 1.072-.842 1.731-1.22l-1.979 1.132c.66-.377 1.402-1.03 2.226-1.502.165-.094.248.088.083.182zm.083.182a.971.971 0 00-.286.249c-.598.772-1.051 1.461-1.36 2.067l.083-.157c.156-.291.232-.232.082.063.329-.646.823-1.387 1.151-2.034-.328.647-.492 1.199-.739 1.57.154-.231.339-.569.536-.947.045-.086.067.036.026.124-.04.082.021 0 .05-.087.076-.241.131-.49.265-.711a.193.193 0 01.07-.067l.122-.07zm.412-.465a.175.175 0 00.027-.016c.167-.095.32-.027.49.044a.481.481 0 01.203.151 17.343 17.343 0 011.571 3.3c.11.316.451.455.738.29l.019-.01a.677.677 0 00.18-.171c.23-.31.477-.796.31-1.13-.453-.91-.822-1.98-1.213-3.144-.119-.353-.339-.738-.688-.655-.14.034-.28.107-.419.186a.522.522 0 00-.117.094 1.886 1.886 0 01-.368.295c-.194.122-.805.153-.9-.055-.067-.147-.243-.232-.526-.498a1.91 1.91 0 00-.496-.354 20.498 20.498 0 00-2.61-.974c-.333-.098-.694.035-.418.25.369.288.38 1.288-.082 1.392a5.507 5.507 0 00-.157.038c-.359.094-.357.49.002.536 1.212.155 3.145.03 3.898-.184.04-.011.077-.03.118-.038a.192.192 0 01.037-.004c.127 0 .22.133.337.18l.071.03c.212.092.18.388-.052.394-.115.003-.262 0-.366.059l-.235.134a1.256 1.256 0 01-.2.09c-.714.257-1.513.829-2.086 1.322-.168.145-.243.385-.033.358.32-.041.924.532.759.837-.121.223.07.333.252.162.59-.555 1.266-1.646 1.522-2.339.086-.231.226-.452.432-.57z"/></mask><path fill-rule="evenodd" clip-rule="evenodd" d="M8.803 16.478c.18.395.18.395 0 0zm2.073 3.629c.286-.164.561-.893.416-1.188-.505-1.03-.876-2.136-1.236-3.249-.066-.204-.162-.406-.338-.508-.22-.127-.417-.086-.608.003-.155.072-.29.186-.424.297-.409.34-.742.49-.521.798.124.174.283.318.392.504a17.246 17.246 0 011.418 2.992c.136.381.552.55.9.351zm-4.232-8.355c.18.395.18.395 0 0zm-.664-1.454c-.167-.821-.996-2.181-1.494-3.272l1.577 3.454-.083-.182zm.66.242c.232-.31.478-.796.312-1.13-.454-.91-.823-1.98-1.215-3.145-.118-.352-.338-.738-.688-.654-.085.02-.171.057-.257.1a2.274 2.274 0 00-.423.299c-.414.344-.75.494-.51.811.121.162.27.299.376.474.573.95 1.089 2.054 1.468 3.137.11.315.452.454.74.29l.018-.011a.675.675 0 00.179-.171zM3.905 5.754a2.784 2.784 0 01-.132-.379c-.242-.83-.985-2.067-1.445-3.075l1.577 3.454zm.578-.1c.296-.162.501-.593.349-.893-.472-.928-.85-2.024-1.253-3.222-.118-.352-.338-.738-.688-.654-.086.02-.171.056-.257.1-.153.075-.288.19-.427.293-.463.346-.869.386-.447.867.098.112.196.225.275.354a17.262 17.262 0 011.522 3.243c.103.296.452.454.652.204a.74.74 0 00.026-.034c.068-.096.148-.204.248-.258zm.425 5.028c-.66-.08-1.157-.256-1.817-.337.66.081 1.073.074 1.817.337a118.255 118.255 0 00-.248-.088c-1.075-.531-1.983-.7-2.81-1.144.744.263 1.487.525 2.562 1.057-.91-.626-1.901-.976-2.893-1.326.992.35 2.066.882 3.389 1.5.248.088.248.088 0 0zm-.33.188l-.248-.087-.405.004c-.458 0-.466.053-.008.003-.347.038-.341.151.006.114l.242-.027c-.825.014-1.568.21-2.31.405.291-.032.562-.072.819-.112.158-.024.164.07.006.098l1.733-.303.165-.095zm.498 1.091c-.33.189-.576.559-1.071.842.33-.189.576-.559 1.071-.842-.495.283-1.071.842-1.566 1.125.495-.283.907-.748 1.401-1.03-.66.377-1.319.754-1.896 1.313.412-.465 1.072-.842 1.731-1.22l-1.979 1.132c.66-.377 1.402-1.03 2.226-1.502.165-.094.248.088.083.182zm.083.182a.971.971 0 00-.286.249c-.598.772-1.051 1.461-1.36 2.067l.083-.157c.156-.291.232-.232.082.063.329-.646.823-1.387 1.151-2.034-.328.647-.492 1.199-.739 1.57.154-.231.339-.569.536-.947.045-.086.067.036.026.124-.04.082.021 0 .05-.087.076-.241.131-.49.265-.711a.193.193 0 01.07-.067l.122-.07zm.412-.465a.175.175 0 00.027-.016c.167-.095.32-.027.49.044a.481.481 0 01.203.151 17.343 17.343 0 011.571 3.3c.11.316.451.455.738.29l.019-.01a.677.677 0 00.18-.171c.23-.31.477-.796.31-1.13-.453-.91-.822-1.98-1.213-3.144-.119-.353-.339-.738-.688-.655-.14.034-.28.107-.419.186a.522.522 0 00-.117.094 1.886 1.886 0 01-.368.295c-.194.122-.805.153-.9-.055-.067-.147-.243-.232-.526-.498a1.91 1.91 0 00-.496-.354 20.498 20.498 0 00-2.61-.974c-.333-.098-.694.035-.418.25.369.288.38 1.288-.082 1.392a5.507 5.507 0 00-.157.038c-.359.094-.357.49.002.536 1.212.155 3.145.03 3.898-.184.04-.011.077-.03.118-.038a.192.192 0 01.037-.004c.127 0 .22.133.337.18l.071.03c.212.092.18.388-.052.394-.115.003-.262 0-.366.059l-.235.134a1.256 1.256 0 01-.2.09c-.714.257-1.513.829-2.086 1.322-.168.145-.243.385-.033.358.32-.041.924.532.759.837-.121.223.07.333.252.162.59-.555 1.266-1.646 1.522-2.339.086-.231.226-.452.432-.57z" fill="#fff"/><path d="M1.85 9.45l-.554 1.108.962-2.28L1.85 9.45zm2.562 1.057l.652-1.048-1.174 2.172.522-1.124zm-.247.37l.044-1.231.011 2.456-.055-1.225zm-2.31.405l.054 1.225-.27-2.42.215 1.195zm1.16 2.087l.74.895-1.547-1.72.807.825zm2.124-1.12l-1.06-.402 1.06.401zm-1.522 2.338l-.727-.908.727.909zm-.978-1.357l-.685-.946.685.946zm2.086-1.321l-.31-1.167.31 1.167zm.853-.679l.478-1.144-.478 1.144zm-.408-.209l-.061 1.231.06-1.231zm.337.18l-.442 1.16.442-1.16zm-4.392-.49L.903 9.515l.212 1.196zm.002.536l.194-1.223-.194 1.223zm.155-.574l.178 1.205-.178-1.205zm3.601 1.719l.862.758-.862-.758zm-2.2-1.222L2.57 9.952l.104 1.218zm1.25-.266l.055 1.225-.055-1.225zm.002-.117l.058-1.232-.058 1.232zm.653.083l.408-1.172 2.49.879-2.404 1.374-.494-1.08zm.437.193l-.237-1.19.237 1.19zm.118-.038l.147 1.21-.147-1.21zm1.171-.113l.535 1.056-.535-1.056zm1.592.08l1.077-.473-1.077.473zm-.034 4.166l1.074-.485-1.074.485zm-4.09-9.783l1.094-.425-1.093.425zm2.519 6.482l-.97.708.97-.708zm-.588-1.425l1.073-.487-1.073.487zM4.235 7.295l.97-.709-.97.709zm.732 4.985l.948.634-.948-.634zm-.175-6.57l.435 1.113-.435-1.113zm-.423.3l.668.96-.668-.96zM1.772 9.03l.354-1.189-.354 1.19zm2.463-3.118l-.895-.714.895.714zm4.875 9.253l-.405-1.127.405 1.127zm-.424.297l.668.96-.668-.96zM4.7 12.991l1.08.342-1.08-.342zm.349-7.38L4.857 4.41l.193 1.2zm-.172 4.747l-.777.947.777-.947zm-1.32-4.616l1.073-.484-1.074.484zm.651.204l.85.775-.85-.775zm5.509 9.216l-.582 1.092.582-1.092zm-5.092-2.208l-.99-.559.99.56zm3.539 3.306l.92-.784-.92.784zm.392.504l.975-.699-.975.699zm-1.768-6.24L6.3 9.44l.489 1.083zm-.117.093l.77.864-.77-.864zm3.603 8.921c-.548-1.115-.942-2.298-1.302-3.408l2.165-.92c.36 1.115.709 2.145 1.172 3.089l-2.035 1.24zm-1.139-3.284a.515.515 0 00.263.058c.09-.004.14-.031.115-.02l-.81-2.254c.374-.174.967-.331 1.595.032l-1.163 2.184zm.218.168c-.121.1-.254.2-.314.248-.088.069-.08.069-.05.035.031-.034.206-.235.242-.578a.957.957 0 00-.148-.65l-1.838 1.567a1.535 1.535 0 01-.287-1.064c.05-.469.292-.786.43-.94.137-.152.29-.272.373-.336.11-.087.172-.133.256-.202l1.336 1.92zm.178-.357a18.439 18.439 0 011.514 3.196l-2.141.989a16.037 16.037 0 00-1.323-2.787l1.95-1.398zm-4.67-5.443c-.045-.223-.216-.628-.518-1.23-.264-.527-.63-1.207-.89-1.776l2.064-1.18c.238.522.536 1.067.852 1.698.28.556.606 1.242.728 1.84l-2.236.648zm.656-4.186l.003.007.003.006.002.006.003.007.003.006.003.006.003.007.003.006.003.006a1.226 1.226 0 00.006.013l.003.007.003.006.002.006.003.007a1.774 1.774 0 00.006.012l.003.007.003.006.003.006.003.006a3.258 3.258 0 01.005.013l.003.006.003.007.003.006.003.006.003.007.003.006.002.006.003.006.003.007.003.006.003.006.003.006c0 .003.002.005.003.007l.003.006.002.006.003.007.003.006.003.006.003.006.003.007.002.006.003.006.003.006.003.006.003.007.003.006.003.006.002.006.003.007.003.006.003.006.003.006.003.006.002.007.003.006.003.006.003.006.003.006c0 .003.002.005.003.007l.002.006.003.006.003.006.003.006.003.007.003.006.002.006.003.006.003.006a3.69 3.69 0 00.006.013l.002.006.003.006.003.006.003.006.003.006c0 .003.002.005.003.007l.002.006.003.006.003.006.003.006.003.006.002.007.003.006.003.006.003.006.003.006.002.006.003.007.003.006.003.006.003.006.003.006.002.006.003.006.003.007.003.006.003.006.002.006.003.006.003.006.003.006.003.006.002.007.003.006.003.006.003.006.003.006.002.006.003.006.003.007.003.006.003.006.002.006.003.006.003.006.003.006.003.006.002.007.003.006.003.006.003.006.003.006.002.006.003.006.003.006.003.007.002.006.003.006.003.006a1.66 1.66 0 01.008.018l.003.006.003.007.003.006.003.006.002.006.003.006.003.006a1.66 1.66 0 00.008.019l.003.006.003.006.003.006.003.006.002.006.003.006.003.006.003.007.003.006.002.006.003.006.003.006.003.006.003.006.002.007.003.006.003.006.003.006.003.006.002.006.003.006.003.007.003.006.003.006.003.006.002.006.003.006.003.006c0 .003.002.005.003.007l.003.006.002.006.003.006.003.006.003.006a1.68 1.68 0 01.008.019l.003.006.003.006.003.006c0 .003.002.005.003.007l.002.006.003.006a1.694 1.694 0 01.012.025l.002.006a1.165 1.165 0 01.006.012l.003.007.003.006.003.006.002.006.003.006.003.007.003.006.003.006.003.006.002.006.003.007.003.006.003.006.003.006.003.007.002.006.003.006.003.006.003.007.003.006.003.006.003.006.002.007.003.006.003.006.003.006.003.007.003.006.003.006.002.006.003.007.003.006.003.006.003.007.003.006.003.006.003.006.002.007.003.006.003.006.003.007.003.006a1.77 1.77 0 01.011.025l.003.007.003.006.003.006a1.782 1.782 0 00.006.013l.003.006a3.287 3.287 0 00.006.013l.003.006.002.007.003.006.003.007.003.006.003.006.003.007.003.006.003.006c0 .003.002.005.003.007l.003.006.003.007.003.006a1.825 1.825 0 01.011.026l.003.006.003.007.003.006.003.007.003.006.003.006.003.007.003.006c0 .003.002.005.003.007l.003.006a1.86 1.86 0 01.009.02l.003.006.003.007.003.006.003.007.003.006c0 .003.002.005.003.007l.003.006c0 .003.002.005.003.007l.003.006a1.895 1.895 0 00.008.02l.003.007.003.006.003.007.003.006.003.007.003.007.003.006.004.007.003.006c0 .003.002.005.003.007l.003.007a1.332 1.332 0 01.009.02l.003.006.003.007a1.96 1.96 0 00.006.013l.003.007.003.006c0 .003.002.005.003.007a3.636 3.636 0 00.006.013l.003.007.003.007.003.006.003.007.003.007.003.007.003.006.004.007.003.007.003.007.003.006c0 .003.002.005.003.007l.003.007.003.007.003.006.003.007.003.007.003.007.004.007.003.006c0 .003.002.005.003.007l.003.007.003.007.003.007.003.007.003.006.004.007.003.007a2.091 2.091 0 01.006.014l.003.007.003.007.003.007.004.006c0 .003.002.005.003.007 0 .003.002.005.003.007 0 .003.002.005.003.007l.003.007.003.007.004.007.003.007.003.007.003.007.003.007.003.007.004.007.003.007.003.007.003.007.003.007.004.007.003.007.003.007.003.007.004.007c0 .003.002.005.003.007 0 .003.002.005.003.007l.003.007.003.008.004.007.003.007.003.007.003.007.004.007.003.007.003.007.004.008.003.007.003.007.003.007.004.007c0 .003.002.005.003.007a1.58 1.58 0 01.007.015l.003.007c0 .003.002.005.003.007l.003.008.004.007.003.007.003.007.004.008.003.007.003.007.004.008.003.007.003.007.004.008.003.007.003.007.004.008.003.007.004.007c0 .003.002.005.003.008l.003.007.004.008.003.007.003.007.004.008.003.007.004.008.003.007.003.008.004.007.003.008.004.007a2.493 2.493 0 00.007.015c0 .003.002.005.003.008l.003.007.004.008.003.007.004.008.003.007.004.008.003.008.004.007c0 .003.002.005.003.008l.004.007c0 .003.002.005.003.008l.004.008.003.007.004.008.003.008.004.007c0 .003.002.005.003.008l.004.008.003.007.004.008c0 .003.002.005.003.008l.004.008.003.007.004.008.003.008.004.008a2.694 2.694 0 00.007.015l.004.008c0 .003.002.005.003.008l.004.008.003.008.004.007.004.008c0 .003.002.006.003.008l.004.008c0 .003.002.005.003.008a2.77 2.77 0 01.011.024l.004.008.003.008.004.008.004.008.003.008.004.008.004.008.003.008.004.008.004.008.003.008.004.008.004.008.003.008.004.008.004.008.004.008c0 .003.002.006.003.008l.004.009.004.008.003.008.004.008A2.97 2.97 0 017 9.681l.004.008.004.008.004.008.003.009.004.008.004.008.004.008.004.009c0 .003.002.005.003.008l.004.008.004.009.004.008.004.008.003.009.004.008.004.009.004.008.004.009.004.008.004.008.003.009a2.062 2.062 0 00.008.017l.004.008.004.009-2.063 1.18-.004-.009-.004-.008-.004-.009-.004-.008-.004-.009-.004-.008c0-.003-.002-.006-.004-.009a.576.576 0 01-.003-.008l-.004-.009-.004-.008a3.122 3.122 0 01-.004-.008l-.004-.009-.004-.008-.003-.009-.004-.008-.004-.008-.004-.008-.004-.009-.003-.008-.004-.008a.859.859 0 00-.004-.009l-.004-.008c0-.003-.002-.005-.003-.008l-.004-.008a.534.534 0 01-.004-.009l-.004-.008-.003-.008-.004-.008-.004-.008-.004-.008-.003-.009-.004-.008-.004-.008-.004-.008c0-.003-.002-.006-.003-.008l-.004-.008-.004-.008c0-.003-.002-.006-.003-.008l-.004-.009-.004-.008-.003-.008a.62.62 0 00-.004-.008l-.004-.008-.003-.008a.795.795 0 01-.004-.008l-.004-.008-.003-.008-.004-.008-.004-.008-.003-.008-.004-.007-.003-.008-.004-.008-.004-.008c0-.003-.002-.005-.003-.008l-.004-.008-.003-.008-.004-.008a.607.607 0 00-.004-.008l-.003-.007-.004-.008c0-.003-.002-.005-.003-.008l-.004-.008-.003-.008-.004-.007a2.69 2.69 0 01-.004-.008c0-.003-.002-.005-.003-.008l-.004-.008-.003-.007-.004-.008a.575.575 0 00-.003-.008l-.004-.008-.003-.007-.004-.008-.003-.008-.004-.007c0-.003-.002-.005-.003-.008l-.004-.008-.003-.007-.004-.008-.003-.008-.004-.007c0-.003-.002-.005-.003-.008l-.004-.007c0-.003-.002-.005-.003-.008a.719.719 0 01-.004-.008l-.003-.007-.003-.008-.004-.007a2.497 2.497 0 01-.007-.015c0-.003-.002-.005-.003-.008l-.004-.007c0-.003-.002-.005-.003-.008l-.003-.007-.004-.008a2.485 2.485 0 01-.003-.007l-.004-.008-.003-.007-.003-.008a.53.53 0 01-.004-.007l-.003-.007a.53.53 0 00-.01-.022l-.004-.008-.003-.007-.004-.008-.003-.007-.003-.007-.004-.008-.003-.007a.516.516 0 00-.003-.007l-.004-.008a.517.517 0 01-.006-.014l-.004-.008-.003-.007a.518.518 0 00-.003-.007l-.004-.007c0-.003-.002-.005-.003-.008l-.003-.007-.004-.007-.003-.007a2.297 2.297 0 01-.003-.008l-.003-.007a2.297 2.297 0 00-.004-.007l-.003-.007-.003-.007-.004-.008-.003-.007-.003-.007-.003-.007-.004-.007-.003-.007c0-.003-.002-.005-.003-.007l-.003-.008a.483.483 0 00-.004-.007l-.003-.007-.003-.007-.003-.007a2.219 2.219 0 00-.004-.007l-.003-.007-.003-.007-.003-.007a1.511 1.511 0 00-.003-.007l-.004-.007c0-.003-.002-.005-.003-.007l-.003-.007-.003-.007a1.494 1.494 0 00-.004-.007c0-.003-.002-.005-.003-.007 0-.003-.002-.005-.003-.007a2.163 2.163 0 01-.003-.007l-.003-.007-.003-.007-.004-.007c0-.003-.002-.005-.003-.007 0-.003-.002-.005-.003-.007l-.003-.007-.003-.007-.004-.007-.003-.007-.003-.007a4.634 4.634 0 01-.003-.007l-.003-.007-.003-.007-.003-.006a1.439 1.439 0 00-.004-.007c0-.003-.002-.005-.003-.007a1.431 1.431 0 01-.003-.007l-.003-.007-.003-.007a2.074 2.074 0 00-.003-.007l-.003-.006-.003-.007-.004-.007-.003-.007a1.073 1.073 0 00-.003-.007l-.003-.006c0-.003-.002-.005-.003-.007l-.003-.007-.003-.007-.003-.007a2.033 2.033 0 00-.006-.013l-.004-.007-.003-.007-.003-.006c0-.003-.002-.005-.003-.007l-.003-.007-.003-.007-.003-.006-.003-.007-.003-.007L4.36 9.6a1.985 1.985 0 01-.003-.007l-.003-.007-.003-.007-.003-.006-.003-.007-.004-.007-.003-.006a1.964 1.964 0 01-.003-.007l-.003-.007a4.277 4.277 0 01-.003-.006l-.003-.007-.003-.006c0-.003-.002-.005-.003-.007l-.003-.007a1.935 1.935 0 00-.003-.006l-.003-.007-.003-.007-.003-.006a1.923 1.923 0 01-.003-.007L4.3 9.466l-.003-.007-.003-.006c0-.003-.002-.005-.003-.007l-.003-.007-.003-.006-.003-.007-.003-.006-.003-.007-.003-.006L4.27 9.4l-.003-.006c0-.003-.002-.005-.003-.007a23144858812.444 23144858812.444 0 01-.009-.02l-.003-.006-.003-.006c0-.003-.002-.005-.003-.007l-.003-.006a1.86 1.86 0 01-.003-.007l-.002-.006-.003-.007-.003-.006a1.852 1.852 0 01-.006-.013l-.003-.007-.003-.006a4.023 4.023 0 00-.003-.007l-.003-.006-.003-.006-.003-.007-.003-.006-.003-.007-.003-.006a1.25 1.25 0 00-.003-.007l-.003-.006-.003-.006-.002-.007-.003-.006-.003-.007-.003-.006a3.95 3.95 0 00-.003-.006l-.003-.007-.003-.006-.003-.006c0-.003-.002-.005-.003-.007a1.79 1.79 0 01-.003-.006l-.003-.007-.002-.006-.003-.006a3.287 3.287 0 01-.003-.007l-.003-.006-.003-.006-.003-.007-.003-.006-.003-.006-.003-.007-.003-.006-.002-.006-.003-.007-.003-.006-.003-.006-.003-.007-.003-.006-.003-.006-.003-.006-.002-.007A3.221 3.221 0 014.1 9.03l-.003-.006a1.747 1.747 0 01-.003-.007l-.003-.006-.003-.006-.003-.006a1.74 1.74 0 01-.002-.007l-.003-.006-.003-.006-.003-.006-.003-.007-.003-.006-.003-.006-.003-.006-.002-.007-.003-.006-.003-.006-.003-.006-.003-.007-.003-.006-.002-.006-.003-.006-.003-.007-.003-.006-.003-.006-.003-.006-.002-.006-.003-.007-.003-.006-.003-.006-.003-.006-.003-.006-.002-.007a1.702 1.702 0 00-.006-.012L4 8.81l-.003-.006c0-.003-.002-.005-.003-.007l-.002-.006-.003-.006a3.72 3.72 0 00-.003-.006l-.003-.006-.003-.007-.003-.006a3.69 3.69 0 00-.002-.006l-.003-.006-.003-.006a3.69 3.69 0 00-.003-.006l-.003-.007-.002-.006-.003-.006-.003-.006a1.68 1.68 0 01-.003-.006L3.95 8.7l-.003-.007a1.68 1.68 0 01-.008-.018l-.003-.006a1.68 1.68 0 00-.003-.006l-.002-.007-.003-.006-.003-.006-.003-.006-.003-.006-.002-.006-.003-.006-.003-.007-.003-.006-.003-.006-.002-.006-.003-.006-.003-.006-.003-.006-.003-.007-.002-.006-.003-.006-.003-.006-.003-.006a1.142 1.142 0 00-.008-.018l-.003-.007a1.142 1.142 0 00-.006-.012l-.002-.006-.003-.006-.003-.006a1.66 1.66 0 00-.003-.006l-.003-.006-.002-.007-.003-.006-.003-.006-.003-.006-.003-.006-.002-.006a3.65 3.65 0 01-.006-.012l-.003-.007-.003-.006-.002-.006-.003-.006-.003-.006-.003-.006-.003-.006a1.66 1.66 0 00-.01-.025l-.004-.006-.002-.006-.003-.006a1.66 1.66 0 00-.009-.019l-.002-.006-.003-.006-.003-.006-.003-.006-.003-.006-.002-.006-.003-.006a1.142 1.142 0 00-.006-.013l-.003-.006-.002-.006-.003-.006-.003-.006-.003-.006-.003-.007-.002-.006-.003-.006-.003-.006-.003-.006-.003-.006-.002-.006-.003-.007-.003-.006-.003-.006-.003-.006-.002-.006-.003-.006-.003-.006-.003-.007-.003-.006-.003-.006-.002-.006-.003-.006-.003-.006-.003-.007-.003-.006-.002-.006-.003-.006a3.69 3.69 0 00-.003-.006l-.003-.006-.003-.007-.002-.006-.003-.006a1.694 1.694 0 00-.006-.012l-.003-.006c0-.003-.002-.005-.003-.007a1.165 1.165 0 01-.002-.006l-.003-.006-.003-.006-.003-.006-.003-.007L3.63 8l-.002-.006-.003-.006-.003-.006-.003-.007-.003-.006-.003-.006-.002-.006-.003-.006-.003-.007-.003-.006-.003-.006-.003-.006a3.76 3.76 0 01-.002-.007l-.003-.006-.003-.006-.003-.006-.003-.006c0-.003-.002-.005-.003-.007l-.003-.006-.002-.006-.003-.006-.003-.007-.003-.006-.003-.006-.003-.006c0-.003-.002-.005-.003-.007l-.002-.006-.003-.006-.003-.007-.003-.006-.003-.006-.003-.006-.003-.007-.002-.006-.003-.006-.003-.007-.003-.006-.003-.006-.003-.006c0-.003-.002-.005-.003-.007l-.003-.006-.002-.006a1.77 1.77 0 00-.003-.007l-.003-.006a1.774 1.774 0 01-.003-.006l-.003-.007-.003-.006-.003-.006a1.782 1.782 0 00-.003-.007l-.003-.006a3.287 3.287 0 01-.003-.006l-.002-.007-.003-.006a1.79 1.79 0 00-.003-.006l-.003-.007-.003-.006-.003-.007-.003-.006-.003-.006-.003-.007-.003-.006 2.064-1.18zm.419 3.6c-.496-.997-.89-2.144-1.278-3.298l2.156-.946c.396 1.177.74 2.167 1.151 2.993l-2.029 1.251zM5.24 6.813c.017-.004.024-.008.02-.006a.465.465 0 00-.034.016l-.87-2.225c.128-.064.3-.14.501-.188l.383 2.403zm-.204.157c-.121.1-.257.204-.316.25-.09.07-.077.067-.043.028.038-.043.217-.258.241-.615a.933.933 0 00-.159-.62L2.956 7.63a1.54 1.54 0 01-.318-1.044c.033-.485.277-.819.421-.982.14-.159.299-.283.382-.348.113-.09.175-.134.26-.205l1.336 1.92zm.167-.384a18.496 18.496 0 011.572 3.359l-2.146.974a16.117 16.117 0 00-1.364-2.916l1.938-1.417zm.744 3.055h.001V9.64h.002v-.001h.001v-.001h.002v-.001h.002v-.001h.002v-.001h.001v-.001h.002v-.001h.002v-.001h.002V9.63h.001l.988 2.162h-.001v.001H6.95v.002h-.002v.001h-.002v.001h-.002v.001h-.001v.001H6.94v.001h-.002v.001h-.002v.001h-.001l-.988-2.161zM2.68 5.8c-.085-.29-.28-.713-.559-1.263-.255-.503-.581-1.115-.825-1.648L3.36 1.71c.217.474.492.985.784 1.56.267.529.565 1.14.723 1.68L2.68 5.8zm.68-4.091l.002.006.003.007.003.006.003.007.003.006a3.934 3.934 0 01.006.013l.003.006a1.79 1.79 0 01.006.013l.002.006.003.006.003.007.003.006.003.006.003.007.003.006.003.006.003.007.002.006.003.006.003.007.003.006.003.006.003.007.003.006.003.006.002.006.003.007.003.006.003.006.003.007.003.006.003.006a1.74 1.74 0 00.008.019l.003.006.003.006a1.188 1.188 0 00.006.013l.003.006a170149605571.168 170149605571.168 0 01.005.013l.003.006.003.006.003.006.003.007.002.006.003.006.003.006.003.006c0 .003.002.005.003.007l.003.006.002.006.003.006.003.006.003.007.003.006.003.006.002.006.003.006a1.702 1.702 0 00.009.02l.003.005.002.006.003.007.003.006.003.006.003.006.003.006.002.007.003.006.003.006.003.006.003.006.002.006.003.007.003.006.003.006.003.006.003.006.002.006.003.006.003.007.003.006.003.006.002.006.003.006.003.006.003.007.003.006.002.006.003.006.003.006.003.006.003.006.002.007.003.006.003.006.003.006.003.006.002.006.003.006.003.006.003.007.003.006.002.006.003.006.003.006.003.006.003.006.002.007.003.006.003.006a1.66 1.66 0 00.008.018l.003.006.003.006.003.007.003.006a1.66 1.66 0 00.005.012l.003.006.003.006.003.006.002.006.003.007.003.006.003.006.003.006a3.064 3.064 0 00.005.012l.003.006.003.006a3.65 3.65 0 01.005.013l.003.006.003.006.003.006.003.006.002.006.003.006.003.007.003.006.003.006.002.006.003.006.003.006.003.006.003.006.002.007.003.006.003.006.003.006.003.006.002.006.003.006.003.007.003.006.003.006.002.006.003.006.003.006.003.006.003.007.002.006.003.006.003.006.003.006a1.675 1.675 0 01.008.019l.003.006.003.006.003.006.003.006.002.006.003.007.003.006.003.006.003.006.002.006.003.007.003.006.003.006.003.006.003.006.002.006.003.007.003.006.003.006.003.006.003.006.002.007.003.006.003.006.003.006.003.006c0 .003.002.005.003.007l.002.006.003.006.003.006.003.007.003.006.003.006.002.006.003.006.003.007.003.006.003.006.003.006.003.007.002.006.003.006.003.006.003.007.003.006.003.006.003.006.002.007.003.006.003.006.003.007.003.006.003.006.003.006.003.007.002.006.003.006.003.007.003.006.003.006.003.007.003.006.003.006.002.006.003.007.003.006.003.006.003.007.003.006.003.006c0 .003.002.005.003.007l.003.006.003.007.002.006.003.006.003.007.003.006.003.006.003.007.003.006.003.007.003.006.003.006.003.007.002.006.003.007.003.006.003.006.003.007.003.006.003.007.003.006.003.007.003.006a16878919377.702 16878919377.702 0 01.012.026l.003.006.003.007.003.006.003.007a1.28 1.28 0 01.011.026l.003.006.003.007.003.006.003.007.003.006.003.007.003.006.003.007.003.006.003.007.003.007.003.006.003.007.003.006.003.007.003.006.003.007.003.007.003.006.003.007.003.006.003.007.003.007.003.006.003.007.003.007.003.006.003.007.004.007a1.964 1.964 0 00.006.013l.003.007.003.006.003.007.003.007.003.006c0 .003.002.005.003.007l.003.007a2 2 0 00.003.006l.003.007.003.007.003.007.003.006.004.007.003.007.003.007.003.006c0 .003.002.005.003.007a3.757 3.757 0 00.006.014l.003.007.003.006.003.007.003.007a4.507 4.507 0 01.007.014l.003.007.003.006.003.007.003.007.003.007.004.007.003.007.003.007.003.006.003.007a2.112 2.112 0 01.006.014l.004.007.003.007.003.007.003.007.003.007.003.007.004.007.003.007.003.007.003.007.003.007.004.007.003.007a2.18 2.18 0 01.006.014l.003.007.004.007.003.007.003.007.003.007.003.007.004.007c0 .003.002.005.003.007l.003.007.003.007.004.008.003.007.003.007.003.007.004.007.003.007.003.007.004.008.003.007.003.007.003.007.004.007c0 .003.002.005.003.008l.003.007.004.007.003.007.003.007.003.008.004.007.003.007.003.008.004.007.003.007.003.007.004.008.003.007.003.007.004.008.003.007.004.007c0 .003.002.005.003.008l.003.007.004.008.003.007.003.007.004.008.003.007.004.008.003.007.003.008.004.007.003.007.004.008.003.007a2.488 2.488 0 01.007.015l.003.008.004.007c0 .003.002.005.003.008l.004.008.003.007.004.008.003.007.003.008.004.007.003.008.004.008.003.007.004.008.003.007.004.008.003.008.004.007.003.008.004.008.003.008.004.007.003.008.004.008.003.007.004.008.004.008c0 .003.002.005.003.008l.004.008.003.007.004.008.003.008.004.008.003.008.004.007.004.008c0 .003.002.006.003.008l.004.008.003.008.004.008.004.008.003.008.004.008.004.008.003.008.004.007.003.008.004.008.004.008.003.008.004.008.004.008.003.009.004.008.004.008.003.008.004.008.004.008.004.008c0 .003.002.005.003.008l.004.008.004.008a2.95 2.95 0 00.007.017l.004.008.004.008c0 .003.002.006.003.008a6.536 6.536 0 01.012.025c0 .003.002.005.003.008l.004.008.004.009.004.008.004.008.003.009.004.008.004.008.004.009.004.008c0 .003.002.006.003.008l.004.009.004.008.004.009.004.008.004.008.003.009.004.008.004.009.004.008.004.009.004.008.004.009-2.064 1.18-.004-.009-.003-.009-.004-.008-.004-.008-.004-.009-.004-.008-.004-.009a3.147 3.147 0 01-.004-.008l-.003-.009a5.74 5.74 0 01-.004-.008L2.83 6.25l-.004-.008-.004-.008a3.096 3.096 0 01-.004-.009l-.003-.008a5.648 5.648 0 01-.004-.008L2.808 6.2l-.004-.008a2.09 2.09 0 00-.007-.016l-.004-.009a3.02 3.02 0 00-.004-.008l-.004-.008-.003-.008a6.576 6.576 0 00-.004-.009l-.004-.008-.004-.008a2.97 2.97 0 00-.003-.008l-.004-.01-.004-.008a2.945 2.945 0 00-.004-.008c0-.003-.002-.005-.003-.008l-.004-.008-.004-.008-.003-.008-.004-.008-.004-.009-.004-.008-.003-.008-.004-.008-.004-.008-.003-.008-.004-.008-.004-.008-.003-.008-.004-.008-.004-.008-.003-.008-.004-.008-.003-.008a2.784 2.784 0 00-.004-.008l-.004-.007a2.77 2.77 0 00-.003-.008L2.67 5.9l-.003-.008-.004-.008-.004-.008c0-.003-.002-.005-.003-.008l-.004-.008-.003-.007-.004-.008-.004-.008a2.694 2.694 0 01-.003-.008l-.004-.008-.003-.007a2.674 2.674 0 00-.004-.008l-.003-.008-.004-.008-.003-.008a1.817 1.817 0 00-.004-.007l-.003-.008-.004-.008-.004-.007c0-.003-.002-.006-.003-.008l-.004-.008-.003-.007-.004-.008c0-.003-.002-.005-.003-.008a1.775 1.775 0 00-.004-.007c0-.003-.002-.005-.003-.008a2.815 2.815 0 00-.003-.008l-.004-.007-.003-.008-.004-.007-.003-.008-.004-.008a5.563 5.563 0 00-.003-.007l-.004-.008-.003-.007-.004-.008-.003-.007a2.503 2.503 0 01-.003-.008L2.533 5.6l-.003-.008-.004-.007c0-.003-.002-.005-.003-.008l-.004-.007c0-.003-.002-.005-.003-.008a2.452 2.452 0 01-.003-.007l-.004-.008a1.68 1.68 0 00-.003-.007l-.004-.007c0-.003-.002-.005-.003-.008l-.003-.007-.004-.008-.003-.007-.003-.007a5.272 5.272 0 00-.007-.015l-.004-.007c0-.003-.002-.005-.003-.008L2.47 5.46l-.004-.007c0-.003-.002-.005-.003-.008a1.625 1.625 0 00-.003-.007l-.004-.007c0-.003-.002-.005-.003-.008a1.61 1.61 0 00-.003-.007l-.004-.007c0-.003-.002-.005-.003-.007l-.003-.008-.003-.007-.004-.007c0-.003-.002-.005-.003-.007a5.053 5.053 0 00-.007-.015l-.003-.007-.003-.007-.004-.007c0-.003-.002-.005-.003-.008l-.003-.007-.003-.007a2.262 2.262 0 00-.004-.007L2.397 5.3l-.003-.007-.003-.008-.004-.007-.003-.007a4.89 4.89 0 00-.003-.007l-.003-.007-.004-.007-.003-.007a1.52 1.52 0 01-.003-.007l-.003-.007-.004-.007c0-.003-.002-.005-.003-.007 0-.003-.002-.005-.003-.007l-.003-.007a2.185 2.185 0 01-.007-.014c0-.003-.002-.005-.003-.007 0-.003-.002-.005-.003-.008l-.003-.006a2.163 2.163 0 01-.003-.007l-.004-.007a1.478 1.478 0 00-.003-.007c0-.003-.002-.005-.003-.007l-.003-.007a4.68 4.68 0 01-.003-.007l-.003-.007-.004-.007-.003-.007-.003-.007-.003-.007a4.634 4.634 0 00-.003-.007l-.003-.007-.004-.007-.003-.007a2.096 2.096 0 00-.003-.006c0-.003-.002-.005-.003-.007l-.003-.007-.003-.007-.003-.007-.003-.007-.004-.007-.003-.006c0-.003-.002-.005-.003-.007a2.058 2.058 0 00-.003-.007l-.003-.007-.003-.007-.003-.006-.003-.007-.003-.007-.004-.007-.003-.007-.003-.006c0-.003-.002-.005-.003-.007l-.003-.007-.003-.007-.003-.006-.003-.007-.003-.007-.003-.006-.003-.007-.003-.007-.003-.007a4.353 4.353 0 00-.004-.006c0-.003-.002-.005-.003-.007l-.003-.007a3.636 3.636 0 01-.003-.006c0-.003-.002-.005-.003-.007l-.003-.007a1.964 1.964 0 01-.009-.02l-.003-.006-.003-.007-.003-.007-.003-.006a1.332 1.332 0 00-.003-.007l-.003-.006-.003-.007-.003-.007a1.928 1.928 0 01-.003-.006l-.003-.007a1.923 1.923 0 01-.003-.006l-.003-.007-.003-.007-.003-.006-.003-.007-.003-.006a1.9 1.9 0 01-.006-.013l-.003-.007-.003-.006-.003-.007a1.888 1.888 0 01-.003-.006l-.003-.007-.003-.007-.003-.006-.003-.007a4.096 4.096 0 01-.003-.006l-.003-.007a1.28 1.28 0 01-.003-.006l-.003-.007-.003-.006-.003-.006a1.273 1.273 0 01-.006-.013c0-.003-.002-.005-.003-.007l-.003-.006-.002-.007a1.844 1.844 0 01-.003-.006l-.003-.007-.003-.006-.003-.007a4.007 4.007 0 01-.003-.006l-.003-.006-.003-.007a1.25 1.25 0 00-.006-.013l-.003-.006-.003-.007-.003-.006a3.334 3.334 0 01-.008-.02l-.003-.005a3.95 3.95 0 01-.003-.007l-.003-.006-.003-.007-.003-.006-.003-.006L2 4.429l-.003-.006-.003-.006a1.782 1.782 0 01-.003-.007l-.002-.006-.003-.006-.003-.007-.003-.006-.003-.006a1.774 1.774 0 01-.009-.02l-.003-.006-.002-.006-.003-.006-.003-.007-.003-.006-.003-.006a1.756 1.756 0 00-.006-.013l-.003-.006a1.747 1.747 0 00-.002-.006l-.003-.007-.003-.006-.003-.006-.003-.007-.003-.006-.003-.006-.002-.006a1.736 1.736 0 00-.003-.007l-.003-.006-.003-.006a3.79 3.79 0 00-.006-.013l-.003-.006L1.9 4.21l-.003-.006-.003-.007-.003-.006-.003-.006a3.76 3.76 0 00-.003-.006l-.003-.006-.002-.007-.003-.006-.003-.006-.003-.006-.003-.007-.003-.006-.002-.006-.003-.006-.003-.006-.003-.007-.003-.006-.003-.006-.002-.006-.003-.006-.003-.007a1.165 1.165 0 01-.003-.006l-.003-.006a3.72 3.72 0 00-.003-.006l-.002-.006-.003-.007-.003-.006-.003-.006-.003-.006-.002-.006a3.69 3.69 0 00-.003-.006l-.003-.007-.003-.006-.003-.006-.003-.006-.002-.006-.003-.006-.003-.007a1.675 1.675 0 01-.008-.018l-.003-.006a1.153 1.153 0 00-.009-.019l-.002-.006-.003-.006-.003-.006-.003-.006-.003-.006-.003-.007-.002-.006-.003-.006-.003-.006-.003-.006-.003-.006-.002-.006-.003-.007-.003-.006-.003-.006-.003-.006-.002-.006-.003-.006-.003-.006-.003-.006-.003-.007-.002-.006-.003-.006-.003-.006-.003-.006a3.064 3.064 0 01-.005-.012l-.003-.006a1.66 1.66 0 00-.003-.007l-.003-.006a1.66 1.66 0 01-.003-.006l-.002-.006-.003-.006-.003-.006a1.66 1.66 0 01-.006-.012l-.002-.007-.003-.006a1.66 1.66 0 00-.003-.006l-.003-.006a1.66 1.66 0 01-.003-.006l-.002-.006-.003-.006-.003-.006c0-.003-.002-.005-.003-.007l-.002-.006-.003-.006-.003-.006-.003-.006-.003-.006-.002-.006-.003-.006-.003-.007L1.62 3.6l-.003-.006-.002-.006-.003-.006-.003-.006-.003-.006a1.142 1.142 0 00-.005-.013l-.003-.006-.003-.006-.003-.006-.003-.006-.002-.006-.003-.006-.003-.007-.003-.006-.003-.006-.002-.006-.003-.006-.003-.006-.003-.006-.003-.007-.003-.006-.002-.006-.003-.006-.003-.006-.003-.006-.003-.006-.002-.007-.003-.006-.003-.006-.003-.006a1.68 1.68 0 01-.003-.006l-.002-.006a1.68 1.68 0 00-.006-.013l-.003-.006-.003-.006-.002-.006-.003-.006-.003-.007-.003-.006-.003-.006-.003-.006-.002-.006-.003-.006-.003-.007a1.694 1.694 0 00-.006-.012l-.003-.006a3.72 3.72 0 01-.002-.006l-.003-.007-.003-.006-.003-.006-.003-.006-.002-.006a1.702 1.702 0 01-.003-.007l-.003-.006-.003-.006-.003-.006-.003-.006a1.71 1.71 0 01-.003-.007l-.002-.006-.003-.006a1.176 1.176 0 01-.003-.006L1.437 3.2c0-.003-.002-.005-.003-.007l-.003-.006-.002-.006-.003-.006a3.76 3.76 0 01-.003-.007l-.003-.006-.003-.006-.003-.006-.003-.007-.002-.006-.003-.006-.003-.006-.003-.007-.003-.006-.003-.006-.003-.006-.002-.007a1.743 1.743 0 00-.003-.006l-.003-.006-.003-.007-.003-.006a1.203 1.203 0 01-.006-.012l-.002-.007-.003-.006-.003-.006a1.76 1.76 0 00-.003-.007l-.003-.006a3.862 3.862 0 01-.003-.006l-.003-.007-.003-.006a1.774 1.774 0 00-.008-.019l-.003-.006-.003-.006-.003-.007-.003-.006a1.226 1.226 0 01-.006-.013l-.003-.006-.002-.007-.003-.006-.003-.006-.003-.007-.003-.006-.003-.006-.003-.007-.003-.006L3.36 1.71zm.462 3.686c-.518-1.019-.922-2.199-1.32-3.384l2.155-.946c.407 1.21.76 2.223 1.185 3.06l-2.02 1.27zm-.74-3.31c.017-.003.025-.007.021-.005a.469.469 0 00-.035.016L2.2-.128c.127-.064.3-.14.5-.188l.384 2.403zm-.257.192c-.168.125-.333.224-.412.273a3.252 3.252 0 00-.063.04l-.004.003h-.001a.059.059 0 00.005-.003.767.767 0 00.083-.077 1.136 1.136 0 00.276-.957.833.833 0 00-.097-.274c-.018-.032-.026-.036-.001-.008L.909 3.015c-.132-.15-.369-.442-.445-.861a1.534 1.534 0 01.064-.789A1.59 1.59 0 01.87.808c.188-.2.417-.335.482-.375.115-.071.174-.107.237-.154l1.236 1.999zM3 1.785a18.45 18.45 0 011.631 3.473l-2.147.969a16.074 16.074 0 00-1.415-3.014L3 1.785zm.36 3.386a.563.563 0 00-.02.027l1.79 1.428a2.067 2.067 0 01-.071.095L3.36 5.171zm1.36 6.735a10.483 10.483 0 01-1.007-.185 8.338 8.338 0 00-.81-.152l.376-2.447c.387.047.722.122 1.007.185.293.065.536.118.81.151l-.376 2.448zM3.279 9.122c.576.07 1.154.076 2.036.388L4.5 11.854c-.605-.213-.852-.194-1.598-.285l.377-2.447zM4.5 11.854l-.248-.087.813-2.346.25.089-.815 2.344zm-.362-.136a12.082 12.082 0 00-1.384-.556c-.451-.16-.962-.338-1.458-.604l1.107-2.216c.331.178.689.307 1.167.475.461.163 1.012.356 1.612.654l-1.044 2.247zm-1.88-3.44c.752.266 1.544.545 2.676 1.105L3.89 11.631c-1.017-.503-1.713-.75-2.448-1.008l.816-2.345zm1.502 3.277c-.777-.535-1.639-.845-2.649-1.202l.816-2.344c.973.343 2.095.733 3.137 1.45L3.76 11.555zM1.927 8.009c1.054.372 2.197.937 3.483 1.54l-1.004 2.267c-1.36-.637-2.366-1.135-3.295-1.463l.816-2.344zm3.388 1.5l.002.001h.001l.002.001h.001l.002.001h.001l.001.001h.002l.001.001h.002l.001.001h.001l.002.001h.001a.212.212 0 01.003.002h.004l.001.001h.002l.001.001h.001l.002.001h.001l.001.001h.002v.001h.002l.001.001h.002l.001.001h.003v.001h.002l.001.001h.002v.001h.002a.06.06 0 00.002.001h.002v.001h.002l.001.001h.003v.001h.002l.001.001h.002l.002.001.002.001h.002l.001.001h.001l.002.001h.002v.001h.002l.001.001h.002l.001.001h.002l.001.001h.001l.001.001h.002l.001.001h.002l.002.001h.002v.001h.002l.001.001h.002l.001.001h.002l.001.001h.001l.002.001h.002v.001h.002l.001.001h.002v.001h.002l.001.001h.002l.002.001h.001l.001.001h.003v.001h.001a.024.024 0 00.002 0v.001a.065.065 0 01.002 0v.001h.002l.002.001h.001l.001.001h.003v.001h.002a.012.012 0 00.002.001h.001l.001.001h.003v.001h.001l.001.001h.002l.001.001h.002l.001.001a.015.015 0 00.001 0h.001l.001.001h.002l.001.001h.002v.001h.003v.001h.003v.001h.002l.001.001h.002v.001h.001a.003.003 0 01.001 0H5.5v.001h.001l-.407 1.173-.408 1.172h-.002v-.001h-.002l-.001-.001h-.002v-.001h-.003v-.001h-.003v-.001H4.67v-.001h-.002l-.001-.001h-.002l-.001-.001h-.002v-.001h-.003v-.001h-.003v-.001h-.003v-.001H4.65v-.001h-.002l-.001-.001h-.002l-.001-.001h-.002v-.001h-.003v-.001h-.003v-.001h-.003V11.9h-.006v-.001h-.002l-.001-.001h-.002v-.001h-.003l-.001-.001h-.002v-.001h-.002l-.001-.001h-.002l-.001-.001h-.002l-.001-.001h-.002v-.001h-.002L4.6 11.89h-.002v-.001h-.002a.13.13 0 00-.004-.002H4.59v-.001h-.003l-.001-.001a.149.149 0 00-.002 0l-.001-.001h-.001l-.001-.001H4.58l-.002-.001-.002-.001h-.002l-.001-.001h-.001l-.002-.001h-.002l-.001-.001h-.001l-.001-.001h-.002l-.002-.001H4.56l-.001-.001h-.002v-.001h-.003l-.001-.001H4.55v-.001h-.002l-.001-.001h-.003l-.001-.001h-.001l-.002-.001-.001-.001h-.002v-.001h-.002l-.002-.001-.002-.001h-.002l-.002-.001h-.002v-.001h-.002l-.002-.001H4.52l-.001-.001h-.002l-.001-.001h-.002l-.001-.001h-.001l-.002-.001-.002-.001h-.001l-.001-.001h-.002l-.001-.001H4.5l.815-2.345h.003l.002.001h.001l.002.001h.001l.001.001h.002l.001.001h.002l.001.001h.001l.002.001h.001a.212.212 0 01.003.002h.004l.001.001h.002l.001.001h.001l.002.001h.001l.001.001h.002v.001h.002l.001.001h.002l.001.001h.003v.001h.002l.001.001h.002v.001h.002a.06.06 0 00.002.001h.002v.001h.002l.001.001h.003v.001h.002l.001.001h.002l.002.001.002.001h.002l.001.001h.001l.002.001h.002v.001h.002l.001.001h.002l.001.001h.002l.001.001h.001l.001.001h.002l.001.001h.002l.002.001h.002v.001h.002l.001.001h.002l.001.001h.002l.001.001h.001l.002.001h.002v.001h.002l.001.001h.002v.001h.002l.001.001h.002l.002.001h.001l.001.001h.003v.001h.001a.024.024 0 00.002 0v.001a.065.065 0 01.002 0v.001h.002l.002.001h.001l.001.001h.003v.001h.002a.012.012 0 00.002.001h.001l.001.001h.003v.001h.001l.001.001h.002l.001.001h.002l.001.001a.015.015 0 00.001 0h.001l.001.001h.002l.001.001h.002v.001h.003v.001h.003v.001h.002l.001.001h.002v.001h.001a.003.003 0 01.001 0H5.5v.001h.001l-.407 1.173-.408 1.172h-.002v-.001h-.002l-.001-.001h-.002v-.001h-.003v-.001h-.003v-.001H4.67v-.001h-.002l-.001-.001h-.002l-.001-.001h-.002v-.001h-.003v-.001h-.003v-.001h-.003v-.001H4.65v-.001h-.002l-.001-.001h-.002l-.001-.001h-.002v-.001h-.003v-.001h-.003v-.001h-.003V11.9h-.006v-.001h-.002l-.001-.001h-.002v-.001h-.003l-.001-.001h-.002v-.001h-.002l-.001-.001h-.002l-.001-.001h-.002l-.001-.001h-.002v-.001h-.002L4.6 11.89h-.002v-.001h-.002a.13.13 0 00-.004-.002H4.59v-.001h-.003l-.001-.001a.149.149 0 00-.002 0l-.001-.001h-.001l-.001-.001H4.58l-.002-.001-.002-.001h-.002l-.001-.001h-.001l-.002-.001h-.002l-.001-.001h-.001l-.001-.001h-.002l-.002-.001H4.56l-.001-.001h-.002v-.001h-.003l-.001-.001H4.55v-.001h-.002l-.001-.001h-.003l-.001-.001h-.001l-.002-.001-.001-.001h-.002v-.001h-.002l-.002-.001-.002-.001h-.002l-.002-.001h-.002v-.001h-.002l-.002-.001H4.52l-.001-.001h-.002l-.001-.001h-.002l-.001-.001h-.001l-.002-.001-.002-.001h-.001l-.001-.001h-.002l-.001-.001H4.5l.815-2.345zm-1.028 2.505c-.143.003-.283.004-.42.004l.116-2.463.39-.003-.086 2.462zm-.418-2.336l.241-.026.11 2.45c-.08.01-.161.018-.242.027l-.109-2.45zm.253 2.43c-.677.012-1.296.17-2.053.37l-.43-2.392c.73-.192 1.595-.424 2.57-.44l-.087 2.463zM1.8 10.057c.268-.029.52-.065.77-.104l.208 2.437c-.264.041-.553.083-.869.118l-.11-2.45zm.756-.003h.003l.003-.002h.007l.003-.001h.004l.003-.001.004-.001a2.247 2.247 0 00.01-.002h.003l.004-.001h.003l.003-.001h.004l.003-.001.003-.001h.004l.003-.001h.004l.003-.001h.003l.004-.001.003-.001h.004a2.247 2.247 0 00.016-.004h.007l.004-.001.003-.001h.003l.004-.001h.003l.004-.001.003-.001a2.247 2.247 0 00.013-.002l.004-.001h.003l.004-.001a2.247 2.247 0 01.006-.001h.004l.003-.001.004-.001h.003l.003-.001h.004l.003-.002h.007l.003-.001a2.247 2.247 0 01.01-.002h.004l.003-.001h.004l.003-.001.003-.001h.004l.003-.001h.003l.004-.001h.003l.004-.002h.006l.004-.001h.003a2.247 2.247 0 01.007-.002h.003l.004-.001h.003l.003-.002h.007l.004-.001h.003L2.853 10h.007a.4.4 0 00.004-.001h.003l.003-.001.004-.001h.003l.004-.001a.4.4 0 01.01-.002h.003l.003-.001a.34.34 0 01.004 0l.003-.001h.004l.003-.001a.34.34 0 01.003-.001h.004l.003-.001h.004l.003-.001.003-.001h.004l.003-.001a.34.34 0 01.003 0l.004-.001.003-.001h.004l.003-.001a.4.4 0 01.003 0l.004-.001a.4.4 0 00.003-.001h.004l.003-.001h.003l.004-.001h.003a.4.4 0 01.003-.002h.007l.004-.001h.003l.003-.001.004-.001h.003l.004-.001h.003l.003-.001.004-.001h.003l.003-.001h.004l.003-.001.004-.001h.003a.4.4 0 01.003-.001h.004a.4.4 0 00.003-.001l.004-.001h.003l.003-.001h.004l.003-.001h.003l.004-.002h.007l.003-.001h.003l.004-.001.003-.001h.004l.003-.001h.003l.004-.001a.4.4 0 00.003-.001h.003a.4.4 0 01.004-.001h.003a.4.4 0 00.004-.001l.003-.001h.003l.004-.001a.4.4 0 00.003 0l.004-.001a.4.4 0 01.006-.002h.007l.003-.001a.483.483 0 01.007-.002h.007l.003-.001h.004l.003-.001.004-.001a.483.483 0 01.01-.002h.003l.003-.001a.4.4 0 01.01-.002h.004l.003-.001h.004l.003-.001h.004l.003-.001h.003l.004-.002a.34.34 0 00.003 0h.003l.004-.001h.003a.34.34 0 00.004-.001l.003-.001h.003l.004-.001a.34.34 0 00.007-.001l.003-.001h.003l.004-.001h.003l.003-.001.004-.001a2.247 2.247 0 00.007-.001h.003l.003-.001.004-.001h.003a.34.34 0 00.004-.001h.003a.483.483 0 01.01-.003h.007l.003-.001a.34.34 0 00.004 0l.003-.001a.483.483 0 01.007-.002h.007l.003-.001a.4.4 0 01.003-.001h.004a.4.4 0 00.003-.001h.003l.004-.001.003-.001h.004l.003-.001h.003a.4.4 0 01.007-.002h.004l.003-.001a.4.4 0 01.01-.002h.003L3.43 9.9h.003l.004-.001h.003a.4.4 0 01.007-.002h.003l.004-.001h.003a.34.34 0 01.003-.001l.004-.001h.003l.003-.001a.34.34 0 01.004 0l.003-.001.004-.001h.003a.34.34 0 01.003-.001h.004a.483.483 0 00.007-.002H3.5l.003-.001a2.247 2.247 0 01.007-.001h.004l.003-.002h.003a.4.4 0 00.004 0l.003-.001a.4.4 0 01.014-.003h.003a.34.34 0 01.003 0l.004-.001.003-.001h.004a.34.34 0 01.003-.001h.003l.004-.001.003-.001h.003a.4.4 0 01.004-.001h.003a.4.4 0 00.004-.001h.003l.003-.002h.007l.004-.001a.4.4 0 01.003 0l.003-.002h.007l.003-.001h.004l.003-.001.004-.001h.003l.003-.001h.004l.003-.001.004-.001h.003l.003-.001h.004l.003-.001.003-.001h.004l.003-.001a.4.4 0 00.004 0l.003-.001h.003l.004-.002h.007l.003-.001h.003l.004-.002h.006l.004-.001h.003l.004-.001.003-.001h.003l.004-.001h.003l.004-.001.003-.001a.4.4 0 01.003 0l.004-.001a.4.4 0 00.003 0l.003-.001.004-.001h.003a.4.4 0 00.004-.001h.003a.4.4 0 01.003-.001h.004l.003-.002h.007l.003-.001h.004l.003-.001.003-.001h.004l.003-.001h.004l.003-.001.003-.001h.004l.003-.001h.004l.003-.001a.4.4 0 01.003-.001h.004a.4.4 0 00.003-.001h.003l.004-.001.003-.001h.004l.003-.001a.4.4 0 01.003 0l.004-.001h.003a.34.34 0 00.004-.002h.006l.004-.001a.34.34 0 00.003 0l.003-.001.004-.001h.003a.34.34 0 00.004-.001h.003l.003-.001.004-.001a2.247 2.247 0 00.007-.001h.003l.003-.001.004-.001a.4.4 0 00.003 0l.003-.001h.004a2.247 2.247 0 00.01-.003h.007l.003-.001a.34.34 0 00.004 0l.003-.002h.007a.34.34 0 00.003-.001h.003l.004-.001.003-.001a.34.34 0 00.004 0l.003-.001h.003a.4.4 0 01.004-.001l.003-.001a.4.4 0 00.004 0L4 9.8a.4.4 0 01.003 0l.004-.001.003-.001h.003a.4.4 0 01.004-.001h.003l.004-.001a.34.34 0 00.003 0l.003-.002h.007a.34.34 0 00.004-.001h.003l.003-.002h.004a.34.34 0 00.003 0l.003-.001h.004a.34.34 0 01.007-.002h.003l.003-.001a.34.34 0 01.01-.002h.004a.34.34 0 01.007-.002h.003l.003-.001a.34.34 0 01.01-.002h.007a.4.4 0 01.004-.002h.003a.4.4 0 00.004 0l.003-.001h.003l.004-.002a.4.4 0 00.003 0h.003l.004-.001h.003a.4.4 0 00.004-.001l.003-.001h.003a.34.34 0 01.01-.002l.004-.001a.34.34 0 01.003 0l.004-.001h.003l.004-.001a.34.34 0 01.006-.002H4.2a.4.4 0 00.003 0l.003-.001h.004l.003-.002h.007a.4.4 0 01.003-.001h.004a.4.4 0 00.003-.001l.004-.001h.003a.34.34 0 01.003-.001h.004l.003-.001.003-.001a.34.34 0 01.004 0l.003-.001h.004l.003-.001a.34.34 0 01.003-.001h.004l.003-.001h.004l.003-.001.003-.001h.004l.249 2.43h-.004l-.003.001h-.004l-.003.001-.003.001h-.004l-.003.001H4.51l-.004.001-.003.001H4.5l-.003.001h-.003l-.004.001-.003.001h-.004l-.003.001h-.003l-.004.001H4.47l-.003.002H4.46l-.004.001h-.003l-.003.001-.004.001h-.003l-.004.001h-.003l-.003.001-.004.001h-.003l-.003.001h-.004l-.003.001-.004.001H4.41l-.003.001h-.004l-.003.001-.004.001h-.003l-.003.001h-.004l-.003.001H4.38l-.004.002h-.007l-.003.001h-.003l-.004.001-.003.001H4.35l-.003.001h-.003l-.004.001-.003.001h-.004l-.003.001h-.003l-.004.001-.003.001h-.003l-.004.001H4.31l-.004.001h-.003l-.003.002h-.007l-.004.001h-.003l-.003.002h-.006l-.003.001H4.27l-.003.001-.004.001H4.26l-.003.001h-.004l-.003.001-.004.001h-.003l-.003.001h-.004l-.003.001-.003.001h-.004l-.003.001h-.004l-.003.001h-.003l-.004.002h-.007l-.003.001h-.003l-.004.002h-.006l-.004.001H4.18l-.004.001-.003.001H4.17l-.004.001h-.003l-.004.001-.003.001h-.003a2.247 2.247 0 00-.007.002h-.003l-.004.001h-.003l-.004.001h-.003l-.003.001H4.12l-.003.002H4.11a2.247 2.247 0 00-.01.003h-.007l-.003.001h-.004l-.003.001-.003.001h-.004l-.003.001H4.07l-.003.001-.003.001a2.247 2.247 0 00-.01.002H4.05l-.003.001h-.004l-.003.001h-.003l-.004.001a2.247 2.247 0 01-.01.002H4.02l-.004.001h-.003l-.003.002h-.007l-.004.001h-.003l-.003.001-.004.001h-.003l-.004.001H3.98l-.003.001-.004.001a2.247 2.247 0 01-.01.002H3.96l-.004.001h-.003a2.247 2.247 0 01-.01.002h-.004l-.003.002h-.007l-.003.001h-.003l-.004.002h-.007a.04.04 0 00-.003.001h-.003a2.247 2.247 0 01-.01.003h-.007l-.004.001-.003.001h-.003l-.004.001h-.003l-.004.001h-.003l-.003.002h-.007l-.004.001h-.003l-.003.002a2.247 2.247 0 01-.01.001H3.83l-.003.002H3.82l-.003.001h-.004l-.003.001-.004.001h-.003l-.003.001h-.004a2.247 2.247 0 01-.006.002h-.004l-.003.001h-.004a.04.04 0 00-.003.001h-.003l-.004.002h-.007l-.003.001h-.003l-.004.002h-.007l-.003.001H3.74l-.004.001-.003.001H3.73l-.004.001h-.003l-.004.001-.003.001h-.003l-.004.001h-.003l-.004.001-.003.001h-.003l-.004.001h-.003l-.003.001H3.68l-.003.002H3.67l-.003.001h-.004l-.003.002h-.007l-.003.001h-.004l-.003.001-.003.001h-.004l-.003.001H3.63l-.003.001-.003.001H3.62l-.003.001h-.004l-.003.001-.003.001h-.004a.04.04 0 00-.003.001h-.003l-.004.001H3.59l-.004.002H3.58l-.004.001h-.003l-.004.002h-.006l-.004.001h-.003l-.003.001-.004.001h-.003a2.247 2.247 0 00-.007.002h-.003l-.004.001H3.53l-.004.001h-.003l-.003.001a2.247 2.247 0 00-.007.002h-.007l-.003.001h-.004a2.247 2.247 0 00-.006.002h-.004l-.003.001H3.48l-.003.002a2.247 2.247 0 00-.01.001h-.003l-.004.001-.003.001h-.004l-.003.001h-.003l-.004.001-.003.001h-.004l-.003.001H3.43l-.004.001h-.003l-.003.002h-.007l-.004.001h-.003l-.003.002h-.006a2.247 2.247 0 00-.017.004h-.007l-.003.001-.004.001h-.003l-.003.001h-.004l-.003.001-.004.001a2.247 2.247 0 00-.013.002h-.003l-.004.002h-.003a2.247 2.247 0 01-.007.001h-.003l-.004.002h-.007l-.003.001H3.3l-.004.002a.04.04 0 00-.006 0l-.004.001h-.003l-.004.001-.003.001h-.003l-.004.001h-.003a2.247 2.247 0 01-.01.003H3.25a.04.04 0 00-.003 0l-.003.001H3.24l-.003.002H3.23l-.003.001h-.004l-.003.002h-.007l-.003.001h-.004l-.003.001-.003.001h-.004l-.003.001H3.19l-.003.001-.003.001a2.247 2.247 0 01-.01.002H3.17l-.003.001h-.004a2.247 2.247 0 01-.01.002H3.15l-.004.002H3.14l-.004.001a2.247 2.247 0 01-.01.002h-.003l-.004.001h-.003l-.004.001-.003.001h-.003l-.004.001H3.1l-.003.001-.004.001H3.09l-.004.001h-.003l-.003.001a.04.04 0 01-.004 0l-.003.002h-.007l-.003.001h-.004l-.003.002h-.007l-.003.001H3.04l-.003.002H3.03l-.003.001h-.004l-.003.001-.003.001h-.004l-.003.001h-.003l-.004.001-.003.001h-.004l-.003.001H2.99a.04.04 0 01-.004.001h-.003l-.004.002h-.006l-.004.001h-.003l-.003.002h-.007l-.004.001H2.95l-.003.002H2.94l-.004.001h-.003l-.003.001-.004.001h-.003l-.003.001h-.004l-.003.001-.004.001h-.003l-.003.001h-.004l-.003.001h-.004l-.003.002h-.007l-.003.001h-.003l-.004.002h-.007l-.003.001h-.003l-.004.001-.003.001h-.004l-.003.001h-.003l-.004.001-.003.001h-.003l-.004.001h-.003l-.004.001-.003.001h-.003l-.004.001h-.003l-.004.001-.248-2.43zm1.363-.17h.003l.001-.001.001-.001h.001l.001-.001h.001l.001-.001.002-.001.002-.001.002-.001.001-.001h.001l.001-.001h.001v-.001h.002v-.001h.002V9.87h.001l.001-.001h.001v-.001h.002v-.001h.001l.001-.001h.001l.001-.001.002-.001.001-.001h.001l.001-.001.002-.001.001-.001h.001l.002-.001.001-.001a.056.056 0 00.002-.001l.001-.001a.02.02 0 00.002 0v-.001h.001l.001-.001.002-.001.001-.001h.002v-.001h.001V9.85h.002l.001-.001.001-.001h.001l.002-.001v-.001h.002l.001-.001.001-.001h.001l.001-.001h.001a.023.023 0 00.001-.001h.001v-.001h.002V9.84h.003v-.001H4v-.001l.002-.001.001-.001h.002v-.001h.001v-.001h.002v-.001h.001a.016.016 0 01.001-.001.01.01 0 01.002-.001h.001V9.83h.001l.001-.001h.001v-.001h.002l.001-.001h.001v-.001h.001a.013.013 0 01.001-.001h.001l.001-.001a.029.029 0 01.003-.002h.001l.001-.001h.001a.019.019 0 00.001-.001h.001l.001-.001.001-.001h.002v-.001h.001a.009.009 0 01.002-.001v-.001h.002v-.001h.002v-.001h.001v-.001h.002V9.81h.003l.001-.001h.001l.001-.001h.001v-.001h.002v-.001h.001l.001-.001h.001l.001-.001h.001v-.001h.002v-.001h.002V9.8h.003v-.001h.002v-.001h.001l.001-.001h.001a.003.003 0 000-.001h.002v-.001h.002v-.001h.002v-.001h.001v-.001h.002V9.79h.003l.494 1.08.494 1.082H5.07v.001h-.002v.001h-.002v.001h-.002v.001h-.001l-.001.001H5.06v.001h-.001v.001h-.002v.001h-.001v.001h-.002v.001h-.002v.001H5.05l-.001.001h-.001l-.001.001h-.001v.001h-.002v.001h-.002v.001h-.001v.001H5.04v.001h-.002v.001h-.001l-.001.001h-.001l-.001.001h-.001v.001H5.03v.001l-.001.001h-.001v.001h-.002v.001h-.002v.001h-.001l-.001.001H5.02l-.001.001h-.001v.001h-.002v.001h-.001l-.001.001h-.001l-.001.001h-.001l-.001.001v.001h-.002v.001h-.001l-.001.001a.025.025 0 01-.002.001l-.001.001H5v.001l-.001.001h-.001v.001h-.002v.001h-.001l-.001.001h-.002v.001H4.99v.001h-.002a.035.035 0 00-.002.002h-.001v.001h-.002v.001h-.002v.001H4.98v.001h-.001l-.001.001h-.001l-.001.001-.001.001h-.001l-.001.001h-.001l-.001.001H4.97v.001h-.002l-.001.001-.001.001h-.001v.001h-.002l-.001.001-.002.001h-.001v.001h-.002v.001h-.001v.001h-.002v.001h-.001l-.002.001-.001.001h-.001v.001h-.002v.001h-.001l-.001.001h-.002v.001h-.001l-.001.001H4.94v.001h-.002v.001h-.001l-.001.001h-.001v.001h-.002v.001h-.001l-.001.001H4.93l-.001.001h-.001v.001h-.002v.001h-.002v.001h-.001l-.001.001H4.92l-.001.001h-.001v.001h-.002v.001h-.002v.001l-.002.001-.001.001H4.91l-.001.001h-.001l-.001.001h-.001l-.988-2.161zm1.65 3.16c.007-.004-.006.002-.051.04-.053.045-.101.09-.2.182a4.45 4.45 0 01-.82.619l-.987-2.162a2.02 2.02 0 00.376-.294c.116-.106.382-.369.695-.548l.988 2.162zm-2.058-1.321c-.006.004.007-.003.052-.041.053-.045.1-.09.2-.182.18-.166.45-.407.82-.619l.987 2.162a2.052 2.052 0 00-.376.294c-.116.106-.382.369-.696.548l-.987-2.162zm2.059 1.32c-.155.088-.347.236-.635.463-.248.194-.591.467-.931.662l-.988-2.162c.155-.089.347-.236.636-.463.247-.194.59-.467.93-.662l.988 2.162zm-2.554-1.037c.143-.082.289-.198.53-.397.212-.175.52-.432.872-.634l.987 2.162c-.142.082-.289.199-.53.398-.212.174-.519.431-.871.633l-.988-2.162zm2.389 1.131c-.68.389-1.204.696-1.65 1.128l-1.48-1.79c.708-.686 1.503-1.134 2.143-1.5l.987 2.162zm-3.197-.592c.58-.654 1.446-1.133 2.045-1.475l.987 2.162c-.72.412-1.174.687-1.417.963l-1.615-1.65zm3.032.687l-.004.002a.076.076 0 01-.008.004l-.003.003a.076.076 0 00-.008.004.076.076 0 00-.004.002l-.004.002-.004.003-.004.002-.004.002a.076.076 0 01-.003.002l-.004.002-.004.003-.004.002a.076.076 0 00-.004.002l-.004.002-.004.002-.003.003-.004.002-.004.002a.076.076 0 01-.004.002l-.004.002-.004.003-.004.002a.072.072 0 00-.007.004l-.004.003-.004.002-.004.002-.004.002-.004.002-.004.003a.076.076 0 01-.003.002l-.004.002a.076.076 0 00-.008.005.076.076 0 00-.004.002l-.004.002-.004.002-.003.002a.076.076 0 01-.004.002l-.004.003-.004.002-.004.002-.004.002a.076.076 0 00-.004.003l-.004.002-.003.002-.004.002-.004.002a.072.072 0 01-.004.003l-.004.002-.004.002-.004.002a.076.076 0 00-.007.005.076.076 0 00-.004.002l-.004.002-.004.002-.004.003-.004.002-.004.002-.003.002-.004.002a.076.076 0 00-.008.005.076.076 0 00-.004.002l-.004.002-.004.002-.003.003-.004.002a.076.076 0 01-.004.002l-.004.002-.004.002a.076.076 0 00-.008.005.076.076 0 00-.003.002l-.004.002-.004.003-.004.002-.004.002-.004.002-.004.002-.004.002-.003.003-.004.002a.072.072 0 00-.004.002l-.004.002-.004.003-.004.002-.004.002-.003.002-.004.002-.004.003-.004.002a.076.076 0 00-.008.004l-.004.003-.004.002-.003.002-.004.002-.004.002a.076.076 0 01-.004.002l-.004.003-.004.002a.076.076 0 00-.007.004.076.076 0 00-.004.003l-.004.002-.004.002-.004.002-.004.002-.004.003-.004.002-.003.002a.076.076 0 00-.004.002l-.004.002a.076.076 0 00-.004.003l-.004.002-.004.002-.004.002-.003.002-.004.003-.004.002-.004.002a.072.072 0 00-.008.005.072.072 0 00-.004.002l-.003.002-.004.002-.004.002-.004.003-.004.002a.076.076 0 01-.004.002l-.004.002a.076.076 0 00-.004.002l-.003.003a.076.076 0 00-.004.002l-.004.002-.004.002-.004.002-.004.003-.004.002-.003.002-.004.002-.004.003a.076.076 0 00-.004.002l-.004.002-.004.002-.004.002-.003.003-.004.002-.004.002-.004.002-.004.002-.004.003a.072.072 0 00-.008.004l-.003.002-.004.002-.004.003-.004.002-.004.002-.004.002a.076.076 0 01-.004.002l-.003.003a.076.076 0 00-.008.004.076.076 0 00-.004.002l-.004.003-.004.002-.004.002a.076.076 0 01-.004.002l-.003.002-.004.003-.004.002-.004.002a.076.076 0 00-.004.002l-.004.003-.004.002-.003.002-.004.002-.004.002-.004.002-.004.003-.004.002a.076.076 0 00-.007.004.076.076 0 00-.004.003l-.004.002-.004.002-.004.002-.004.002-.004.003-.004.002-.003.002a.076.076 0 00-.008.005.076.076 0 00-.004.002l-.004.002-.004.002-.004.002-.003.002a.076.076 0 01-.004.003l-.004.002a.076.076 0 01-.004.002l-.004.002a.076.076 0 00-.008.005l-.004.002-.003.002-.004.002-.004.003-.004.002-.004.002-.004.002-.004.002-.003.003a.072.072 0 00-.004.002l-.004.002-.004.002-.004.002-.004.003-.004.002-.003.002-.004.002-.004.003a.076.076 0 00-.008.004.076.076 0 00-.004.002l-.004.002-.004.003-.003.002-.004.002a.076.076 0 01-.004.002l-.004.002-.004.003a.076.076 0 00-.008.004.076.076 0 00-.003.002l-.004.002-.004.003-.004.002-.004.002-.004.002-.004.003-.004.002a.076.076 0 00-.003.002l-.004.002a.072.072 0 00-.004.002l-.004.003-.004.002-.004.002-.004.002-.003.002-.004.003-.004.002a.072.072 0 00-.008.004.072.072 0 00-.004.002l-.004.003-.003.002-.004.002-.004.002-.004.002a.076.076 0 01-.004.003l-.004.002-.004.002-.004.002a.076.076 0 00-.003.003l-.004.002-.004.002-.004.002-.004.002-.004.003-.004.002-.003.002-.004.002-.004.003c-.001 0-.003 0-.004.002l-.004.002-.004.002-.004.002-.004.002-.003.003-.004.002-.004.002-.004.002-.004.003a.076.076 0 00-.008.004l-.003.002-.004.002-.004.003a.076.076 0 01-.004.002l-.004.002a.076.076 0 01-.004.002l-.004.003a.076.076 0 00-.007.004.076.076 0 00-.004.002l-.004.002-.004.002-.004.003-.004.002-.004.002-.003.002-.004.003-.004.002a.076.076 0 00-.004.002l-.004.002-.004.002-.004.003-.003.002-.004.002-.004.002-.004.002-.004.003-.004.002a.072.072 0 00-.008.004l-.003.002-.004.003-.004.002-.004.002-.004.002-.004.003a.076.076 0 01-.004.002l-.003.002a.076.076 0 00-.008.004l-.004.003-.004.002-.004.002-.004.002a.076.076 0 01-.003.002l-.004.003a.076.076 0 01-.004.002l-.004.002-.004.002a.076.076 0 00-.004.002l-.004.003-.004.002-.003.002-.004.002-.004.003-.004.002a.072.072 0 01-.004.002l-.004.002a.076.076 0 00-.007.005.076.076 0 00-.004.002l-.004.002-.004.002-.004.002-.004.003-.004.002a.076.076 0 01-.004.002l-.003.002a.076.076 0 00-.008.005.076.076 0 00-.004.002l-.004.002-.004.002-.004.002-.003.003a.076.076 0 01-.008.004l-.004.002a.076.076 0 00-.008.005.076.076 0 00-.004.002l-.003.002-.004.002-.004.003-.004.002-.004.002a.076.076 0 01-.004.002l-.004.002-.004.003-.003.002a.072.072 0 00-.004.002l-.004.002-.004.002-.004.003-.004.002-.004.002-.003.002-.004.003a.072.072 0 00-.008.004.072.072 0 00-.004.002l-.004.002-.004.003-.004.002-.003.002-.004.002a.076.076 0 01-.004.002l-.004.003-.004.002a.076.076 0 00-.008.004l-.003.002-.004.003-.004.002-.004.002-.004.002a.072.072 0 01-.004.002l-.004.003-.003.002a.076.076 0 00-.004.002l-.004.002a.072.072 0 00-.004.003l-.004.002-.004.002-.004.002-.004.002a.076.076 0 01-.003.003l-.004.002-.004.002a.072.072 0 00-.008.005.072.072 0 00-.004.002l-.004.002-.003.002-.004.002a.076.076 0 01-.008.005.076.076 0 01-.004.002l-.004.002a.076.076 0 00-.008.005.076.076 0 00-.003.002l-.004.002-.004.002-.004.002-.004.003a.076.076 0 01-.004.002l-.004.002-.003.002-.004.002a.076.076 0 00-.004.003l-.004.002-.004.002-.004.002-.004.003-.003.002-.004.002-.004.002-.004.002a.076.076 0 00-.008.005.076.076 0 00-.004.002l-.004.002-.003.002-.004.003-.004.002a.076.076 0 01-.004.002l-.004.002a.076.076 0 01-.004.002l-.004.003a.076.076 0 00-.007.004l-.004.002-.004.003-.004.002-.004.002a.076.076 0 01-.004.002l-.004.002a.076.076 0 01-.003.002l-.004.003-.004.002a.076.076 0 00-.004.002l-.004.002-.004.003-.004.002-.003.002a.072.072 0 01-.004.002l-.004.002-.004.003-.004.002a.076.076 0 00-.008.004.076.076 0 00-.003.002l-.004.003-.004.002-.004.002a.076.076 0 01-.004.002l-.004.002-.004.003-.004.002a.076.076 0 00-.007.004.076.076 0 00-.004.003l-.004.002-.004.002-.004.002-.004.002a.076.076 0 01-.003.003l-.004.002-.004.002a.076.076 0 00-.004.002l-.004.002a.076.076 0 00-.004.003l-.004.002-.004.002-.003.002-.004.002-.004.003-.004.002-.004.002-.987-2.162.004-.002.004-.002.003-.002.004-.003a.076.076 0 01.004-.002l.004-.002.004-.002a.076.076 0 00.004-.003l.004-.002a.076.076 0 00.003-.002l.004-.002.004-.002.004-.003.004-.002.004-.002.004-.002.004-.002a.072.072 0 00.007-.005.072.072 0 00.004-.002l.004-.002.004-.002.004-.003.004-.002.003-.002a.076.076 0 01.004-.002l.004-.003a.076.076 0 00.008-.004.076.076 0 00.004-.002l.004-.002.003-.003.004-.002.004-.002.004-.002a.076.076 0 01.004-.002l.004-.003.004-.002a.076.076 0 00.004-.002l.003-.002.004-.002.004-.003.004-.002.004-.002.004-.002.004-.003.003-.002.004-.002a.072.072 0 00.008-.004l.004-.003.004-.002.004-.002.004-.002.003-.002.004-.003.004-.002.004-.002a.072.072 0 00.008-.004l.004-.003.003-.002.004-.002.004-.002a.076.076 0 01.004-.002l.004-.003a.076.076 0 01.004-.002l.004-.002a.076.076 0 00.007-.005l.004-.002.004-.002.004-.002.004-.002a.072.072 0 01.004-.003l.004-.002.003-.002.004-.002.004-.003a.076.076 0 00.004-.002l.004-.002.004-.002.004-.002.003-.002.004-.003.004-.002.004-.002.004-.002.004-.003A.072.072 0 002.626 12l.003-.002.004-.002.004-.003.004-.002a.076.076 0 01.004-.002l.004-.002.004-.003s.002 0 .003-.002a.076.076 0 00.008-.004l.004-.002.004-.002.004-.003.004-.002.003-.002.004-.002.004-.003.004-.002.004-.002a.076.076 0 00.004-.002l.004-.002.004-.003.003-.002.004-.002.004-.002.004-.002.004-.003.004-.002a.076.076 0 00.007-.004l.004-.002.004-.003.004-.002.004-.002.004-.002a.076.076 0 01.004-.003l.004-.002.003-.002a.076.076 0 00.008-.004.076.076 0 00.004-.003l.004-.002.004-.002.004-.002.003-.002.004-.003a.076.076 0 01.004-.002l.004-.002a.076.076 0 00.004-.002l.004-.002.004-.003.003-.002.004-.002.004-.002.004-.003.004-.002.004-.002.004-.002a.072.072 0 00.007-.005.072.072 0 00.004-.002l.004-.002.004-.002.004-.002.004-.003.004-.002a.076.076 0 01.003-.002l.004-.002a.076.076 0 00.008-.005.076.076 0 00.004-.002l.004-.002.004-.002.004-.002.003-.003.004-.002a.076.076 0 01.004-.002l.004-.002.004-.003a.076.076 0 00.004-.002l.004-.002.003-.002.004-.002.004-.003.004-.002.004-.002a.072.072 0 01.004-.002l.004-.002.003-.003a.072.072 0 00.008-.004l.004-.002.004-.002.004-.003.004-.002.004-.002A.076.076 0 013 11.785l.004-.002.004-.003a.076.076 0 00.008-.004l.004-.002.004-.003.003-.002.004-.002a.076.076 0 01.008-.004.076.076 0 01.004-.003l.004-.002.004-.002a.076.076 0 00.004-.002l.003-.002.004-.003.004-.002.004-.002.004-.002a.076.076 0 01.004-.002l.004-.003.003-.002.004-.002a.072.072 0 00.008-.005l.004-.002.004-.002.004-.002.003-.002.004-.003.004-.002.004-.002a.076.076 0 00.008-.005.076.076 0 00.004-.002l.004-.002.003-.002.004-.002.004-.003a.076.076 0 01.004-.002l.004-.002.004-.002a.076.076 0 00.007-.005.076.076 0 00.004-.002l.004-.002.004-.002.004-.002.004-.003a.072.072 0 01.004-.002l.004-.002.003-.002.004-.002.004-.003a.076.076 0 00.004-.002l.004-.002.004-.002.004-.003.003-.002a.076.076 0 01.004-.002l.004-.002.004-.002.004-.003a.076.076 0 00.008-.004l.004-.002.003-.002.004-.003.004-.002a.076.076 0 01.008-.004l.004-.002.004-.003a.076.076 0 00.007-.004.076.076 0 00.004-.002l.004-.003.004-.002.004-.002a.076.076 0 01.004-.002l.003-.002.004-.002.004-.003a.076.076 0 00.004-.002l.004-.002a.076.076 0 00.004-.002l.004-.003.004-.002.003-.002.004-.002.004-.002.004-.003.004-.002a.072.072 0 00.008-.004.072.072 0 00.003-.002l.004-.003.004-.002.004-.002.004-.002.004-.002a.076.076 0 01.004-.003l.003-.002a.076.076 0 00.008-.004.076.076 0 00.004-.003l.004-.002.004-.002.004-.002.004-.002.003-.003.004-.002.004-.002.004-.002a.076.076 0 00.004-.002l.004-.003.004-.002.003-.002.004-.002.004-.002.004-.003.004-.002.004-.002.004-.002a.072.072 0 00.007-.005l.004-.002.004-.002.004-.002.004-.003.004-.002.004-.002a.076.076 0 01.003-.002l.004-.002a.076.076 0 00.008-.005.076.076 0 00.004-.002l.004-.002.004-.003.004-.002a.076.076 0 01.003-.002l.004-.002a.076.076 0 01.004-.002l.004-.003.004-.002a.076.076 0 00.004-.002l.004-.002.003-.002.004-.003.004-.002.004-.002.004-.002.004-.002.004-.003.003-.002a.072.072 0 00.008-.004l.004-.003.004-.002.004-.002.004-.002.004-.002.003-.002.004-.003a.076.076 0 00.008-.004l.004-.002.004-.003.004-.002.003-.002.004-.002a.076.076 0 01.004-.002l.004-.003a.076.076 0 01.004-.002l.004-.002.004-.002a.076.076 0 00.003-.003l.004-.002.004-.002.004-.002.004-.002.004-.002.004-.003.004-.002.003-.002.004-.002a.076.076 0 00.004-.003l.004-.002.004-.002.004-.002.004-.002.003-.003.004-.002.004-.002.004-.002a.076.076 0 00.008-.005.076.076 0 00.004-.002l.004-.002.003-.002.004-.002.004-.003a.076.076 0 01.004-.002l.004-.002.004-.002a.076.076 0 00.007-.005.076.076 0 00.004-.002l.004-.002.004-.002.004-.003.004-.002.004-.002.004-.002.003-.002a.076.076 0 00.004-.003l.004-.002a.076.076 0 00.004-.002l.004-.002.004-.002.004-.003.003-.002.004-.002.004-.002.004-.003a.072.072 0 00.008-.004.072.072 0 00.004-.002l.003-.002.004-.003.004-.002.004-.002.004-.002a.076.076 0 01.004-.002l.004-.003a.076.076 0 00.004-.002l.003-.002a.076.076 0 00.004-.002l.004-.002.004-.003.004-.002.004-.002.004-.002.003-.002.004-.003.004-.002a.076.076 0 00.004-.002l.004-.002.004-.003.004-.002.003-.002.004-.002.004-.002.004-.003.004-.002.004-.002a.072.072 0 00.008-.005.072.072 0 00.003-.002l.004-.002.004-.002.004-.002.004-.002.004-.003a.076.076 0 01.004-.002l.003-.002a.076.076 0 00.008-.005.076.076 0 00.004-.002l.004-.002.004-.002.004-.002a.076.076 0 01.004-.003l.003-.002.004-.002.004-.002.004-.003a.076.076 0 00.004-.002l.004-.002.004-.002.003-.002.004-.002.004-.003.004-.002.004-.002.004-.002a.076.076 0 00.007-.005.076.076 0 00.004-.002l.004-.002.004-.002.004-.003.004-.002.004-.002.004-.002.003-.002a.076.076 0 00.008-.005.076.076 0 00.004-.002l.004-.002.004-.002.004-.003.003-.002a.076.076 0 01.004-.002l.004-.002a.076.076 0 01.004-.003l.004-.002.004-.002a.076.076 0 00.004-.002l.004-.002.003-.003.004-.002.004-.002.004-.002.004-.002.004-.003.004-.002.003-.002a.072.072 0 00.008-.005l.004-.002.004-.002.004-.002.004-.002.987 2.162zM2.274 12.2c.26-.15.548-.36.94-.645.368-.267.809-.585 1.285-.858l.988 2.162c-.348.2-.69.443-1.064.715-.35.254-.762.559-1.162.787L2.274 12.2zm2.225-1.503c.411-.235 1.295-.356 1.69.512.397.867-.208 1.597-.62 1.832l-.987-2.162c-.246.14-.81.733-.455 1.51.354.776 1.114.611 1.36.47l-.988-2.162zm1.236 2.452c-.567.733-.968 1.35-1.225 1.856l-1.993-1.093c.36-.707.865-1.469 1.494-2.28l1.724 1.518zm-3.218.763l.096-.183 1.965 1.145a7.067 7.067 0 00-.068.13l-1.993-1.092zm.165-.094c.188-.37.417-.756.617-1.093.211-.356.393-.664.534-.94l1.993 1.092c-.188.37-.417.755-.618 1.093-.21.356-.392.663-.533.94l-1.993-1.09zm3.144-.941c-.139.272-.241.521-.362.804a5.518 5.518 0 01-.457.9l-1.834-1.364c.044-.066.102-.183.22-.462.106-.247.25-.597.44-.97l1.993 1.092zm-2.653.34c.11-.165.266-.445.463-.823l1.98 1.119a12.46 12.46 0 01-.609 1.069l-1.834-1.365zm.448-.569c.028-.088.154-.6.398-1.003l1.896 1.268c.005-.009-.005.004-.029.076a4.355 4.355 0 00-.042.137l-.063.206-2.16-.684zm.922-1.517l.122-.07.988 2.162-.123.07-.987-2.162zm.534-.535h.002v-.001h.001l.001-.001h.001v-.001h.002v-.001h.002v-.001h.001l.001-.001h.001v-.001h.002v-.001h.002v-.001h.001l.001-.001h.001v-.001h.002v-.001H5.1v-.001h.001l.001-.001h.001v-.001h.001l.988 2.161v.001H6.09v.001h-.002v.001h-.002v.001h-.001v.001h-.002v.001h-.002v.001H6.08l-.001.001h-.001v.001h-.002v.001h-.002v.001h-.001l-.001.001H6.07v.001h-.002v.001h-.002v.001h-.001l-.001.001-.988-2.162zm2.183.552a18.533 18.533 0 011.676 3.524l-2.148.97a16.158 16.158 0 00-1.466-3.078L7.26 11.15zm.847 3.218v-.001h.002v-.001h.002v-.001h.002v-.001h.001v-.001h.002v-.001h.002v-.001h.002v-.001h.001v-.001h.002v-.001h.002l.988 2.161h-.001v.001H9.11v.001h-.002v.001h-.002v.001h-.001v.001h-.002v.001H9.1v.001h-.001v.001h-.001v.001h-.002v.001h-.001l-.988-2.161zm-.012.395c-.496-.996-.89-2.144-1.277-3.298l2.155-.945c.396 1.176.74 2.166 1.151 2.992l-2.029 1.252zM7.4 11.54c.026-.006.03-.01.005.001a1.85 1.85 0 00-.126.067L6.3 9.44c.137-.078.405-.23.716-.304l.383 2.403zm.044-.058c-.22.228-.432.38-.604.487L5.77 9.856a.651.651 0 00.132-.103l1.542 1.728zm-3.071-.034a.762.762 0 00.129.198c.02.022.028.026-.008-.004-.054-.045-.22-.174-.392-.335l1.554-1.894c.11.104.175.15.296.251.08.067.33.266.484.604l-2.063 1.18zm-.487-.306a19.483 19.483 0 00-2.467-.92l.708-2.38c.864.253 1.927.646 2.753 1.028l-.994 2.272zm-2.435.737l-.124.03-.423-2.393c.063-.016.127-.032.19-.046l.357 2.409zm-.139-1.854c.52.067 1.238.077 1.932.04.712-.038 1.283-.118 1.535-.19l.474 2.379c-.5.142-1.273.231-2.019.27-.764.041-1.62.036-2.311-.053l.39-2.446zm3.675-.21c.07-.014.152-.025.245-.024l-.122 2.463a.886.886 0 00.171-.017l-.294-2.422zm.964.228c.033.013.07.027.106.044L5.1 12.375a1.122 1.122 0 00-.035-.015l.885-2.318zm-.296 2.723h-.001l-.001.001H5.65l-.001.001h-.001v.001h-.002v.001h-.001l-.001.001h-.001l-.001.001h-.001v.001H5.64v.001h-.001l-.001.001h-.001l-.001.001h-.001l-.001.001h-.001v.001h-.002v.001H5.63v.001h-.002v.001h-.002v.001h-.002v.001h-.001v.001h-.002v.001h-.002v.001h-.002v.001h-.001l-.001.001h-.001v.001h-.002v.001H5.61l-.001.001h-.001v.001h-.002v.001h-.002v.001h-.001l-.001.001h-.001l-.001.001v.001h-.002v.001h-.001l-.001.001h-.001v.001h-.002l-.001.001H5.59v.001l-.001.001h-.001l-.001.001h-.001v.001h-.002v.001h-.001l-.001.001H5.58v.001h-.001v.001h-.001l-.001.001h-.001l-.001.001h-.001v.001h-.002v.001H5.57l-.001.001h-.001l-.001.001h-.001v.001h-.002v.001h-.002v.001h-.001l-.001.001-.001.001h-.001v.001h-.002v.001h-.002v.001h-.001v.001h-.002v.001h-.002v.001h-.001l-.001.001a.018.018 0 01-.002 0v.001h-.001v.001h-.002v.001H5.54l-.001.001h-.001l-.001.001h-.001v.001h-.002v.001h-.001l-.001.001h-.001l-.001.001v.001h-.002v.001h-.002v.001h-.001l-.001.001h-.001v.001h-.001l-.001.001H5.52l-.001.001h-.001l-.001.001h-.001v.001h-.002v.001h-.001a.021.021 0 00-.001.001H5.51l-.001.001h-.001l-.001.001h-.001v.001h-.002v.001h-.001v.001h-.002v.001H5.5l-.001.001h-.001a.022.022 0 00-.001.001h-.001v.001h-.002l-.001.001h-.001v.001a.022.022 0 01-.001 0H5.49v.001l-.001.001h-.001v.001h-.002v.001h-.001l-.001.001h-.001l-.001.001H5.48v.001h-.001v.001h-.001l-.001.001h-.001v.001h-.002l-.001.001a.024.024 0 01-.001 0v.001H5.47l-.001.001h-.001l-.001.001h-.001v.001h-.001l-.001.001h-.001l-.001.001h-.001l-.001.001v.001a.025.025 0 00-.003.001l-.001.001h-.001v.001h-.002v.001h-.002v.001a.025.025 0 00-.002.001h-.001v.001h-.002v.001h-.002v.001h-.001l-.001.001H5.44l-.001.001h-.001v.001h-.002v.001h-.001l-.001.001h-.001l-.001.001h-.001v.001H5.43l-.001.001h-.001l-.001.001h-.001l-.001.001h-.001v.001h-.002v.001h-.001l-.001.001v.001h-.002l-.987-2.162h.002l.001-.001h.001v-.001h.001l.001-.001h.001l.001-.001h.001v-.001h.001l.001-.001h.001v-.001h.002l.001-.001h.001v-.001h.001l.001-.001h.001a.027.027 0 00.003-.002h.001v-.001h.002v-.001h.001l.001-.001h.001v-.001h.002v-.001h.002v-.001h.001l.001-.001h.001a.025.025 0 01.001-.001h.001v-.001h.001l.001-.001h.001l.001-.001h.001l.001-.001h.001v-.001h.001l.001-.001h.001l.001-.001h.001l.001-.001h.001v-.001h.001a.024.024 0 01.001 0v-.001h.001l.001-.001h.001v-.001h.002v-.001h.001l.001-.001h.001l.001-.001h.001l.001-.001h.001V10.7h.002v-.001H4.5l.001-.001h.001l.001-.001h.001v-.001h.001l.001-.001h.001l.001-.001h.001v-.001h.002v-.001h.001a.022.022 0 01.002-.001.022.022 0 00.001-.001h.001v-.001h.002v-.001h.001l.001-.001h.001l.001-.001h.001a.021.021 0 00.002-.002h.002v-.001h.001l.001-.001h.001l.001-.001a.021.021 0 00.001-.001h.001l.001-.001h.001l.001-.001h.001v-.001h.002v-.001h.002v-.001h.001l.001-.001h.001v-.001h.002v-.001h.001l.001-.001h.001l.001-.001h.001v-.001h.002v-.001h.001l.001-.001h.001l.001-.001h.001v-.001h.002v-.001h.001l.001-.001h.001l.001-.001a.018.018 0 01.002-.001h.001v-.001h.002v-.001h.001l.001-.001h.001l.001-.001h.001v-.001h.001l.001-.001h.001l.001-.001h.001v-.001h.002v-.001h.001l.001-.001h.001l.001-.001h.001v-.001h.002v-.001h.001l.001-.001h.001l.001-.001h.001v-.001h.001a.016.016 0 01.002-.001l.001-.001h.001v-.001H4.6v-.001h.002v-.001h.002v-.001h.001l.001-.001h.001v-.001h.002v-.001h.001l.001-.001h.001l.001-.001h.001v-.001h.002v-.001h.001l.001-.001h.001l.001-.001h.001v-.001h.002v-.001h.002v-.001h.001l.001-.001h.001v-.001h.002v-.001h.001l.001-.001h.001a.014.014 0 01.002-.001v-.001h.002v-.001h.001l.001-.001h.001l.001-.001h.001v-.001h.002v-.001h.001l.001-.001h.001l.001-.001h.001v-.001h.002v-.001h.002v-.001h.001v-.001h.002v-.001h.002v-.001h.002v-.001h.001v-.001h.002v-.001h.002v-.001h.001l.001-.001.988 2.162zm-.62.31c-.514.184-1.179.643-1.71 1.1l-1.37-1.89c.615-.53 1.547-1.214 2.462-1.543l.618 2.333zm-2.144.604c.19-.178.44-.492.683-.872.243-.378.423-.735.507-.96l2.119.803c-.173.468-.459 1.003-.766 1.482-.306.478-.69.986-1.09 1.364L2.89 13.679zm1.19-1.832c.143-.389.437-.93.997-1.25l.987 2.162a.43.43 0 00.134-.115c.013-.018.01-.019.001.006l-2.12-.803zm.265 3.156a1.1 1.1 0 00.12-.625 1.052 1.052 0 00-.48-.801c-.522-.321-.975-.01-1.095.102l1.453 1.817c-.301.283-.941.624-1.573.235a1.268 1.268 0 01-.58-.972 1.602 1.602 0 01.195-.913l1.96 1.157zM2.53 12.365c.398-.051.725.09.902.184.206.11.394.258.55.418.148.155.32.375.432.655.104.26.242.806-.07 1.381l-1.96-1.157c-.23.423-.105.783-.078.851.035.089.067.111.045.09-.015-.017-.027-.023-.02-.02a.367.367 0 00.078.03.712.712 0 00.272.013l-.151-2.445zm.793 1.81c.053-.044.22-.2.279-.529.034-.188.054-.631-.283-.986a.93.93 0 00-.79-.295l.152 2.445a1.16 1.16 0 01-1.004-.343c-.377-.396-.367-.903-.32-1.166.087-.479.376-.826.596-1.017l1.37 1.892zM5.42 12.9a2.42 2.42 0 01-.385.176l-.618-2.332a.316.316 0 00.021-.009l-.006.003.987 2.162zm.073-.042h-.051l-.034.001c-.019 0-.022.002-.016 0a.802.802 0 00.262-.094l-.987-2.161c.256-.146.497-.182.62-.195.121-.013.258-.013.274-.014l-.068 2.463zm.564-2.771c.511.223.879.788.797 1.468-.04.336-.195.677-.47.933a1.354 1.354 0 01-.89.37l.067-2.463a.953.953 0 00-.62.267c-.21.196-.325.456-.355.705-.062.508.215.878.515 1.009l.956-2.29zm-.825-.296c.427 0 .72.224.786.272l.053.04.011.008a.59.59 0 00-.131-.068l-.885 2.318a1.355 1.355 0 01-.3-.164 2.403 2.403 0 01-.098-.071l.018.012a.828.828 0 00.423.115l.123-2.462zm-3.905 2.118c.176-.046.667-.321.664-.981-.002-.665-.5-.88-.679-.903l-.39 2.446c-.536-.07-1.215-.505-1.218-1.403-.003-.893.666-1.413 1.2-1.552l.423 2.393zm.731-3.637c.317.248.49.588.583.862.095.285.136.592.127.887a2.313 2.313 0 01-.242.985c-.189.365-.54.752-1.075.873l-.356-2.41a.853.853 0 00-.556.432.571.571 0 00-.051.134.289.289 0 00-.006.038v-.003l.003.01c0 .002.034.11.167.213l1.406-2.02zm5.866 6.253a1.087 1.087 0 00.11-.188c.004-.01-.01.024-.012.095a.704.704 0 00.074.332l2.03-1.252c.299.601.17 1.219.048 1.574-.13.374-.33.697-.5.922l-1.75-1.483zm.202-.168a.842.842 0 00-.157.117.433.433 0 00-.045.051l1.75 1.483a1.927 1.927 0 01-.56.511l-.988-2.162zm-5.512-.626c.062-.116.15-.263.267-.399.052-.058.168-.185.344-.289.131-.077.687-.356 1.224.056.458.351.456.893.455.985a1.552 1.552 0 01-.055.392 2.3 2.3 0 01-.173.436L2.682 13.82c.014-.028-.006.005-.028.085a1.147 1.147 0 00-.038.29c0 .066-.008.591.44.935.527.405 1.068.127 1.18.06.157-.092.25-.198.275-.226.064-.073.084-.119.067-.088L2.613 13.73zm3.04-.506a.285.285 0 00.082-.074l-1.724-1.517a2.23 2.23 0 01.654-.571l.988 2.162zM2.57 9.952a1.153 1.153 0 011.367 1.102c.047.771-.516 1.164-.62 1.232a1.379 1.379 0 01-.513.197l-.248-2.43a.914.914 0 00-.336.137 1.283 1.283 0 00-.566 1.156c.049.787.676.992.761 1.016a.848.848 0 00.363.027L2.57 9.952zm1.402 2.063c-.041.005-.012.006.06-.02.026-.01.133-.048.26-.143.051-.038.547-.406.51-1.113-.038-.698-.557-.946-.608-.971a.876.876 0 00-.266-.083c-.072-.01-.1-.002-.059-.007l.109 2.45a1.894 1.894 0 01-.452.001 1.196 1.196 0 01-.367-.109 1.162 1.162 0 01-.641-1.009 1.36 1.36 0 01.54-1.159c.147-.11.286-.164.356-.19a1.96 1.96 0 01.448-.097l.11 2.45zm-.105.003a2.76 2.76 0 00-.184.005l.016-.002a1.122 1.122 0 00.528-.239 1.32 1.32 0 00.444-.675 1.26 1.26 0 00-.213-1.135 1.064 1.064 0 00-.364-.29c-.128-.063-.238-.082-.259-.086a.876.876 0 00-.129-.015c-.028-.002-.04 0-.024-.001.024-.001.083-.005.18-.015l.11 2.45a4.842 4.842 0 01-.332.026c-.04.002-.095.003-.15 0a1.16 1.16 0 01-.16-.018 1.068 1.068 0 01-.631-.38 1.26 1.26 0 01-.214-1.135c.112-.398.363-.612.445-.677a1.209 1.209 0 01.72-.265c.089-.007.201-.01.333-.01l-.116 2.462zm.87-2.407l.249.087-.816 2.345-.248-.088.816-2.344zm.041.263a.688.688 0 00-.044.014l.002-.001.017-.007c.027-.01.119-.044.233-.066l.294 2.422a.827.827 0 00.09-.023l.02-.007.004-.001-.004.001-.007.003a1.837 1.837 0 01-.13.044l-.475-2.38zm-.526 1.893l-.118-.042a5.325 5.325 0 01-.03-.01l-.01-.004-.006-.002-.009-.003-.021-.008-.018-.008a1.795 1.795 0 01-.051-.023c-.045-.023-.444-.4-.619-.89.317-1.053 1.344-1.459 1.415-1.446a1.894 1.894 0 01.085.022l.016.006.01.003.008.002a.842.842 0 01.045.016l.119.042-.816 2.345-.116-.041a4.13 4.13 0 00-.029-.01l-.006-.002h.002l.006.002a.54.54 0 00.01.004l.016.005c.004 0 .014.004.02.006l.065.016c.07.013 1.098-.393 1.415-1.446-.175-.49-.574-.867-.619-.89a1.867 1.867 0 00-.069-.03l-.021-.009a.809.809 0 00-.01-.003l.005.001a31.924 31.924 0 00.144.051l-.813 2.346zm2.587.201a1.77 1.77 0 01-.599.228 2.451 2.451 0 01-.501.044 1.93 1.93 0 01-.571-.09 1.312 1.312 0 01-.796-.703l2.063-1.18a.945.945 0 00-.304-.378.693.693 0 00-.185-.097c-.06-.02-.081-.016-.052-.015a.306.306 0 00.055-.004c.004-.001-.006 0-.027.008a.74.74 0 00-.153.075l1.07 2.112zM3.07 2.097c.006-.003-.006.002-.05.034a3.973 3.973 0 00-.08.06l-.114.087-1.236-2c.058-.043.331-.267.61-.406l.87 2.225zm3.749 9.367a.792.792 0 00-.042-.102c-.012-.024-.012-.017.01.007a.54.54 0 00.198.137.677.677 0 00.415.033l-.383-2.403c.689-.165 1.198.179 1.475.496.256.294.402.647.482.887l-2.155.945zm-.976-7.337c.288.566.197 1.17.022 1.588a2.103 2.103 0 01-.908 1.031L4.01 4.561a.484.484 0 00-.224.243.721.721 0 00.035.592l2.02-1.27zm3.094 10.546a.563.563 0 00-.83-.306l.988 2.162c-.923.527-1.975.066-2.306-.887l2.148-.969zM4.866 4.95c.037.128.055.18.07.214l-2.063 1.18A3.957 3.957 0 012.68 5.8l2.186-.85zm1.684 5.605c.098.04.205.098.306.168.08.056.264.192.404.426l-1.938 1.416a.888.888 0 00.22.247c.026.018.05.031.082.045l.926-2.302zm-.583-.925a.835.835 0 00-.157.116.44.44 0 00-.045.052l1.75 1.483a1.926 1.926 0 01-.56.511L5.966 9.63zm-.862.951c.724-.413 1.399-.046 1.445-.026l-.926 2.302a1.936 1.936 0 00-.078-.032c-.01-.004.014.006.056.013a.678.678 0 00.215.001.792.792 0 00.275-.096l-.987-2.162zm1.67-.636a.562.562 0 00-.827-.304l.988 2.162c-.923.527-1.974.066-2.306-.884l2.146-.974zM4.76 6.014c.032.042.058.07.15.176.074.085.19.222.294.396L3.266 8.003l-.014-.019a1.643 1.643 0 00-.056-.068l-.046-.052a3.576 3.576 0 01-.194-.235L4.76 6.014zm-.74 5.631c.145-.24.336-.406.523-.513l.987 2.162a1.08 1.08 0 00.385-.38l-1.896-1.268zm1.207-4.822c.003-.002-.01.004-.043.029a3.26 3.26 0 00-.147.118L3.701 5.05c.12-.1.36-.305.657-.452l.869 2.225zm-.195 4.247l-.083-.182 2.063-1.18.083.182-2.063 1.18zm2.644.092l.001.003.001.002.001.002.001.002.001.003.001.002.001.002.001.002.001.003.001.002.001.002a.047.047 0 01.002.005.047.047 0 01.002.004.2.2 0 00.002.004l.001.002.001.003.001.002.001.002.001.002.001.002.001.002.001.002.001.002.001.002.001.002v.003a.032.032 0 01.003.004v.002l.002.002v.002l.001.002.001.002.001.002.001.002.001.002.001.002v.002l.002.002v.001l.001.002a.044.044 0 00.002.004l.001.002.001.002v.002l.002.002v.002l.001.001.001.002.001.002v.002l.002.002v.002l.001.001.001.002.001.002v.002l.002.001v.002l.001.002.001.002v.001l.002.002v.002l.001.001v.002l.002.002v.001l.001.002v.002l.002.001v.002l.001.002v.001l.002.002a.103.103 0 01.002.005v.001l.001.002v.001l.002.002v.001l.001.002v.001l.001.002.001.001v.002l.001.001.001.002v.001l.001.002.001.001v.002l.001.001.001.002.001.002v.002l.002.001v.003l.001.001.001.001v.002l.001.001v.001l.001.002.001.001v.001l.001.002.001.002.001.001v.002h.001v.002l.001.001v.002h.001v.002l.001.001v.001l.001.001.001.002.001.002.001.002v.001l.001.001v.001l.001.001v.002h.001v.002l.001.002.001.002.001.002.001.002.001.002v.002h.001a.037.037 0 01.002.003v.002l.001.002.001.002v.001l.001.001v.002h.001v.001l.001.001v.002h.001v.001l.001.002.001.002v.001l.001.001v.001l.001.001v.002h.001a.016.016 0 010 .001l.001.002v.001h.001v.002h.001v.002l.001.001v.001l.001.001v.002h.001v.002a.004.004 0 01.001 0v.002h.001v.002h.001v.001l-1.031.59-1.032.59v-.001h-.001v-.002l-.001-.001v-.002h-.001v-.002h-.001v-.002h-.001v-.002l-.001-.001v-.001l-.001-.001v-.001l-.001-.001v-.001l-.001-.002v-.001h-.001v-.002h-.001v-.002h-.001v-.002l-.001-.001v-.001l-.001-.001v-.002h-.001v-.002h-.001v-.002L5.73 12.6l-.001-.002-.001-.001v-.002l-.001-.001v-.001h-.001v-.002h-.001v-.002l-.001-.002-.001-.002-.001-.002-.001-.002v-.002H5.72v-.004h-.001v-.002l-.001-.001v-.001l-.001-.001v-.001l-.001-.001v-.002h-.001v-.002l-.001-.001-.001-.001v-.001l-.001-.002-.001-.002v-.001l-.001-.001v-.002h-.001l-.001-.002v-.001l-.001-.002-.001-.002v-.002h-.001l-.001-.002v-.001l-.001-.002v-.001l-.002-.002v-.002l-.001-.002-.001-.001v-.001l-.001-.002-.001-.001v-.002l-.001-.001v-.001l-.002-.002v-.003l-.002-.001a.1.1 0 00-.001-.003v-.002l-.001-.001-.001-.002v-.001l-.001-.002-.001-.002v-.001l-.002-.002V12.5l-.001-.002v-.001l-.001-.002-.001-.002-.001-.001v-.002l-.001-.002-.001-.001-.001-.002v-.002l-.001-.001-.001-.002-.001-.002v-.001l-.002-.002v-.002l-.001-.001-.001-.002v-.002l-.002-.002v-.001l-.001-.002-.001-.002v-.002l-.002-.002v-.001l-.001-.002-.001-.002-.001-.002v-.002l-.002-.002v-.001l-.001-.002-.001-.002-.001-.002-.001-.002v-.002l-.002-.002v-.002l-.001-.002-.001-.002-.001-.002-.001-.002-.001-.002-.001-.002v-.002l-.002-.002v-.001l-.002-.002v-.003l-.002-.002v-.002l-.001-.002-.001-.002-.001-.002-.001-.002-.001-.002-.001-.002-.001-.002-.001-.002-.001-.002-.001-.003-.001-.002-.001-.002-.001-.002-.001-.002-.001-.002v-.003l-.002-.002-.001-.002-.001-.002-.001-.002-.001-.003-.001-.002-.001-.002-.001-.002-.001-.003a.066.066 0 01-.002-.004l-.001-.003-.001-.002 2.063-1.18.001.003.001.002.001.002.001.002.001.003.001.002.001.002.001.002.001.003.001.002.001.002a.047.047 0 01.002.005.047.047 0 01.002.004.2.2 0 00.002.004l.001.002.001.003.001.002.001.002.001.002.001.002.001.002.001.002.001.002.001.002.001.002v.003a.032.032 0 01.003.004v.002l.002.002v.002l.001.002.001.002.001.002.001.002.001.002.001.002v.002l.002.002v.001l.001.002a.044.044 0 00.002.004l.001.002.001.002v.002l.002.002v.002l.001.001.001.002.001.002v.002l.002.002v.002l.001.001.001.002.001.002v.002l.002.001v.002l.001.002.001.002v.001l.002.002v.002l.001.001v.002l.002.002v.001l.001.002v.002l.002.001v.002l.001.002v.001l.002.002a.103.103 0 01.002.005v.001l.001.002v.001l.002.002v.001l.001.002v.001l.001.002.001.001v.002l.001.001.001.002v.001l.001.002.001.001v.002l.001.001.001.002.001.002v.002l.002.001v.003l.001.001.001.001v.002l.001.001v.001l.001.002.001.001v.001l.001.002.001.002.001.001v.002h.001v.002l.001.001v.002h.001v.002l.001.001v.001l.001.001.001.002.001.002.001.002v.001l.001.001v.001l.001.001v.002h.001v.002l.001.002.001.002.001.002.001.002.001.002v.002h.001a.037.037 0 01.002.003v.002l.001.002.001.002v.001l.001.001v.002h.001v.001l.001.001v.002h.001v.001l.001.002.001.002v.001l.001.001v.001l.001.001v.002h.001a.016.016 0 010 .001l.001.002v.001h.001v.002h.001v.002l.001.001v.001l.001.001v.002h.001v.002a.004.004 0 01.001 0v.002h.001v.002h.001v.001l-1.031.59-1.032.59v-.001h-.001v-.002l-.001-.001v-.002h-.001v-.002h-.001v-.002h-.001v-.002l-.001-.001v-.001l-.001-.001v-.001l-.001-.001v-.001l-.001-.002v-.001h-.001v-.002h-.001v-.002h-.001v-.002l-.001-.001v-.001l-.001-.001v-.002h-.001v-.002h-.001v-.002L5.73 12.6l-.001-.002-.001-.001v-.002l-.001-.001v-.001h-.001v-.002h-.001v-.002l-.001-.002-.001-.002-.001-.002-.001-.002v-.002H5.72v-.004h-.001v-.002l-.001-.001v-.001l-.001-.001v-.001l-.001-.001v-.002h-.001v-.002l-.001-.001-.001-.001v-.001l-.001-.002-.001-.002v-.001l-.001-.001v-.002h-.001l-.001-.002v-.001l-.001-.002-.001-.002v-.002h-.001l-.001-.002v-.001l-.001-.002v-.001l-.002-.002v-.002l-.001-.002-.001-.001v-.001l-.001-.002-.001-.001v-.002l-.001-.001v-.001l-.002-.002v-.003l-.002-.001a.1.1 0 00-.001-.003v-.002l-.001-.001-.001-.002v-.001l-.001-.002-.001-.002v-.001l-.002-.002V12.5l-.001-.002v-.001l-.001-.002-.001-.002-.001-.001v-.002l-.001-.002-.001-.001-.001-.002v-.002l-.001-.001-.001-.002-.001-.002v-.001l-.002-.002v-.002l-.001-.001-.001-.002v-.002l-.002-.002v-.001l-.001-.002-.001-.002v-.002l-.002-.002v-.001l-.001-.002-.001-.002-.001-.002v-.002l-.002-.002v-.001l-.001-.002-.001-.002-.001-.002-.001-.002v-.002l-.002-.002v-.002l-.001-.002-.001-.002-.001-.002-.001-.002-.001-.002-.001-.002v-.002l-.002-.002v-.001l-.002-.002v-.003l-.002-.002v-.002l-.001-.002-.001-.002-.001-.002-.001-.002-.001-.002-.001-.002-.001-.002-.001-.002-.001-.002-.001-.003-.001-.002-.001-.002-.001-.002-.001-.002-.001-.002v-.003l-.002-.002-.001-.002-.001-.002-.001-.002-.001-.003-.001-.002-.001-.002-.001-.002-.001-.003a.066.066 0 01-.002-.004l-.001-.003-.001-.002 2.063-1.18zm3.37 8.1a.45.45 0 00-.664-.236l.987 2.162c-.987.565-2.105.068-2.464-.938l2.14-.989zM1.418 10.22c.022.006.045.01.077.009.016 0 .12-.003.268-.075.103-.051.633-.36.637-1.077a1.116 1.116 0 00-.178-.622.774.774 0 00-.165-.185L.651 10.29a1.362 1.362 0 01-.539-1.094c.004-.799.593-1.175.794-1.274.433-.213.902-.175 1.22-.082l-.708 2.38zM3.34 5.198c.041-.058.28-.425.67-.637l.946 2.185a.802.802 0 00.194-.149l.007-.008a1.468 1.468 0 00-.027.037L3.34 5.198zm6.174 11.094c.018-.009.016-.01-.013.011a3.492 3.492 0 00-.147.12l-1.336-1.92c.104-.087.365-.316.687-.465l.81 2.254zm-3.85-2.7a1.302 1.302 0 00.112-.42c.007-.064.02-.24-.034-.45-.061-.235-.248-.628-.701-.784a1.08 1.08 0 00-.823.055 1.207 1.207 0 00-.368.276c-.072.078-.116.147-.124.159a.872.872 0 00-.105.221l2.16.684a1.835 1.835 0 01-.205.435c-.014.022-.064.1-.14.182-.012.013-.15.172-.374.28-.11.054-.436.19-.824.056-.454-.156-.64-.55-.702-.785a1.31 1.31 0 01-.003-.641 1.42 1.42 0 01.106-.296l2.025 1.028zM4.659 6.738a.8.8 0 00-.04-.102c-.013-.025-.013-.017.008.007a.54.54 0 00.199.137.677.677 0 00.415.033L4.858 4.41c.688-.165 1.197.179 1.475.496.256.294.402.647.482.886l-2.156.946zm-.558 4.567a.908.908 0 00-.216-.164l.994-2.272c.33.152.588.366.776.543L4.1 11.305zm.53-6.047a.601.601 0 00-.369-.379.731.731 0 00-.428-.016.894.894 0 00-.474.308l1.699 1.55c-.483.604-1.157.668-1.628.498a1.6 1.6 0 01-.947-.992l2.147-.969zM8.973 16.13c-.018-.056-.024-.06-.01-.038a.496.496 0 00.173.162L10.3 14.07c.55.317.757.886.84 1.14l-2.166.92zm-5.337-3.735c.038-.073.12-.215.26-.354.138-.134.46-.384.913-.343.46.04.716.348.82.517.105.172.146.336.163.425.061.319.01.662-.128.952l-2.025-1.028c-.096.202-.138.44-.088.699.014.073.05.224.15.387.1.16.349.462.8.502.446.04.76-.206.887-.33.131-.13.201-.257.228-.308l-1.98-1.119zm4.33-3.61c.3.601.17 1.219.048 1.573-.129.375-.33.698-.499.923l-1.75-1.483a1.076 1.076 0 00.11-.188c.004-.01-.01.024-.012.094a.699.699 0 00.074.332l2.03-1.251zm-5.355-7.51c.09.104.252.285.39.51L1.068 3.213a1.676 1.676 0 00-.16-.197l1.702-1.74zM12.31 18.3c.176.36.177.73.157.958A2.927 2.927 0 0112 20.574c-.119.18-.323.438-.63.614l-.988-2.162a.763.763 0 00-.218.187c-.004.006.007-.01.018-.043.012-.033.01-.042.008-.016a.557.557 0 00.003.114.843.843 0 00.082.27l2.035-1.24zm-3.226-2.823c.027.038.054.067.145.175.074.087.195.231.303.414l-1.95 1.398c.001.002-.002-.005-.016-.022a1.848 1.848 0 00-.062-.076c-.046-.054-.161-.185-.258-.32l1.838-1.569zm-1.806-3.869a.725.725 0 00.165-.126L5.9 9.753c.096-.1.228-.217.399-.313l.978 2.167zM2.5 2.012a.798.798 0 00-.041-.102c-.013-.025-.012-.017.01.007a.54.54 0 00.198.137.677.677 0 00.415.033L2.7-.316c.688-.165 1.197.178 1.474.496.257.294.402.647.483.886L2.5 2.012zm7.333 13.876l.001.003.001.002.001.002.001.003.002.002v.002l.002.002v.003l.002.002v.002l.002.002v.002l.002.003v.002l.002.002v.002l.002.002v.003l.002.002v.002l.002.002v.002l.001.002.001.002.001.002.001.002.001.003.001.002.001.002.001.002.001.002.001.002v.002l.002.002v.002l.002.002v.002l.001.002.001.002.001.002.001.002.001.002v.002l.002.002v.001l.002.002v.002a.147.147 0 01.002.004v.002a.146.146 0 01.003.003v.002l.001.002.001.002.001.002v.002l.002.001v.002l.001.002.001.002v.002l.002.001v.002l.001.002a.028.028 0 00.002.003v.002l.001.002.001.001v.002l.002.002v.001l.001.002v.002l.002.001v.002l.001.001v.002l.002.002v.001l.001.002v.001l.001.002.001.001v.002a.1.1 0 00.003.005v.001l.001.002.001.001v.002l.001.001.001.001v.002l.001.001.001.002v.001l.001.002v.001l.002.001v.003l.001.002h.001v.002l.001.002.002.002v.002l.001.002v.001l.001.002.001.001v.001a385944122.925 385944122.925 0 01.002.004v.001l.001.001.001.002.001.002v.001l.001.001v.001l.001.002.001.002v.001l.001.001v.001l.001.001v.002h.001v.002h.001v.002h.001v.002h.001v.002h.001v.002h.001v.002l.001.002.001.002.001.002v.001l.001.001v.001l.001.001v.002h.001v.002h.001v.002h.001v.002l.001.001.001.002v.001h.001v.002l.001.001v.002h.001v.002h.001v.002h.001v.003h.001v.001l.001.001v.001l.001.001v.002h.001v.002h.001v.002l.001.001v.001l.001.001v.002h.001v.002h.001v.001l-1.031.59-1.032.59v-.002h-.001v-.002h-.001v-.002h-.001v-.002h-.001v-.002l-.001-.001v-.004l-.001-.001v-.002h-.001v-.002h-.001v-.002l-.001-.001v-.001l-.001-.001v-.001l-.001-.002-.001-.002v-.001h-.001v-.002l-.001-.001v-.002H7.89v-.002h-.001v-.002h-.001v-.002a.035.035 0 00-.002-.003v-.002h-.001v-.002h-.001v-.002h-.001v-.002l-.001-.001v-.001l-.001-.001v-.001l-.001-.001v-.001l-.001-.001v-.002h-.001V17.3h-.001v-.002h-.001v-.002l-.001-.001v-.001l-.001-.001v-.001l-.001-.002-.001-.002v-.001l-.001-.001v-.001l-.001-.002-.001-.002-.001-.001v-.002h-.001v-.002l-.001-.001v-.002h-.001l-.001-.002v-.001l-.001-.002v-.001l-.001-.001-.001-.002v-.001l-.001-.001v-.002l-.002-.001v-.003l-.001-.001-.001-.002v-.001l-.001-.002h-.001v-.002l-.001-.002-.001-.001v-.002l-.001-.001-.001-.002v-.001l-.001-.002-.001-.001v-.002l-.001-.001-.001-.002v-.001l-.002-.002v-.002l-.001-.001v-.002a.025.025 0 00-.002-.003v-.002l-.002-.001v-.002l-.001-.001v-.002l-.002-.002v-.001l-.001-.002-.001-.002v-.001l-.002-.002V17.2H7.83a.14.14 0 00-.002-.003v-.002l-.001-.002-.001-.001v-.002l-.002-.002a.143.143 0 00-.001-.003l-.001-.002-.001-.002v-.002l-.002-.002v-.002a.146.146 0 00-.002-.003l-.001-.002-.001-.002v-.002a.035.035 0 01-.003-.004v-.002l-.001-.002-.001-.002-.001-.002-.001-.002v-.001l-.002-.002v-.002l-.002-.002v-.002l-.001-.002-.001-.002-.001-.002-.001-.002-.001-.003-.001-.002-.001-.002-.001-.002v-.002l-.002-.002v-.002l-.002-.002v-.002l-.002-.002v-.003l-.002-.002v-.002l-.002-.002v-.002l-.002-.002v-.003l-.002-.002v-.002l-.002-.002v-.002l-.002-.003v-.002l-.002-.002v-.002l-.002-.003v-.002l-.002-.002-.001-.003-.001-.002 2.063-1.18.001.003.001.002.001.002.001.003.002.002v.002l.002.002v.003l.002.002v.002l.002.002v.002l.002.003v.002l.002.002v.002l.002.002v.003l.002.002v.002l.002.002v.002l.001.002.001.002.001.002.001.002.001.003.001.002.001.002.001.002.001.002.001.002v.002l.002.002v.002l.002.002v.002l.001.002.001.002.001.002.001.002.001.002v.002l.002.002v.001l.002.002v.002a.147.147 0 01.002.004v.002a.146.146 0 01.003.003v.002l.001.002.001.002.001.002v.002l.002.001v.002l.001.002.001.002v.002l.002.001v.002l.001.002a.028.028 0 00.002.003v.002l.001.002.001.001v.002l.002.002v.001l.001.002v.002l.002.001v.002l.001.001v.002l.002.002v.001l.001.002v.001l.001.002.001.001v.002a.1.1 0 00.003.005v.001l.001.002.001.001v.002l.001.001.001.001v.002l.001.001.001.002v.001l.001.002v.001l.002.001v.003l.001.002h.001v.002l.001.002.002.002v.002l.001.002v.001l.001.002.001.001v.001a385944122.925 385944122.925 0 01.002.004v.001l.001.001.001.002.001.002v.001l.001.001v.001l.001.002.001.002v.001l.001.001v.001l.001.001v.002h.001v.002h.001v.002h.001v.002h.001v.002h.001v.002h.001v.002l.001.002.001.002.001.002v.001l.001.001v.001l.001.001v.002h.001v.002h.001v.002h.001v.002l.001.001.001.002v.001h.001v.002l.001.001v.002h.001v.002h.001v.002h.001v.003h.001v.001l.001.001v.001l.001.001v.002h.001v.002h.001v.002l.001.001v.001l.001.001v.002h.001v.002h.001v.001l-1.031.59-1.032.59v-.002h-.001v-.002h-.001v-.002h-.001v-.002h-.001v-.002l-.001-.001v-.005l-.001-.001v-.002h-.001v-.002h-.001v-.002l-.001-.001v-.001l-.001-.001v-.001l-.001-.002-.001-.002v-.001h-.001v-.002l-.001-.001v-.002H7.89v-.002h-.001v-.002h-.001v-.002a.035.035 0 00-.002-.003v-.002h-.001v-.002h-.001v-.002h-.001v-.002l-.001-.001v-.001l-.001-.001v-.001l-.001-.001v-.001l-.001-.001v-.002h-.001V17.3h-.001v-.002h-.001v-.002l-.001-.001v-.001l-.001-.001v-.001l-.001-.002-.001-.002v-.001l-.001-.001v-.001l-.001-.002-.001-.002-.001-.001v-.002h-.001v-.002l-.001-.001v-.002h-.001l-.001-.002v-.001l-.001-.002v-.001l-.001-.001-.001-.002v-.001l-.001-.001v-.002l-.002-.001v-.003l-.001-.001-.001-.002v-.001l-.001-.002h-.001v-.002l-.001-.002-.001-.001v-.002l-.001-.001-.001-.002v-.001l-.001-.002-.001-.001v-.002l-.001-.001-.001-.002v-.001l-.002-.002v-.002l-.001-.001v-.002a.025.025 0 00-.002-.003v-.002l-.002-.001v-.002l-.001-.001v-.002l-.002-.002v-.001l-.001-.002-.001-.002v-.001l-.002-.002V17.2H7.83a.14.14 0 00-.002-.003v-.002l-.001-.002-.001-.001v-.002l-.002-.002a.143.143 0 00-.001-.003l-.001-.002-.001-.002v-.002l-.002-.002v-.002a.146.146 0 00-.002-.003l-.001-.002-.001-.002v-.002a.035.035 0 01-.003-.004v-.002l-.001-.002-.001-.002-.001-.002-.001-.002v-.001l-.002-.002v-.002l-.002-.002v-.002l-.001-.002-.001-.002-.001-.002-.001-.002-.001-.003-.001-.002-.001-.002-.001-.002v-.002l-.002-.002v-.002l-.002-.002v-.002l-.002-.002v-.003l-.002-.002v-.002l-.002-.002v-.002l-.002-.002v-.003l-.002-.002v-.002l-.002-.002v-.002l-.002-.003v-.002l-.002-.002v-.002l-.002-.003v-.002l-.002-.002-.001-.003-.001-.002 2.063-1.18z" fill="#fff" mask="url(#path-1-inside-1)"/></svg>