<svg width="71" height="38" fill="none" xmlns="http://www.w3.org/2000/svg"><mask id="path-1-inside-1" fill="#fff"><path d="M2.374 9.253v5.293H.592V1.027h4.986c1.479 0 2.636.378 3.472 1.133.842.755 1.263 1.755 1.263 2.999 0 1.312-.412 2.324-1.235 3.036-.817.706-1.99 1.058-3.519 1.058H2.374zm0-1.457h3.204c.953 0 1.683-.223 2.19-.669.508-.451.762-1.101.762-1.95 0-.804-.254-1.448-.761-1.93-.508-.483-1.204-.734-2.09-.753H2.375v5.302zm13.983 6.935c-1.362 0-2.47-.445-3.324-1.337-.854-.897-1.281-2.095-1.281-3.593v-.315c0-.997.188-1.885.566-2.665.384-.786.916-1.399 1.597-1.838a4.017 4.017 0 012.228-.669c1.306 0 2.321.43 3.046 1.29.724.861 1.086 2.093 1.086 3.696v.715h-6.806c.025.99.313 1.792.864 2.404.557.607 1.262.91 2.117.91.606 0 1.12-.123 1.54-.371a3.88 3.88 0 001.106-.984l1.049.817c-.842 1.293-2.105 1.94-3.788 1.94zm-.214-9.006c-.693 0-1.275.254-1.745.762-.47.501-.762 1.207-.873 2.117h5.032v-.13c-.05-.873-.285-1.548-.705-2.024-.421-.483-.99-.725-1.709-.725zm8.458-3.658V4.5h1.876v1.328H24.6v6.23c0 .402.084.705.251.91.167.197.452.296.854.296.198 0 .47-.037.817-.111v1.393a4.98 4.98 0 01-1.318.185c-.768 0-1.346-.232-1.736-.696-.39-.464-.585-1.123-.585-1.978v-6.23h-1.83V4.5h1.83V2.067H24.6zm8.143 6.453c-1.53-.44-2.643-.978-3.343-1.615-.693-.644-1.04-1.436-1.04-2.377 0-1.065.424-1.944 1.273-2.637.854-.7 1.962-1.05 3.323-1.05.929 0 1.755.18 2.48.54.73.358 1.293.853 1.689 1.485.402.631.604 1.321.604 2.07h-1.792c0-.817-.26-1.457-.78-1.922-.52-.47-1.254-.705-2.2-.705-.88 0-1.567.195-2.062.585-.489.383-.733.919-.733 1.606 0 .55.232 1.018.696 1.402.47.377 1.266.724 2.386 1.04 1.127.315 2.006.665 2.637 1.049.637.377 1.108.82 1.411 1.327.31.508.464 1.105.464 1.792 0 1.096-.427 1.975-1.28 2.637-.855.656-1.997.984-3.427.984a6.402 6.402 0 01-2.6-.529c-.804-.359-1.426-.848-1.866-1.467a3.586 3.586 0 01-.65-2.107h1.792c0 .817.3 1.463.9 1.94.607.47 1.415.706 2.424.706.941 0 1.662-.192 2.163-.576.502-.384.752-.907.752-1.57 0-.661-.232-1.172-.696-1.531-.464-.365-1.306-.724-2.525-1.077zm9.368-6.453V4.5h1.875v1.328h-1.875v6.23c0 .402.083.705.25.91.167.197.452.296.855.296.198 0 .47-.037.817-.111v1.393a4.979 4.979 0 01-1.319.185c-.767 0-1.346-.232-1.736-.696-.39-.464-.585-1.123-.585-1.978v-6.23h-1.829V4.5h1.83V2.067h1.717zm3.249 7.363c0-.984.192-1.87.576-2.655.39-.787.928-1.393 1.615-1.82.694-.427 1.483-.64 2.368-.64 1.368 0 2.473.473 3.314 1.42.848.947 1.272 2.206 1.272 3.778v.121c0 .978-.188 1.857-.566 2.637a4.231 4.231 0 01-1.606 1.81c-.693.434-1.492.65-2.396.65-1.361 0-2.466-.473-3.314-1.42-.842-.947-1.263-2.2-1.263-3.76V9.43zm1.727.204c0 1.114.257 2.009.77 2.683.52.675 1.214 1.012 2.08 1.012.873 0 1.566-.34 2.08-1.02.514-.688.77-1.647.77-2.88 0-1.1-.262-1.992-.788-2.673-.52-.687-1.214-1.03-2.08-1.03-.848 0-1.532.337-2.052 1.011-.52.675-.78 1.64-.78 2.897zm14.428-3.593a5.147 5.147 0 00-.845-.065c-1.126 0-1.89.48-2.293 1.44v7.13H56.66V4.5h1.672l.027 1.16c.564-.897 1.362-1.346 2.396-1.346.334 0 .588.043.761.13v1.597zm5.042 5.989l2.34-7.53h1.838l-4.04 11.596c-.624 1.671-1.618 2.507-2.98 2.507l-.324-.028-.641-.12v-1.393l.464.037c.582 0 1.034-.118 1.356-.353.328-.235.597-.665.808-1.29l.38-1.022L62.175 4.5h1.876l2.507 7.53zm-56.292 20.4c0-.984.192-1.87.576-2.655.39-.787.928-1.393 1.615-1.82.693-.427 1.483-.64 2.368-.64 1.368 0 2.473.473 3.314 1.42.848.947 1.272 2.206 1.272 3.778v.121c0 .978-.189 1.857-.566 2.637a4.231 4.231 0 01-1.606 1.81c-.694.434-1.492.65-2.396.65-1.361 0-2.466-.473-3.314-1.42-.842-.947-1.263-2.2-1.263-3.76v-.121zm1.727.204c0 1.114.257 2.009.77 2.683.52.675 1.214 1.012 2.08 1.012.873 0 1.566-.34 2.08-1.02.514-.688.77-1.647.77-2.88 0-1.1-.262-1.992-.789-2.673-.52-.687-1.213-1.03-2.08-1.03-.847 0-1.531.337-2.051 1.011-.52.675-.78 1.64-.78 2.897zM23.19 27.5l.056 1.262c.767-.965 1.77-1.448 3.008-1.448 2.123 0 3.194 1.198 3.212 3.593v6.639H27.75v-6.648c-.006-.724-.174-1.26-.502-1.606-.322-.347-.826-.52-1.513-.52-.557 0-1.046.148-1.467.446-.42.297-.749.686-.984 1.17v7.158h-1.718V27.5h1.625zm10.733 10.046h-1.718V23.285h1.718v14.26zm4.624 0h-1.718V27.5h1.718v10.046zm-1.857-12.71c0-.28.083-.514.25-.706.174-.192.427-.288.762-.288.334 0 .588.096.76.288.174.192.26.427.26.705a.98.98 0 01-.26.697c-.172.185-.426.278-.76.278-.335 0-.588-.093-.762-.278a1.002 1.002 0 01-.25-.697zm6.239 2.664l.055 1.262c.768-.965 1.77-1.448 3.009-1.448 2.123 0 3.194 1.198 3.212 3.593v6.639h-1.718v-6.648c-.006-.724-.173-1.26-.501-1.606-.322-.347-.826-.52-1.513-.52a2.48 2.48 0 00-1.467.446c-.421.297-.75.686-.984 1.17v7.158h-1.718V27.5h1.625zm13.035 10.231c-1.362 0-2.47-.445-3.324-1.337-.854-.897-1.281-2.095-1.281-3.593v-.315c0-.997.189-1.885.566-2.665.384-.786.916-1.399 1.597-1.838a4.017 4.017 0 012.229-.669c1.306 0 2.32.43 3.045 1.29.724.861 1.086 2.093 1.086 3.696v.715h-6.805c.024.99.312 1.792.863 2.404.557.607 1.263.91 2.117.91.606 0 1.12-.123 1.541-.371.421-.248.79-.576 1.105-.984l1.05.817c-.843 1.294-2.105 1.94-3.789 1.94zm-.213-9.006c-.694 0-1.276.254-1.746.762-.47.501-.761 1.207-.873 2.117h5.032v-.13c-.049-.873-.284-1.548-.705-2.024-.421-.483-.99-.725-1.709-.725z"/><path fill-rule="evenodd" clip-rule="evenodd" d="M13.803 33.478c.18.395.18.395 0 0zm2.073 3.63c.286-.164.561-.894.416-1.19-.505-1.029-.876-2.135-1.236-3.248-.066-.204-.162-.406-.338-.508-.22-.127-.417-.086-.608.003-.155.072-.29.186-.424.297-.409.34-.742.49-.521.798.125.174.283.319.392.504a17.251 17.251 0 011.418 2.992c.137.381.552.55.9.351zm-4.232-8.356c.18.395.18.395 0 0zm-.58-1.272a2.728 2.728 0 01-.132-.375c-.241-.83-.985-2.07-1.446-3.079l1.577 3.454zm.576.06c.232-.31.478-.796.312-1.13-.454-.91-.823-1.98-1.215-3.144-.118-.353-.338-.738-.687-.655a1.247 1.247 0 00-.258.1 2.277 2.277 0 00-.423.3c-.414.343-.75.493-.51.81.121.162.27.299.376.474.573.95 1.09 2.055 1.468 3.137.11.315.452.454.74.29.005-.004.012-.007.018-.01a.676.676 0 00.18-.172zm-2.735-4.786a2.783 2.783 0 01-.132-.379c-.242-.83-.985-2.067-1.445-3.075l1.577 3.454zm.578-.1c.296-.162.501-.593.349-.893-.472-.928-.85-2.024-1.253-3.222-.118-.352-.338-.738-.688-.654-.086.02-.171.057-.257.1-.153.076-.288.19-.427.293-.463.346-.869.387-.447.868.098.111.196.225.275.353a17.261 17.261 0 011.523 3.244c.102.295.451.454.651.204a.71.71 0 00.026-.035c.068-.096.149-.204.248-.258zm.425 5.028c-.66-.08-1.157-.256-1.817-.336.66.08 1.073.074 1.817.336a222.255 222.255 0 00-.248-.087c-.568-.281-1.089-.46-1.576-.633-.12-.042-.24-.149-.121-.102s.311.004.195-.048c-.537-.242-1.088-.436-1.639-.63.992.35 2.066.88 3.389 1.5.248.088.248.088 0 0zm-.425.243c.078-.045.031-.077-.054-.107l-.056-.02a.249.249 0 00-.088-.014l-.36.003c-.458.001-.465.053-.008.003-.347.038-.341.152.006.114l.242-.026a7.245 7.245 0 00-1.508.202c-.075.017-.058.102.017.09.158-.024.164.07.006.098l1.702-.298a.565.565 0 00.1-.045zm.593 1.036c-.33.189-.576.56-1.071.842.33-.189.576-.559 1.071-.842-.495.283-1.071.842-1.566 1.125.495-.283.907-.747 1.401-1.03-.66.377-1.319.754-1.896 1.313.412-.465 1.072-.842 1.731-1.22l-1.978 1.132c.66-.377 1.4-1.03 2.225-1.502.165-.094.248.088.083.182zm.083.182a.972.972 0 00-.286.249c-.598.772-1.051 1.461-1.36 2.067l.083-.157c.156-.291.233-.232.082.063.33-.646.823-1.387 1.151-2.033-.328.646-.492 1.198-.739 1.569.154-.231.34-.569.536-.946.045-.086.067.035.026.123-.04.083.022 0 .05-.087.076-.241.131-.49.265-.71a.193.193 0 01.07-.068l.122-.07zm.412-.465l.027-.015c.167-.096.32-.028.49.043a.482.482 0 01.203.151 17.344 17.344 0 011.571 3.3c.11.316.451.455.739.29l.018-.01a.676.676 0 00.18-.171c.23-.31.477-.795.31-1.13-.453-.91-.822-1.98-1.213-3.144-.119-.353-.339-.738-.688-.655-.14.034-.28.108-.419.187a.519.519 0 00-.117.093 1.885 1.885 0 01-.368.295c-.194.122-.805.153-.9-.055-.067-.147-.242-.232-.526-.498a1.907 1.907 0 00-.496-.354 20.492 20.492 0 00-2.61-.974c-.333-.097-.694.035-.418.25.369.289.38 1.288-.082 1.393a5.196 5.196 0 00-.157.038c-.359.093-.357.489.002.535 1.212.156 3.145.031 3.898-.184.04-.011.077-.03.118-.038a.191.191 0 01.037-.004c.127 0 .22.133.337.18l.071.03c.212.092.18.388-.052.394-.115.003-.262 0-.366.06l-.235.134a1.256 1.256 0 01-.2.09c-.714.257-1.513.828-2.085 1.321-.17.145-.244.385-.034.358.32-.041.924.533.759.837-.121.223.07.334.252.163.59-.556 1.266-1.646 1.522-2.34.086-.231.227-.452.432-.57z"/></mask><path d="M2.374 9.253v5.293H.592V1.027h4.986c1.479 0 2.636.378 3.472 1.133.842.755 1.263 1.755 1.263 2.999 0 1.312-.412 2.324-1.235 3.036-.817.706-1.99 1.058-3.519 1.058H2.374zm0-1.457h3.204c.953 0 1.683-.223 2.19-.669.508-.451.762-1.101.762-1.95 0-.804-.254-1.448-.761-1.93-.508-.483-1.204-.734-2.09-.753H2.375v5.302zm13.983 6.935c-1.362 0-2.47-.445-3.324-1.337-.854-.897-1.281-2.095-1.281-3.593v-.315c0-.997.188-1.885.566-2.665.384-.786.916-1.399 1.597-1.838a4.017 4.017 0 012.228-.669c1.306 0 2.321.43 3.046 1.29.724.861 1.086 2.093 1.086 3.696v.715h-6.806c.025.99.313 1.792.864 2.404.557.607 1.262.91 2.117.91.606 0 1.12-.123 1.54-.371a3.88 3.88 0 001.106-.984l1.049.817c-.842 1.293-2.105 1.94-3.788 1.94zm-.214-9.006c-.693 0-1.275.254-1.745.762-.47.501-.762 1.207-.873 2.117h5.032v-.13c-.05-.873-.285-1.548-.705-2.024-.421-.483-.99-.725-1.709-.725zm8.458-3.658V4.5h1.876v1.328H24.6v6.23c0 .402.084.705.251.91.167.197.452.296.854.296.198 0 .47-.037.817-.111v1.393a4.98 4.98 0 01-1.318.185c-.768 0-1.346-.232-1.736-.696-.39-.464-.585-1.123-.585-1.978v-6.23h-1.83V4.5h1.83V2.067H24.6zm8.143 6.453c-1.53-.44-2.643-.978-3.343-1.615-.693-.644-1.04-1.436-1.04-2.377 0-1.065.424-1.944 1.273-2.637.854-.7 1.962-1.05 3.323-1.05.929 0 1.755.18 2.48.54.73.358 1.293.853 1.689 1.485.402.631.604 1.321.604 2.07h-1.792c0-.817-.26-1.457-.78-1.922-.52-.47-1.254-.705-2.2-.705-.88 0-1.567.195-2.062.585-.489.383-.733.919-.733 1.606 0 .55.232 1.018.696 1.402.47.377 1.266.724 2.386 1.04 1.127.315 2.006.665 2.637 1.049.637.377 1.108.82 1.411 1.327.31.508.464 1.105.464 1.792 0 1.096-.427 1.975-1.28 2.637-.855.656-1.997.984-3.427.984a6.402 6.402 0 01-2.6-.529c-.804-.359-1.426-.848-1.866-1.467a3.586 3.586 0 01-.65-2.107h1.792c0 .817.3 1.463.9 1.94.607.47 1.415.706 2.424.706.941 0 1.662-.192 2.163-.576.502-.384.752-.907.752-1.57 0-.661-.232-1.172-.696-1.531-.464-.365-1.306-.724-2.525-1.077zm9.368-6.453V4.5h1.875v1.328h-1.875v6.23c0 .402.083.705.25.91.167.197.452.296.855.296.198 0 .47-.037.817-.111v1.393a4.979 4.979 0 01-1.319.185c-.767 0-1.346-.232-1.736-.696-.39-.464-.585-1.123-.585-1.978v-6.23h-1.829V4.5h1.83V2.067h1.717zm3.249 7.363c0-.984.192-1.87.576-2.655.39-.787.928-1.393 1.615-1.82.694-.427 1.483-.64 2.368-.64 1.368 0 2.473.473 3.314 1.42.848.947 1.272 2.206 1.272 3.778v.121c0 .978-.188 1.857-.566 2.637a4.231 4.231 0 01-1.606 1.81c-.693.434-1.492.65-2.396.65-1.361 0-2.466-.473-3.314-1.42-.842-.947-1.263-2.2-1.263-3.76V9.43zm1.727.204c0 1.114.257 2.009.77 2.683.52.675 1.214 1.012 2.08 1.012.873 0 1.566-.34 2.08-1.02.514-.688.77-1.647.77-2.88 0-1.1-.262-1.992-.788-2.673-.52-.687-1.214-1.03-2.08-1.03-.848 0-1.532.337-2.052 1.011-.52.675-.78 1.64-.78 2.897zm14.428-3.593a5.147 5.147 0 00-.845-.065c-1.126 0-1.89.48-2.293 1.44v7.13H56.66V4.5h1.672l.027 1.16c.564-.897 1.362-1.346 2.396-1.346.334 0 .588.043.761.13v1.597zm5.042 5.989l2.34-7.53h1.838l-4.04 11.596c-.624 1.671-1.618 2.507-2.98 2.507l-.324-.028-.641-.12v-1.393l.464.037c.582 0 1.034-.118 1.356-.353.328-.235.597-.665.808-1.29l.38-1.022L62.175 4.5h1.876l2.507 7.53zm-56.292 20.4c0-.984.192-1.87.576-2.655.39-.787.928-1.393 1.615-1.82.693-.427 1.483-.64 2.368-.64 1.368 0 2.473.473 3.314 1.42.848.947 1.272 2.206 1.272 3.778v.121c0 .978-.189 1.857-.566 2.637a4.231 4.231 0 01-1.606 1.81c-.694.434-1.492.65-2.396.65-1.361 0-2.466-.473-3.314-1.42-.842-.947-1.263-2.2-1.263-3.76v-.121zm1.727.204c0 1.114.257 2.009.77 2.683.52.675 1.214 1.012 2.08 1.012.873 0 1.566-.34 2.08-1.02.514-.688.77-1.647.77-2.88 0-1.1-.262-1.992-.789-2.673-.52-.687-1.213-1.03-2.08-1.03-.847 0-1.531.337-2.051 1.011-.52.675-.78 1.64-.78 2.897zM23.19 27.5l.056 1.262c.767-.965 1.77-1.448 3.008-1.448 2.123 0 3.194 1.198 3.212 3.593v6.639H27.75v-6.648c-.006-.724-.174-1.26-.502-1.606-.322-.347-.826-.52-1.513-.52-.557 0-1.046.148-1.467.446-.42.297-.749.686-.984 1.17v7.158h-1.718V27.5h1.625zm10.733 10.046h-1.718V23.285h1.718v14.26zm4.624 0h-1.718V27.5h1.718v10.046zm-1.857-12.71c0-.28.083-.514.25-.706.174-.192.427-.288.762-.288.334 0 .588.096.76.288.174.192.26.427.26.705a.98.98 0 01-.26.697c-.172.185-.426.278-.76.278-.335 0-.588-.093-.762-.278a1.002 1.002 0 01-.25-.697zm6.239 2.664l.055 1.262c.768-.965 1.77-1.448 3.009-1.448 2.123 0 3.194 1.198 3.212 3.593v6.639h-1.718v-6.648c-.006-.724-.173-1.26-.501-1.606-.322-.347-.826-.52-1.513-.52a2.48 2.48 0 00-1.467.446c-.421.297-.75.686-.984 1.17v7.158h-1.718V27.5h1.625zm13.035 10.231c-1.362 0-2.47-.445-3.324-1.337-.854-.897-1.281-2.095-1.281-3.593v-.315c0-.997.189-1.885.566-2.665.384-.786.916-1.399 1.597-1.838a4.017 4.017 0 012.229-.669c1.306 0 2.32.43 3.045 1.29.724.861 1.086 2.093 1.086 3.696v.715h-6.805c.024.99.312 1.792.863 2.404.557.607 1.263.91 2.117.91.606 0 1.12-.123 1.541-.371.421-.248.79-.576 1.105-.984l1.05.817c-.843 1.294-2.105 1.94-3.789 1.94zm-.213-9.006c-.694 0-1.276.254-1.746.762-.47.501-.761 1.207-.873 2.117h5.032v-.13c-.049-.873-.284-1.548-.705-2.024-.421-.483-.99-.725-1.709-.725z" fill="#fff"/><path fill-rule="evenodd" clip-rule="evenodd" d="M13.803 33.478c.18.395.18.395 0 0zm2.073 3.63c.286-.164.561-.894.416-1.19-.505-1.029-.876-2.135-1.236-3.248-.066-.204-.162-.406-.338-.508-.22-.127-.417-.086-.608.003-.155.072-.29.186-.424.297-.409.34-.742.49-.521.798.125.174.283.319.392.504a17.251 17.251 0 011.418 2.992c.137.381.552.55.9.351zm-4.232-8.356c.18.395.18.395 0 0zm-.58-1.272a2.728 2.728 0 01-.132-.375c-.241-.83-.985-2.07-1.446-3.079l1.577 3.454zm.576.06c.232-.31.478-.796.312-1.13-.454-.91-.823-1.98-1.215-3.144-.118-.353-.338-.738-.687-.655a1.247 1.247 0 00-.258.1 2.277 2.277 0 00-.423.3c-.414.343-.75.493-.51.81.121.162.27.299.376.474.573.95 1.09 2.055 1.468 3.137.11.315.452.454.74.29.005-.004.012-.007.018-.01a.676.676 0 00.18-.172zm-2.735-4.786a2.783 2.783 0 01-.132-.379c-.242-.83-.985-2.067-1.445-3.075l1.577 3.454zm.578-.1c.296-.162.501-.593.349-.893-.472-.928-.85-2.024-1.253-3.222-.118-.352-.338-.738-.688-.654-.086.02-.171.057-.257.1-.153.076-.288.19-.427.293-.463.346-.869.387-.447.868.098.111.196.225.275.353a17.261 17.261 0 011.523 3.244c.102.295.451.454.651.204a.71.71 0 00.026-.035c.068-.096.149-.204.248-.258zm.425 5.028c-.66-.08-1.157-.256-1.817-.336.66.08 1.073.074 1.817.336a222.255 222.255 0 00-.248-.087c-.568-.281-1.089-.46-1.576-.633-.12-.042-.24-.149-.121-.102s.311.004.195-.048c-.537-.242-1.088-.436-1.639-.63.992.35 2.066.88 3.389 1.5.248.088.248.088 0 0zm-.425.243c.078-.045.031-.077-.054-.107l-.056-.02a.249.249 0 00-.088-.014l-.36.003c-.458.001-.465.053-.008.003-.347.038-.341.152.006.114l.242-.026a7.245 7.245 0 00-1.508.202c-.075.017-.058.102.017.09.158-.024.164.07.006.098l1.702-.298a.565.565 0 00.1-.045zm.593 1.036c-.33.189-.576.56-1.071.842.33-.189.576-.559 1.071-.842-.495.283-1.071.842-1.566 1.125.495-.283.907-.747 1.401-1.03-.66.377-1.319.754-1.896 1.313.412-.465 1.072-.842 1.731-1.22l-1.978 1.132c.66-.377 1.4-1.03 2.225-1.502.165-.094.248.088.083.182zm.083.182a.972.972 0 00-.286.249c-.598.772-1.051 1.461-1.36 2.067l.083-.157c.156-.291.233-.232.082.063.33-.646.823-1.387 1.151-2.033-.328.646-.492 1.198-.739 1.569.154-.231.34-.569.536-.946.045-.086.067.035.026.123-.04.083.022 0 .05-.087.076-.241.131-.49.265-.71a.193.193 0 01.07-.068l.122-.07zm.412-.465l.027-.015c.167-.096.32-.028.49.043a.482.482 0 01.203.151 17.344 17.344 0 011.571 3.3c.11.316.451.455.739.29l.018-.01a.676.676 0 00.18-.171c.23-.31.477-.795.31-1.13-.453-.91-.822-1.98-1.213-3.144-.119-.353-.339-.738-.688-.655-.14.034-.28.108-.419.187a.519.519 0 00-.117.093 1.885 1.885 0 01-.368.295c-.194.122-.805.153-.9-.055-.067-.147-.242-.232-.526-.498a1.907 1.907 0 00-.496-.354 20.492 20.492 0 00-2.61-.974c-.333-.097-.694.035-.418.25.369.289.38 1.288-.082 1.393a5.196 5.196 0 00-.157.038c-.359.093-.357.489.002.535 1.212.156 3.145.031 3.898-.184.04-.011.077-.03.118-.038a.191.191 0 01.037-.004c.127 0 .22.133.337.18l.071.03c.212.092.18.388-.052.394-.115.003-.262 0-.366.06l-.235.134a1.256 1.256 0 01-.2.09c-.714.257-1.513.828-2.085 1.321-.17.145-.244.385-.034.358.32-.041.924.533.759.837-.121.223.07.334.252.163.59-.556 1.266-1.646 1.522-2.34.086-.231.227-.452.432-.57z" fill="#fff"/><path d="M2.374 9.253V8.065H1.186v1.188h1.188zm0 5.293v1.188h1.189v-1.188H2.374zm-1.782 0H-.597v1.188H.592v-1.188zm0-13.519V-.16H-.597v1.188H.592zM9.05 2.16l-.797.882.003.003.794-.885zm.028 6.035l.777.9v-.001l-.777-.899zm-6.704-.4H1.186v1.19h1.188v-1.19zm5.395-.668l.784.893.006-.005-.79-.888zm-2.09-4.633l.026-1.188H5.68v1.188zm-3.305 0V1.306H1.186v1.188h1.188zm10.659 10.9l-.86.82.002.003.858-.823zm-.715-6.573L11.25 6.3l-.002.003 1.07.518zm1.597-1.838l.644.998.003-.001-.647-.997zm6.36 5.032v1.188h1.188v-1.188h-1.188zm-6.806 0V8.826h-1.218l.03 1.218 1.188-.03zm.864 2.404l-.884.795.008.01.876-.805zm4.763-.445l.73-.938-.941-.733-.73.944.94.727zm1.049.817l.996.648.595-.915-.861-.67-.73.937zm-5.747-6.304l.866.813.005-.005-.871-.808zm-.873 2.117l-1.18-.145-.163 1.333h1.343V8.604zm5.032 0v1.188h1.189V8.604h-1.189zm0-.13h1.189V8.44l-.002-.034-1.187.068zm-.705-2.024l-.896.78.005.006.89-.786zm6.75-4.383h1.188V.88H24.6v1.188zm0 2.433h-1.19v1.188h1.19V4.5zm1.875 0h1.188V3.31h-1.188V4.5zm0 1.328v1.188h1.188V5.828h-1.188zm-1.876 0V4.639h-1.188v1.189H24.6zm.251 7.14l-.92.752.006.007.006.007.908-.767zm1.671.185h1.189v-1.47l-1.438.308.25 1.162zm0 1.393l.314 1.146.875-.24v-.906h-1.189zm-3.64-8.718h1.19V4.639h-1.19v1.189zm-1.828 0h-1.189v1.188h1.189V5.828zm0-1.328V3.31h-1.189V4.5h1.189zm1.829 0v1.188h1.188V4.5h-1.188zm0-2.433V.88h-1.189v1.188h1.189zm9.86 6.453l.33-1.142h-.002l-.328 1.142zM29.4 6.905l-.808.87.008.008.8-.878zm.233-5.014l.752.92-.752-.92zm5.802-.51l-.528 1.064.004.002.524-1.067zm1.69 1.485l-1.007.631.005.007 1.002-.638zm.604 2.07v1.189h1.188V4.936H37.73zm-1.792 0h-1.189v1.189h1.189V4.936zm-.78-1.922l-.798.882.006.005.792-.887zm-4.262-.12l.734.935.001-.002-.735-.933zm-.037 3.008l-.757.916.006.005.007.006.744-.927zm2.386 1.04l-.322 1.144h.001l.321-1.144zm2.637 1.049l-.617 1.015.011.007.606-1.022zm1.411 1.327l-1.02.61.005.01 1.015-.62zm-.817 4.43l.724.942.004-.004-.728-.939zm-6.025.454l-.485 1.085.007.003.478-1.088zm-1.867-1.467l-.973.682.004.006.97-.688zm-.65-2.107V9.439h-1.188v1.189h1.188zm1.792 0h1.189V9.439h-1.189v1.189zm.9 1.94l-.738.93.01.01.729-.94zm4.643-2.971l-.735.934.008.006.727-.94zm6.843-7.53H43.3V.88h-1.188v1.188zm0 2.433h-1.189v1.188h1.189V4.5zm1.875 0h1.189V3.31h-1.189V4.5zm0 1.328v1.188h1.189V5.828h-1.189zm-1.875 0V4.639h-1.189v1.189h1.189zm.25 7.14l-.92.752.006.007.006.007.908-.767zm1.672.185h1.188v-1.47l-1.437.308.249 1.162zm0 1.393l.314 1.146.874-.24v-.906h-1.188zm-3.64-8.718h1.189V4.639h-1.189v1.189zm-1.829 0h-1.188v1.188h1.188V5.828zm0-1.328V3.31h-1.188V4.5h1.188zm1.83 0v1.188h1.188V4.5h-1.189zm0-2.433V.88h-1.19v1.188h1.19zm5.542 4.708l-1.065-.529-.003.007 1.068.522zm1.615-1.82l-.623-1.012-.004.002.627 1.01zm5.682.78l-.888.79.003.002.886-.792zm.706 6.536l-1.07-.518-.001.004 1.071.514zm-1.606 1.81l-.626-1.01-.004.003.63 1.007zm-5.71-.77l-.888.79.003.002.885-.792zm1.235-.994l-.946.72.005.006.94-.726zm4.16-.009l.948.716.003-.004-.952-.712zm-.02-5.552l-.947.717.007.01.94-.727zm9.517-.715l-.195 1.172 1.384.23V6.042h-1.189zm-3.138 1.374l-1.096-.46-.092.221v.24h1.188zm0 7.13v1.189h1.188v-1.188h-1.188zm-1.718 0h-1.188v1.189h1.188v-1.188zm0-10.045V3.31h-1.188V4.5h1.188zm1.672 0l1.188-.029-.028-1.16h-1.16V4.5zm.027 1.16l-1.188.029.095 3.95 2.1-3.347-1.007-.632zm3.157-1.216h1.189V3.71l-.657-.329-.532 1.063zm5.042 7.586l-1.128.375 1.167 3.504 1.096-3.527-1.135-.352zm2.34-7.53V3.31h-.876l-.26.836 1.135.353zm1.838 0l1.122.39.55-1.579h-1.672V4.5zm-4.04 11.596l1.114.416.005-.012.004-.013-1.122-.39zm-2.98 2.507l-.1 1.184.05.004h.05v-1.188zm-.324-.028l-.22 1.168.058.011.06.005.102-1.184zm-.641-.12h-1.188v.985l.968.182.22-1.168zm0-1.393l.095-1.185-1.283-.103v1.288h1.188zm.464.037l-.095 1.184.048.004h.047V17.1zm1.356-.353l-.693-.966-.008.007.7.959zm.808-1.29l-1.114-.416-.007.018-.006.018 1.127.38zm.38-1.022l1.114.415.152-.408-.148-.41-1.118.403zM62.175 4.5V3.31h-1.692l.575 1.592 1.117-.403zm1.876 0l1.127-.376-.27-.813h-.857V4.5zM10.84 29.774l-1.064-.528-.003.007 1.068.521zm1.616-1.82l-.623-1.011-.004.002.627 1.01zm5.682.78l-.888.79.003.003.885-.792zm.706 6.537l-1.07-.518-.001.004 1.071.514zm-1.606 1.81l-.626-1.01-.004.003.63 1.007zm-5.71-.77l-.888.79.002.002.886-.792zm1.235-.994l-.946.72.004.006.942-.726zm4.16-.009l.948.716.003-.004-.952-.712zm-.02-5.552l-.947.717.007.01.94-.727zM23.19 27.5l1.187-.052-.05-1.137H23.19V27.5zm.056 1.262l-1.188.053.14 3.175 1.978-2.488-.93-.74zm6.22 2.145h1.189v-.009l-1.189.01zm0 6.639v1.188h1.189v-1.188h-1.189zm-1.717 0H26.56v1.188h1.189v-1.188zm0-6.648h1.188v-.01l-1.188.01zm-.502-1.606l-.87.808.007.009.863-.817zm-3.964 1.095l-1.068-.52-.12.246v.274h1.188zm0 7.159v1.188h1.188v-1.188h-1.188zm-1.718 0h-1.188v1.188h1.188v-1.188zm0-10.046v-1.19h-1.188v1.19h1.188zm12.358 10.046v1.188h1.188v-1.188h-1.188zm-1.718 0h-1.188v1.188h1.188v-1.188zm0-14.261v-1.189h-1.188v1.189h1.188zm1.718 0h1.188v-1.189h-1.188v1.189zm4.623 14.26v1.189h1.189v-1.188h-1.188zm-1.717 0H35.64v1.189h1.188v-1.188zm0-10.045v-1.19H35.64v1.19h1.188zm1.718 0h1.188v-1.19h-1.188v1.19zm-1.607-3.37l-.882-.797-.007.008-.007.008.896.78zm0 1.402l-.883.795.007.008.008.007.868-.81zm5.99 1.968l1.187-.052-.05-1.137H42.93V27.5zm.055 1.262l-1.187.053.14 3.175 1.978-2.488-.93-.74zm6.221 2.145h1.189v-.009l-1.189.01zm0 6.639v1.188h1.188v-1.188h-1.188zm-1.718 0H46.3v1.188h1.188v-1.188zm0-6.648h1.189v-.01l-1.189.01zm-.501-1.606l-.87.808.007.009.863-.817zm-3.964 1.095l-1.069-.52-.12.246v.274h1.189zm0 7.159v1.188h1.188v-1.188h-1.188zm-1.718 0h-1.188v1.188h1.188v-1.188zm0-10.046v-1.19h-1.188v1.19h1.188zm11.336 8.894l-.86.82.002.003.858-.823zm-.715-6.573l-1.068-.521-.001.003 1.07.518zm1.597-1.838l.645.998.002-.001-.647-.997zm6.36 5.032v1.188h1.189v-1.188h-1.189zm-6.805 0v-1.189h-1.219l.03 1.218 1.189-.03zm.863 2.404l-.884.795.009.01.875-.804zm4.763-.445l.73-.938-.941-.733-.73.944.941.727zm1.05.817l.995.648.596-.915-.862-.67-.73.937zm-5.748-6.304l.867.813.005-.005-.872-.808zm-.873 2.117l-1.18-.145-.163 1.333h1.343v-1.188zm5.032 0v1.188h1.189v-1.188h-1.189zm0-.13h1.189v-.034l-.002-.034-1.187.068zm-.705-2.024l-.896.78.005.006.89-.786zm-41.583 7.657l-.59-1.032.59 1.032zm.416-1.188l1.067-.524-1.067.524zm-1.236-3.249l-1.13.366 1.13-.366zm-.338-.508l-.594 1.03.594-1.03zm-.608.003l.5 1.078-.5-1.078zm-.424.297l.76.914-.76-.914zm-.521.798l-.966.693.966-.693zm.392.504l1.024-.604-1.024.604zm1.418 2.992l1.12-.4-1.12.4zM11.64 27.54l.951.712-.95-.712zm.312-1.13l-1.064.53 1.064-.53zm-1.215-3.144l1.127-.38-1.127.38zm-.687-.655l-.278-1.155.278 1.155zm-.258.1l.53 1.063-.53-1.064zm-.423.3l-.76-.915.76.914zm-.51.81l.947-.716-.948.716zm.376.474l-1.018.613 1.018-.613zm1.468 3.137l-1.122.393 1.122-.393zm.74.29l.59 1.031-.59-1.031zm.018-.01l.59 1.03-.59-1.03zm-2.688-5.337l1.14-.332-1.14.332zm.71.279l.57 1.043-.57-1.043zm.349-.893l1.06-.538-1.06.538zM8.579 18.54l-1.126.38 1.126-.38zm-.688-.654l.277 1.156-.277-1.156zm-.257.1l-.53-1.064.53 1.063zm-.427.293l-.711-.952.711.952zm-.447.868l.893-.784-.893.784zm.275.353l1.014-.619-1.014.62zm1.523 3.244l-1.123.39 1.123-.39zm.651.204l.928.742-.928-.742zm.026-.035l-.969-.688.97.688zm.423 4.682l-.394 1.121.394-1.12zm.002 0l-.396 1.121.923-2.186-.527 1.066zm-.735.193L8.922 26.6l.003 1.188zm-.002.117l-.128-1.182.128 1.182zm.242-.026l.129 1.18-.148-2.369.02 1.189zm-1.15 2.49l-.889-.787 1.717 1.641-.828-.853zm1.978-1.588l.59 1.031-.59-1.032zm-.12.612l.94.728-.94-.728zm-1.277 1.91l1.047.562-1.047-.562zm1.03-1.347l-1.053-.55 1.053.55zm.026.123l-1.074-.51 1.074.51zm.05-.087l-1.134-.36 1.133.36zm.265-.71l-1.016-.617 1.016.616zm.07-.068l-.59-1.032.59 1.032zm.534-.535l.59 1.032-.59-1.032zm.027-.015l-.59-1.032.59 1.032zm.49.043l.458-1.096-.459 1.096zm.203.151l-1.018.614 1.018-.614zm1.571 3.3l-1.122.391 1.122-.39zm.739.29l.59 1.033-.59-1.032zm.018-.01l.59 1.032-.59-1.032zm.18-.171l.95.712-.95-.712zm.31-1.13l-1.063.53 1.064-.53zm-1.213-3.144l1.126-.38-1.126.38zm-.688-.655l-.277-1.155.277 1.155zm-.419.187l.585 1.034-.585-1.034zm-.117.093l-.856-.824.856.824zm-.368.295l-.63-1.007.63 1.007zm-.9-.055l-1.081.494 1.08-.494zm-.526-.498l-.813.866.813-.866zm-.496-.354l-.498 1.079.498-1.08zm-2.61-.974l-.333 1.14.333-1.14zm-.418.25l.731-.936-.73.937zm-.082 1.393l.263 1.159-.263-1.16zm-.157.038l.298 1.15-.298-1.15zm.002.535l-.152 1.179.152-1.18zm3.898-.184l.326 1.143-.326-1.143zm.118-.038l-.23-1.166.23 1.166zm.037-.004v1.189-1.189zm.337.18l.436-1.106-.436 1.106zm.071.03l.477-1.09-.477 1.09zm-.052.394l-.03-1.188.03 1.188zm-.366.06l.59 1.03-.59-1.03zm-.235.134l.59 1.031-.59-1.031zm-.2.09l-.402-1.118.402 1.118zM7.64 30.23l-.776-.9.776.9zm-.034.358l-.151-1.179.151 1.179zm.759.837l-1.044-.567 1.044.567zm.252.163l-.815-.866.815.866zm1.522-2.34l1.115.412-1.115-.412zM7.657 28.08l.264 1.159-.264-1.159zm1.716-.282l.395-1.12-.395 1.12zm-.088-.014l-.017-1.188.017 1.188zm.097.186l-.205-1.17.205 1.17zm1.55-.865l1.141-.332-1.141.332zm-2.774-.293l-.488 1.083.488-1.083zm-.074.15l-.396 1.12.396-1.12zm1.345.856l-.396 1.12.396-1.12zM1.186 9.253v5.293h2.377V9.253H1.186zm1.188 4.104H.592v2.377h1.782v-2.377zm-.594 1.189V1.027H-.597v13.519H1.78zM.592 2.216h4.986V-.161H.592v2.377zm4.986 0c1.279 0 2.12.323 2.675.826l1.594-1.764C8.732.271 7.257-.16 5.577-.16v2.377zm2.678.829c.564.505.868 1.17.868 2.114h2.377c0-1.544-.538-2.879-1.658-3.883L8.256 3.045zm.868 2.114c0 1.045-.315 1.697-.824 2.137l1.555 1.798c1.138-.984 1.646-2.355 1.646-3.935H9.124zm-.823 2.137c-.526.454-1.381.77-2.742.77v2.376c1.697 0 3.188-.39 4.296-1.348L8.3 7.296zm-2.742.77H2.374v2.376H5.56V8.065zm-3.185.918h3.204V6.607H2.374v2.377zm3.204 0c1.123 0 2.176-.262 2.975-.964L6.985 6.234c-.217.19-.625.373-1.407.373v2.377zm2.98-.969c.822-.731 1.16-1.74 1.16-2.837H7.342c0 .599-.17.89-.364 1.062l1.58 1.775zm1.16-2.837c0-1.078-.351-2.051-1.13-2.793L6.95 4.108c.236.224.392.538.392 1.07h2.376zm-1.13-2.793C7.813 1.65 6.805 1.33 5.705 1.306l-.05 2.377c.67.014 1.054.196 1.295.425l1.638-1.723zM5.68 1.306H2.374v2.377H5.68V1.306zM1.186 2.494v5.302h2.377V2.494H1.186zm15.17 11.049c-1.074 0-1.86-.339-2.465-.97l-1.716 1.644c1.102 1.15 2.533 1.703 4.182 1.703v-2.377zm-2.462-.968c-.602-.632-.954-1.513-.954-2.774h-2.377c0 1.736.502 3.25 1.61 4.413l1.72-1.639zm-.954-2.774v-.315h-2.377V9.8h2.377zm0-.315c0-.845.16-1.551.448-2.147l-2.14-1.036c-.466.964-.685 2.034-.685 3.183h2.377zm.446-2.144c.296-.607.689-1.048 1.173-1.36l-1.288-1.998c-.878.566-1.55 1.35-2.02 2.316l2.135 1.042zm1.176-1.362a2.83 2.83 0 011.581-.477V3.126a5.2 5.2 0 00-2.875.86l1.294 1.994zm1.581-.477c1.018 0 1.675.32 2.136.867l1.819-1.53c-.988-1.174-2.361-1.714-3.955-1.714v2.377zm2.136.867c.48.57.807 1.49.807 2.93h2.377c0-1.766-.398-3.31-1.365-4.46l-1.819 1.53zm.807 2.93v.715h2.377V9.3h-2.377zm1.189-.474h-6.806v2.377h6.806V8.826zm-7.994 1.218c.03 1.214.391 2.306 1.168 3.17l1.768-1.589c-.326-.362-.54-.873-.56-1.64l-2.376.06zm1.176 3.18c.792.861 1.82 1.294 2.993 1.294V12.14c-.536 0-.92-.174-1.242-.525l-1.75 1.607zm2.993 1.294c.767 0 1.5-.158 2.143-.536l-1.205-2.048c-.199.117-.493.207-.938.207v2.377zm2.143-.536a5.059 5.059 0 001.443-1.281l-1.88-1.454c-.23.296-.485.52-.768.687l1.205 2.048zm-.227-1.07l1.049.816 1.46-1.875-1.05-.817-1.46 1.875zm.783-.77c-.6.923-1.467 1.4-2.792 1.4v2.378c2.042 0 3.7-.816 4.784-2.481l-1.992-1.296zm-3.006-7.605a3.472 3.472 0 00-2.617 1.142l1.743 1.616a1.1 1.1 0 01.874-.381V4.537zm-2.612 1.137c-.692.738-1.054 1.707-1.186 2.785l2.36.289c.09-.742.311-1.183.56-1.448L13.53 5.674zm-.006 4.118h5.032V7.415h-5.032v2.377zm6.22-1.188v-.13H17.37v.13h2.377zm-.001-.198c-.06-1.04-.349-2.003-1.002-2.743l-1.781 1.573c.188.214.37.6.41 1.305l2.373-.135zm-.997-2.737c-.675-.775-1.589-1.132-2.604-1.132v2.377c.421 0 .646.126.813.317l1.791-1.562zm4.666-3.602V4.5h2.377V2.067h-2.377zM24.6 5.688h1.876V3.311H24.6v2.377zm.687-1.188v1.328h2.377V4.5h-2.377zm1.189.14H24.6v2.376h1.876V4.639zm-3.064 1.188v6.23h2.377v-6.23h-2.377zm0 6.23c0 .539.108 1.159.52 1.662l1.839-1.505c.04.048.044.078.038.056a.853.853 0 01-.02-.214h-2.377zm.53 1.676c.494.585 1.204.719 1.763.719v-2.377a.78.78 0 01-.11-.007c-.022-.003-.025-.005-.015-.001a.3.3 0 01.071.036.507.507 0 01.108.097l-1.816 1.533zm1.763.719c.323 0 .691-.058 1.066-.138l-.498-2.324a3.147 3.147 0 01-.568.085v2.377zm-.371-1.3v1.393h2.377v-1.393h-2.377zm.874.246c-.36.099-.693.144-1.004.144v2.377c.543 0 1.088-.08 1.632-.228l-.628-2.293zm-1.004.144c-.518 0-.72-.146-.826-.272l-1.82 1.528c.673.802 1.628 1.12 2.646 1.12v-2.376zm-.826-.272c-.15-.178-.307-.526-.307-1.214h-2.377c0 1.021.233 1.991.864 2.742l1.82-1.528zm-.307-1.214v-6.23h-2.377v6.23h2.377zM22.884 4.64h-1.83v2.377h1.83V4.639zm-.64 1.189V4.5h-2.378v1.328h2.377zm-1.19-.14h1.83V3.311h-1.83v2.377zM24.073 4.5V2.067h-2.377V4.5h2.377zm-1.188-1.244H24.6V.879h-1.717v2.377zm10.188 4.122c-1.458-.42-2.368-.894-2.87-1.352L28.6 7.783c.896.817 2.214 1.42 3.814 1.88l.657-2.285zM30.21 6.034c-.453-.42-.66-.898-.66-1.506h-2.377c0 1.273.486 2.38 1.42 3.247l1.617-1.741zm-.66-1.506c0-.697.255-1.242.836-1.717L28.88.971c-1.115.911-1.708 2.124-1.708 3.557h2.377zm.836-1.718c.596-.487 1.418-.78 2.571-.78V-.347c-1.57 0-2.964.407-4.076 1.318l1.505 1.84zm2.571-.78c.773 0 1.414.149 1.951.415l1.056-2.13c-.911-.451-1.922-.662-3.007-.662V2.03zm1.955.417c.551.27.94.623 1.207 1.05l2.014-1.263C37.608 1.4 36.87.761 35.96.314l-1.049 2.133zm1.212 1.057c.28.44.417.91.417 1.432h2.377c0-.975-.266-1.887-.79-2.709l-2.004 1.277zm1.605.244h-1.791v2.377h1.791V3.748zm-.603 1.188c0-1.091-.36-2.079-1.177-2.808L34.366 3.9c.224.2.383.493.383 1.035h2.377zm-1.171-2.803c-.805-.728-1.86-1.013-2.998-1.013v2.377c.757 0 1.169.186 1.403.399l1.595-1.763zM32.957 1.12c-1.042 0-2.023.23-2.796.84l1.47 1.867c.217-.17.61-.33 1.326-.33V1.12zm-2.795.839c-.808.635-1.188 1.533-1.188 2.54h2.377c0-.365.11-.538.279-.67l-1.468-1.87zm-1.188 2.54c0 .942.42 1.733 1.128 2.319l1.514-1.832c-.22-.182-.265-.326-.265-.486h-2.377zm1.141 2.33c.664.532 1.65.93 2.808 1.257l.644-2.288c-1.083-.305-1.687-.6-1.964-.823l-1.488 1.854zm2.81 1.257c1.075.301 1.838.616 2.34.92l1.234-2.03c-.761-.464-1.756-.849-2.933-1.179l-.642 2.289zm2.351.927c.51.302.818.615.997.915l2.04-1.22c-.427-.715-1.06-1.286-1.826-1.74l-1.21 2.045zm1.002.924c.18.294.29.67.29 1.173h2.378c0-.87-.198-1.689-.638-2.41l-2.03 1.237zm.29 1.173c0 .734-.26 1.264-.82 1.698l1.456 1.878c1.15-.89 1.742-2.119 1.742-3.576h-2.377zm-.816 1.695c-.588.451-1.448.738-2.702.738v2.377c1.606 0 3.03-.37 4.15-1.23l-1.448-1.885zm-2.702.738a5.215 5.215 0 01-2.122-.43l-.955 2.178a7.59 7.59 0 003.077.629v-2.377zm-2.115-.426c-.642-.287-1.084-.65-1.382-1.07l-1.938 1.376c.582.819 1.384 1.433 2.351 1.864l.969-2.17zm-1.377-1.063a2.399 2.399 0 01-.435-1.426h-2.377c0 1.019.286 1.961.865 2.789l1.947-1.363zm-1.624-.238h1.792V9.439h-1.792v2.377zm.604-1.188c0 1.152.445 2.152 1.35 2.87l1.478-1.86c-.296-.235-.451-.528-.451-1.01h-2.377zm1.36 2.88c.873.676 1.963.954 3.152.954v-2.377c-.828 0-1.354-.192-1.695-.456L29.9 13.507zm3.152.954c1.08 0 2.097-.217 2.886-.82l-1.445-1.888c-.214.164-.639.331-1.44.331v2.377zm2.886-.82c.811-.621 1.218-1.502 1.218-2.513h-2.377c0 .313-.095.479-.286.625l1.445 1.888zm1.218-2.513c0-.976-.363-1.857-1.158-2.472l-1.454 1.88c.133.103.235.244.235.592h2.377zm-1.15-2.466c-.658-.518-1.694-.927-2.93-1.285l-.66 2.284c1.202.347 1.85.656 2.12.869l1.47-1.868zm4.92-6.596V4.5H43.3V2.067h-2.377zm1.188 3.621h1.875V3.311h-1.875v2.377zm.687-1.188v1.328h2.377V4.5h-2.377zm1.188.14h-1.875v2.376h1.875V4.639zm-3.064 1.188v6.23H43.3v-6.23h-2.377zm0 6.23c0 .539.108 1.159.52 1.662l1.84-1.505c.039.048.043.078.037.056a.858.858 0 01-.02-.214h-2.377zm.531 1.676c.494.585 1.204.719 1.763.719v-2.377a.78.78 0 01-.11-.007c-.022-.003-.026-.005-.015-.001a.502.502 0 01.179.133l-1.817 1.533zm1.763.719c.322 0 .69-.058 1.066-.138l-.498-2.324a3.147 3.147 0 01-.568.085v2.377zm-.372-1.3v1.393h2.377v-1.393h-2.377zm.875.246c-.36.099-.694.144-1.005.144v2.377c.543 0 1.088-.08 1.633-.228l-.628-2.293zm-1.005.144c-.517 0-.72-.146-.826-.272l-1.82 1.528c.674.802 1.629 1.12 2.646 1.12v-2.376zm-.826-.272c-.149-.178-.306-.526-.306-1.214h-2.377c0 1.021.232 1.991.863 2.742l1.82-1.528zm-.306-1.214v-6.23h-2.377v6.23h2.377zM40.394 4.64h-1.829v2.377h1.83V4.639zm-.64 1.189V4.5h-2.377v1.328h2.377zm-1.189-.14h1.83V3.311h-1.83v2.377zM41.583 4.5V2.067h-2.377V4.5h2.377zm-1.189-1.244h1.718V.879h-1.718v2.377zM46.55 9.43c0-.826.16-1.53.455-2.134l-2.136-1.043c-.472.968-.696 2.035-.696 3.177h2.377zm.452-2.127c.3-.606.694-1.038 1.178-1.339l-1.255-2.019c-.89.554-1.573 1.335-2.053 2.301l2.13 1.057zm1.174-1.336c.49-.302 1.06-.464 1.744-.464V3.126c-1.086 0-2.094.264-2.99.817l1.246 2.024zm1.744-.464c1.059 0 1.83.35 2.426 1.021l1.777-1.579c-1.087-1.222-2.526-1.82-4.203-1.82v2.378zm2.43 1.024c.609.681.968 1.635.968 2.986h2.377c0-1.792-.489-3.358-1.575-4.571l-1.77 1.585zm.968 2.986v.121h2.377v-.12h-2.377zm0 .121c0 .822-.158 1.52-.448 2.12l2.14 1.035c.465-.961.685-2.02.685-3.155h-2.377zm-.45 2.123a3.043 3.043 0 01-1.16 1.314l1.252 2.02a5.418 5.418 0 002.051-2.306l-2.142-1.028zm-1.164 1.317c-.485.303-1.06.469-1.766.469v2.377c1.103 0 2.124-.267 3.026-.83l-1.26-2.016zm-1.766.469c-1.05 0-1.824-.35-2.429-1.025l-1.77 1.585c1.09 1.219 2.527 1.817 4.2 1.817v-2.377zm-2.426-1.022c-.606-.682-.962-1.632-.962-2.97h-2.377c0 1.78.486 3.338 1.563 4.55l1.776-1.58zm-.962-2.97V9.43h-2.377v.12h2.377zm-.65.083c0 1.293.299 2.465 1.013 3.403l1.891-1.44c-.313-.41-.527-1.027-.527-1.963H45.9zm1.017 3.409c.75.972 1.794 1.475 3.021 1.475V12.14c-.505 0-.848-.172-1.138-.55l-1.883 1.452zm3.021 1.475c1.236 0 2.284-.508 3.029-1.494l-1.898-1.432c-.283.375-.62.549-1.13.549v2.377zm3.032-1.498c.721-.965 1.007-2.21 1.007-3.59H51.6c0 1.083-.227 1.757-.534 2.166l1.904 1.424zm1.007-3.59c0-1.29-.31-2.46-1.037-3.4l-1.88 1.453c.324.42.54 1.034.54 1.947h2.377zm-1.03-3.391c-.746-.986-1.79-1.502-3.027-1.502v2.377c.497 0 .838.17 1.132.56l1.895-1.435zM49.92 4.537c-1.219 0-2.25.51-2.993 1.475l1.882 1.45c.297-.383.634-.548 1.11-.548V4.537zm-2.993 1.475c-.74.96-1.027 2.223-1.027 3.622h2.377c0-1.114.233-1.783.532-2.171l-1.882-1.451zm14.785-1.143a6.33 6.33 0 00-1.04-.081v2.376c.247 0 .462.018.649.05l.39-2.345zm-1.04-.081c-.732 0-1.437.156-2.05.541-.62.39-1.059.957-1.34 1.627l2.192.919c.121-.29.267-.442.41-.533.152-.094.392-.178.787-.178V4.788zM57.19 7.415v7.13h2.376v-7.13H57.19zm1.188 5.942H56.66v2.377h1.718v-2.377zm-.53 1.189V4.5h-2.376v10.046h2.377zM56.66 5.688h1.672V3.311H56.66v2.377zm.484-1.16l.027 1.16 2.377-.056-.028-1.16-2.377.056zm2.222 1.764c.352-.562.776-.79 1.389-.79V3.127c-1.455 0-2.628.67-3.402 1.903l2.013 1.263zm1.389-.79c.119 0 .196.008.24.016.048.008.036.012-.01-.01l1.063-2.127c-.418-.209-.89-.255-1.293-.255v2.377zm-.427-1.058v1.597h2.377V4.444h-2.377zm7.364 7.938l2.34-7.53-2.27-.705-2.34 7.53 2.27.705zm1.205-6.694h1.839V3.311h-1.839v2.377zm.716-1.579l-4.038 11.596 2.244.782 4.039-11.596-2.245-.782zm-4.03 11.57c-.266.713-.573 1.142-.865 1.388-.272.228-.586.348-1.001.348v2.376c.945 0 1.809-.298 2.53-.905.702-.59 1.204-1.415 1.563-2.373l-2.226-.833zm-1.765 1.74l-.325-.028-.203 2.368.325.028.203-2.368zm-.206-.012l-.641-.12-.44 2.335.64.12.44-2.335zm.327 1.047v-1.392h-2.376v1.392h2.376zm-1.283-.208l.464.037.19-2.369-.464-.037-.19 2.37zm.56.041c.722 0 1.456-.143 2.056-.581l-1.402-1.92c-.044.033-.214.124-.655.124v2.377zm2.047-.575c.623-.447.998-1.153 1.242-1.877l-2.253-.759c-.177.526-.34.68-.374.704l1.385 1.932zm1.229-1.841l.38-1.022-2.226-.83-.381 1.021 2.227.83zm.385-1.84l-3.584-9.934-2.236.806 3.584 9.935 2.236-.807zm-4.702-8.343h1.876V3.311h-1.876v2.377zm.748-.813l2.507 7.53 2.255-.75-2.507-7.53-2.255.75zM11.455 32.43c0-.826.16-1.53.455-2.134l-2.136-1.043c-.473.968-.696 2.035-.696 3.177h2.377zm.451-2.127c.3-.606.695-1.038 1.179-1.339l-1.255-2.018c-.89.553-1.573 1.334-2.053 2.3l2.13 1.057zm1.175-1.336c.49-.302 1.059-.464 1.744-.464v-2.377c-1.086 0-2.094.264-2.991.817l1.247 2.024zm1.744-.464c1.059 0 1.83.35 2.426 1.021l1.777-1.579c-1.087-1.223-2.526-1.82-4.203-1.82v2.378zm2.429 1.024c.61.681.969 1.635.969 2.986H20.6c0-1.792-.489-3.358-1.575-4.571l-1.771 1.585zm.969 2.986v.121H20.6v-.12h-2.377zm0 .121c0 .822-.158 1.52-.448 2.12l2.14 1.035c.465-.961.685-2.02.685-3.155h-2.377zm-.45 2.123a3.043 3.043 0 01-1.16 1.314l1.252 2.02a5.417 5.417 0 002.051-2.306l-2.142-1.028zm-1.164 1.317c-.485.303-1.06.469-1.766.469v2.377c1.102 0 2.124-.267 3.026-.83l-1.26-2.016zm-1.766.469c-1.05 0-1.824-.35-2.429-1.025l-1.77 1.585c1.09 1.219 2.527 1.817 4.2 1.817v-2.377zm-2.426-1.022c-.606-.682-.962-1.632-.962-2.97H9.078c0 1.78.485 3.337 1.563 4.55l1.776-1.58zm-.962-2.97v-.121H9.078v.12h2.377zm-.65.083c0 1.293.299 2.465 1.013 3.403l1.891-1.44c-.313-.41-.527-1.027-.527-1.963h-2.377zm1.017 3.409c.75.972 1.794 1.475 3.021 1.475V35.14c-.505 0-.848-.172-1.138-.55l-1.883 1.452zm3.021 1.475c1.236 0 2.284-.508 3.029-1.494l-1.898-1.432c-.283.376-.62.549-1.13.549v2.377zm3.032-1.498c.721-.965 1.007-2.21 1.007-3.59h-2.377c0 1.083-.228 1.757-.534 2.166l1.904 1.424zm1.007-3.59c0-1.29-.31-2.46-1.037-3.4l-1.88 1.453c.324.42.54 1.034.54 1.947h2.377zm-1.03-3.391c-.746-.986-1.79-1.502-3.027-1.502v2.377c.497 0 .838.17 1.132.56l1.895-1.435zm-3.027-1.502c-1.219 0-2.25.51-2.993 1.475l1.882 1.45c.296-.383.633-.548 1.11-.548v-2.377zm-2.993 1.475c-.74.96-1.027 2.223-1.027 3.622h2.377c0-1.114.233-1.783.532-2.171l-1.882-1.451zm10.17-1.46l.056 1.263 2.375-.105-.056-1.262-2.374.104zm2.174 1.95c.541-.68 1.2-1 2.078-1v-2.376c-1.599 0-2.945.647-3.939 1.897l1.861 1.479zm2.078-1c.838 0 1.266.23 1.51.503.267.298.506.865.514 1.912l2.377-.019c-.01-1.349-.316-2.579-1.12-3.478-.827-.925-1.996-1.294-3.281-1.294v2.377zm2.024 2.405v6.639h2.377v-6.639h-2.377zm1.188 5.45H27.75v2.377h1.717v-2.377zm-.529 1.189v-6.648H26.56v6.648h2.377zm0-6.658c-.007-.873-.207-1.759-.827-2.413l-1.726 1.634c.037.039.171.224.176.8l2.377-.021zm-.819-2.405c-.632-.68-1.518-.9-2.384-.9v2.377c.508 0 .631.128.642.14l1.742-1.617zm-2.384-.9a3.66 3.66 0 00-2.152.664l1.37 1.941c.204-.144.45-.228.782-.228v-2.377zm-2.152.664a4.214 4.214 0 00-1.367 1.62l2.136 1.04c.152-.31.351-.542.601-.719l-1.37-1.941zm-1.488 2.14v7.159h2.377v-7.159h-2.377zm1.189 5.97h-1.718v2.377h1.718v-2.377zm-.53 1.189V27.5h-2.376v10.046h2.377zm-1.188-8.858h1.625v-2.377h-1.625v2.377zm12.358 7.67h-1.718v2.376h1.718v-2.377zm-.53 1.188V23.285h-2.376v14.26h2.377zm-1.188-13.073h1.718v-2.377h-1.718v2.377zm.53-1.188v14.26h2.376v-14.26h-2.377zm5.812 13.072h-1.718v2.377h1.718v-2.377zm-.53 1.189V27.5H35.64v10.046h2.377zm-1.188-8.858h1.718v-2.377h-1.718v2.377zm.53-1.188v10.046h2.376V27.5h-2.377zm.519-2.665c0-.02.003-.011-.006.013a.207.207 0 01-.035.062l-1.793-1.56a2.218 2.218 0 00-.543 1.485h2.377zm-.056.091a.401.401 0 01-.141.1c-.035.012-.035.004.02.004v-2.377c-.565 0-1.182.17-1.643.68l1.764 1.593zm-.12.104c.055 0 .055.008.02-.005a.405.405 0 01-.141-.1l1.764-1.592c-.46-.51-1.077-.68-1.643-.68v2.377zm-.121-.104a.194.194 0 01-.038-.065c-.01-.028-.008-.04-.008-.026h2.376c0-.548-.18-1.074-.566-1.502l-1.764 1.593zm-.047-.09c0 .014-.002-.001.01-.033a.252.252 0 01.05-.082l1.738 1.621c.399-.427.58-.959.58-1.507h-2.377zm.06-.115a.406.406 0 01.14-.097c.031-.01.027-.002-.032-.002v2.377c.554 0 1.167-.16 1.63-.657l-1.738-1.621zm.108-.1c-.06 0-.064-.008-.033.003a.406.406 0 01.14.096l-1.737 1.622c.463.497 1.075.657 1.63.657v-2.377zm.122.116c.018.02.035.048.046.079.01.028.008.039.008.02h-2.377c0 .535.17 1.061.556 1.49l1.767-1.59zm3.918 2.815l.055 1.263 2.375-.105-.056-1.262-2.374.104zm2.173 1.95c.54-.68 1.2-1 2.078-1v-2.376c-1.6 0-2.945.647-3.939 1.897l1.86 1.479zm2.078-1c.838 0 1.266.23 1.509.503.267.298.506.865.515 1.912l2.376-.019c-.01-1.349-.316-2.579-1.12-3.478-.827-.925-1.995-1.294-3.28-1.294v2.377zm2.024 2.405v6.639h2.376v-6.639h-2.376zm1.188 5.45h-1.718v2.377h1.718v-2.377zm-.53 1.189v-6.648H46.3v6.648h2.377zm0-6.658c-.007-.873-.207-1.759-.826-2.413l-1.726 1.634c.037.039.171.224.176.8l2.377-.021zm-.818-2.405c-.633-.68-1.518-.9-2.384-.9v2.377c.508 0 .63.128.642.14l1.742-1.617zm-2.384-.9c-.782 0-1.515.213-2.153.664l1.371 1.941c.204-.144.449-.228.782-.228v-2.377zm-2.153.664a4.215 4.215 0 00-1.367 1.62l2.137 1.04c.151-.31.35-.542.601-.719l-1.37-1.941zm-1.487 2.14v7.159h2.377v-7.159h-2.377zm1.189 5.97h-1.718v2.377h1.718v-2.377zm-.53 1.189V27.5h-2.376v10.046h2.376zm-1.188-8.858h1.625v-2.377h-1.625v2.377zm14.66 7.855c-1.075 0-1.86-.339-2.466-.97l-1.716 1.644c1.103 1.15 2.533 1.703 4.182 1.703v-2.377zm-2.463-.968c-.601-.632-.954-1.513-.954-2.774h-2.376c0 1.736.502 3.25 1.608 4.413l1.722-1.639zm-.954-2.774v-.315h-2.376v.315h2.376zm0-.315c0-.844.16-1.551.448-2.147l-2.14-1.036c-.466.964-.684 2.034-.684 3.183h2.376zm.446-2.144c.297-.607.69-1.048 1.174-1.36l-1.29-1.998c-.877.566-1.549 1.35-2.02 2.316l2.136 1.042zm1.176-1.362a2.83 2.83 0 011.582-.477v-2.377a5.196 5.196 0 00-2.875.86l1.293 1.994zm1.582-.477c1.018 0 1.675.32 2.136.867l1.818-1.53c-.988-1.174-2.36-1.714-3.954-1.714v2.377zm2.136.867c.48.57.807 1.49.807 2.93h2.377c0-1.766-.398-3.31-1.366-4.46l-1.818 1.53zm.807 2.93v.715h2.377V32.3h-2.377zm1.188-.474h-6.805v2.377h6.805v-2.377zm-7.993 1.218c.03 1.214.39 2.306 1.167 3.17l1.768-1.589c-.325-.362-.54-.873-.56-1.64l-2.375.06zm1.176 3.18c.791.861 1.819 1.294 2.992 1.294V35.14c-.535 0-.919-.174-1.242-.525l-1.75 1.607zm2.992 1.294c.767 0 1.5-.157 2.144-.536l-1.205-2.048c-.2.117-.494.207-.94.207v2.377zm2.144-.536a5.06 5.06 0 001.442-1.282l-1.88-1.453c-.229.296-.484.52-.767.687l1.205 2.048zm-.228-1.07l1.049.816 1.46-1.875-1.049-.817-1.46 1.875zm.783-.77c-.6.922-1.467 1.4-2.792 1.4v2.378c2.042 0 3.7-.816 4.784-2.481l-1.992-1.296zm-3.005-7.605a3.471 3.471 0 00-2.617 1.142l1.743 1.616a1.1 1.1 0 01.873-.381v-2.377zm-2.613 1.137c-.692.738-1.053 1.707-1.185 2.785l2.359.289c.09-.742.311-1.183.56-1.448l-1.734-1.626zm-.006 4.118h5.032v-2.377h-5.032v2.377zm6.22-1.188v-.13h-2.376v.13h2.377zm-.001-.198c-.059-1.04-.348-2.003-1.001-2.743l-1.782 1.573c.189.214.37.6.41 1.305l2.373-.135zm-.996-2.737c-.676-.775-1.59-1.132-2.604-1.132v2.377c.42 0 .646.126.812.316l1.792-1.561zm-45.633 5.303v.002l.002.003v.002l.002.002v.003l.002.002v.002l.002.002.001.003.001.002.001.002.001.002.001.002.001.003a.04.04 0 01.002.004l.001.002.001.002.001.002.001.003v.002l.002.002v.002l.002.002v.002l.002.002v.002a392629615.834 392629615.834 0 01.004.007v.002l.001.002.001.002.001.002.001.002.001.002v.002c.001 0 .002 0 .002.002v.002l.002.002v.001l.001.002.001.002.001.002.001.002v.002l.002.002v.002l.002.002v.002a.034.034 0 00.002.003v.002l.002.002v.002l.001.002.001.001.001.002v.002l.002.002v.002l.001.001.001.002v.002l.002.001v.002l.001.002.001.002v.001l.002.002v.002l.001.001v.002l.002.002v.001l.001.002v.002l.002.001v.002l.001.001v.002l.001.002.001.001v.002l.002.001v.002l.001.001v.002l.001.001.001.002v.001l.001.002.001.001v.002l.001.001.001.002v.001l.001.002h.001v.002l.001.002.001.001v.002h.001v.002l.002.002v.002l.001.002v.001l.002.001v.002l.001.002a.016.016 0 01.001.003l.001.001v.001l.001.002.001.002v.001l.001.001v.002h.002v.003l.001.001v.001l.001.002.001.002.001.002v.001l.001.001v.001l.001.001v.001l.001.002.001.002.001.002v.002h.001v.002h.001v.002h.001v.001l.001.001v.002l.001.001v.001h.001v.002l.001.002.001.001v.001l.001.002v.001l.001.001.001.002v.001h.001v.002l.001.001v.002h.001v.002h.001v.002h.001a94409542.27 94409542.27 0 01.001.003v.001h.001v.002l.001.001v.002h.001v.002h.001v.002l.001.001v.001l.001.001v.002h.001v.002h.001v.002l1.082-.493 1.08-.494v-.004h-.001v-.002h-.001v-.002h-.001v-.002h-.001v-.002l-.001-.001v-.001l-.001-.001v-.001l-.001-.001v-.002h-.001v-.003h-.001v-.002h-.001v-.001l-.001-.001v-.002h-.001v-.002l-.001-.001-.001-.002v-.001l-.001-.001v-.002h-.001v-.002L15 33.24v-.003l-.001-.001v-.001l-.001-.001v-.001l-.001-.001v-.002h-.001v-.002h-.001v-.002h-.001v-.002h-.001v-.002l-.001-.002-.001-.002-.001-.002v-.001l-.001-.001v-.001l-.001-.001v-.002h-.001v-.002a.01.01 0 01-.002-.002v-.002l-.002-.002V33.2l-.001-.001v-.001l-.001-.002-.001-.002v-.001l-.002-.002v-.002l-.001-.001v-.002l-.002-.001v-.003l-.001-.001v-.001l-.002-.002v-.002l-.001-.002-.001-.001v-.002l-.001-.001v-.001l-.002-.002v-.003l-.002-.001v-.003l-.002-.002v-.003l-.002-.001v-.002l-.001-.001v-.002l-.001-.001-.001-.002v-.001l-.002-.002v-.001l-.001-.002v-.002l-.002-.001v-.003l-.002-.002v-.002l-.001-.001v-.002l-.002-.002v-.001l-.001-.002-.001-.002v-.002l-.002-.001v-.002l-.001-.002v-.001l-.002-.002v-.002l-.001-.002-.001-.001-.001-.002v-.002l-.002-.002v-.002l-.001-.001-.001-.002-.001-.002v-.002l-.002-.002v-.002l-.001-.002-.001-.001-.001-.002v-.002l-.002-.002v-.002l-.002-.002v-.002l-.001-.002-.001-.002-.001-.002-.001-.002-.001-.002v-.002l-.002-.002v-.002l-.002-.002v-.002l-.001-.002-.001-.002-.001-.002-.001-.002-.001-.002-.001-.002-.001-.002-.001-.002-.001-.003-.001-.002-.001-.002-.001-.002-.001-.002a.04.04 0 00-.002-.004v-.002l-.002-.003v-.002l-.002-.002v-.002l-.002-.002-.001-.003-.001-.002-.001-.002-.001-.002-.001-.003-.001-.002-.001-.002-.001-.003-.001-.002-.001-.002-2.162.987v.002l.002.003v.002l.002.002v.003l.002.002v.002l.002.002.001.003.001.002.001.002.001.002.001.002.001.003a.04.04 0 01.002.004l.001.002.001.002.001.002.001.003v.002l.002.002v.002l.002.002v.002l.002.002v.002a392629615.834 392629615.834 0 01.004.007v.002l.001.002.001.002.001.002.001.002.001.002v.002c.001 0 .002 0 .002.002v.002l.002.002v.001l.001.002.001.002.001.002.001.002v.002l.002.002v.002l.002.002v.002a.034.034 0 00.002.003v.002l.002.002v.002l.001.002.001.001.001.002v.002l.002.002v.002l.001.001.001.002v.002l.002.001v.002l.001.002.001.002v.001l.002.002v.002l.001.001v.002l.002.002v.001l.001.002v.002l.002.001v.002l.001.001v.002l.001.002.001.001v.002l.002.001v.002l.001.001v.002l.001.001.001.002v.001l.001.002.001.001v.002l.001.001.001.002v.001l.001.002h.001v.002l.001.002.001.001v.002h.001v.002l.002.002v.002l.001.002v.001l.002.001v.002l.001.002a.016.016 0 01.001.003l.001.001v.001l.001.002.001.002v.001l.001.001v.002h.002v.003l.001.001v.001l.001.002.001.002.001.002v.001l.001.001v.001l.001.001v.001l.001.002.001.002.001.002v.002h.001v.002h.001v.002h.001v.001l.001.001v.002l.001.001v.001h.001v.002l.001.002.001.001v.001l.001.002v.001l.001.001.001.002v.001h.001v.002l.001.001v.002h.001v.002h.001v.002h.001a94409542.27 94409542.27 0 01.001.003v.001h.001v.002l.001.001v.002h.001v.002h.001v.002l.001.001v.001l.001.001v.002h.001v.002h.001v.002l1.082-.493 1.08-.494v-.004h-.001v-.002h-.001v-.002h-.001v-.002h-.001v-.002l-.001-.001v-.001l-.001-.001v-.001l-.001-.001v-.002h-.001v-.003h-.001v-.002h-.001v-.001l-.001-.001v-.002h-.001v-.002l-.001-.001-.001-.002v-.001l-.001-.001v-.002h-.001v-.002L15 33.24v-.003l-.001-.001v-.001l-.001-.001v-.001l-.001-.001v-.002h-.001v-.002h-.001v-.002h-.001v-.002h-.001v-.002l-.001-.002-.001-.002-.001-.002v-.001l-.001-.001v-.001l-.001-.001v-.002h-.001v-.002a.01.01 0 01-.002-.002v-.002l-.002-.002V33.2l-.001-.001v-.001l-.001-.002-.001-.002v-.001l-.002-.002v-.002l-.001-.001v-.002l-.002-.001v-.003l-.001-.001v-.001l-.002-.002v-.002l-.001-.002-.001-.001v-.002l-.001-.001v-.001l-.002-.002v-.003l-.002-.001v-.003l-.002-.002v-.003l-.002-.001v-.002l-.001-.001v-.002l-.001-.001-.001-.002v-.001l-.002-.002v-.001l-.001-.002v-.002l-.002-.001v-.003l-.002-.002v-.002l-.001-.001v-.002l-.002-.002v-.001l-.001-.002-.001-.002v-.002l-.002-.001v-.002l-.001-.002v-.001l-.002-.002v-.002l-.001-.002-.001-.001-.001-.002v-.002l-.002-.002v-.002l-.001-.001-.001-.002-.001-.002v-.002l-.002-.002v-.002l-.001-.002-.001-.001-.001-.002v-.002l-.002-.002v-.002l-.002-.002v-.002l-.001-.002-.001-.002-.001-.002-.001-.002-.001-.002v-.002l-.002-.002v-.002l-.002-.002v-.002l-.001-.002-.001-.002-.001-.002-.001-.002-.001-.002-.001-.002-.001-.002-.001-.002-.001-.003-.001-.002-.001-.002-.001-.002-.001-.002a.04.04 0 00-.002-.004v-.002l-.002-.003v-.002l-.002-.002v-.002l-.002-.002-.001-.003-.001-.002-.001-.002-.001-.002-.001-.003-.001-.002-.001-.002-.001-.003-.001-.002-.001-.002-2.162.987zm3.744 4.167c.3-.172.495-.421.606-.588a2.763 2.763 0 00.44-1.24c.019-.21.02-.562-.153-.916l-2.134 1.047a.792.792 0 01-.077-.254.428.428 0 01-.003-.086c0-.01-.001.012-.017.057a.532.532 0 01-.032.07l-.003.006-.001.001.001-.002a.718.718 0 01.192-.159l1.18 2.064zm.893-2.744c-.463-.944-.812-1.975-1.173-3.09l-2.26.731c.358 1.11.752 2.291 1.3 3.406l2.133-1.047zm-1.173-3.09c-.076-.236-.283-.83-.874-1.172l-1.188 2.058a.593.593 0 01-.21-.194c-.014-.023-.008-.02.011.04l2.261-.732zm-.874-1.172c-.692-.4-1.335-.216-1.703-.046l1 2.156c.026-.012-.032.02-.142.026a.655.655 0 01-.343-.078l1.188-2.058zm-1.703-.046c-.322.15-.58.376-.683.461l1.52 1.829c.075-.063.113-.095.149-.121.031-.024.034-.022.015-.013l-1-2.156zm-.683.461c-.084.07-.148.117-.257.203a2.828 2.828 0 00-.363.327 1.508 1.508 0 00-.392.852c-.046.441.122.795.285 1.023l1.932-1.385c.053.074.18.293.147.61a.877.877 0 01-.205.49c-.024.027-.027.023.06-.045.061-.048.192-.147.312-.246l-1.519-1.829zm-.727 2.405c.1.138.217.271.262.324a.836.836 0 01.072.09l2.048-1.207a3.016 3.016 0 00-.308-.421c-.093-.11-.117-.136-.142-.17l-1.932 1.384zm.334.415c.564.956.992 1.86 1.323 2.788l2.239-.8a18.426 18.426 0 00-1.514-3.196l-2.048 1.208zm1.323 2.788c.366 1.024 1.57 1.577 2.61.983l-1.18-2.064a.583.583 0 01.497-.03.538.538 0 01.312.311l-2.239.8zm-3.293-7.91l.001.002.002.003v.002l.002.002v.003l.002.002v.002l.002.002v.003l.002.002v.002l.002.002v.002l.002.003v.002l.002.002v.002l.002.002v.002l.002.003v.002l.002.002v.002l.002.002v.002l.001.002.001.002.001.002.001.002.001.002.001.002.001.002.001.002v.003c.001 0 .002 0 .002.002v.001l.002.002v.002l.001.002.001.002.001.002.001.002.001.002v.002l.002.002v.002l.002.002v.002l.001.002.001.001v.002l.002.002v.002l.001.002.001.002.001.001v.002l.002.002v.002l.001.002.001.001.001.002v.002l.002.002v.001l.001.002v.002l.002.002v.001l.001.002.001.002v.001l.002.002v.002l.001.001v.002l.002.001v.002l.001.002v.001l.001.002.001.001v.002l.002.002v.001l.001.002v.001l.001.002.001.001v.002l.001.001.001.002v.001l.002.002v.003h.001l.001.002v.002l.001.001.001.002v.001l.001.001v.002l.002.001v.002l.001.002.001.002.001.002v.002h.001l.001.002v.001l.001.002.001.002v.001l.002.002v.002l.001.001v.001l.001.002.001.002v.001l.001.001v.001l.001.002.001.002.001.002v.001l.001.001v.001l.001.001v.001l.001.001v.001l.001.002.001.002.001.002.001.001v.002l.001.001v.001l.001.001v.001l.001.001v.002h.001v.002h.001v.002h.001v.002l.001.001v.001l.001.001v.002h.001v.001l.001.002v.001h.001v.002h.001v.002l.001.001v.001l.001.001v.002h.001v.002h.001v.002l.001.001v.001l.001.001v.001l.001.001v.001l.001.001v.002h.001v.002h.001v.002h.001v.002l1.082-.494 1.08-.493v-.003h-.001v-.002l-.001-.001v-.001l-.001-.001v-.002h-.001v-.002h-.001v-.002h-.001v-.002l-.001-.001v-.001l-.001-.001v-.002h-.001v-.001l-.001-.002v-.002h-.001v-.002h-.001v-.001l-.001-.002v-.001h-.001v-.002h-.001v-.002h-.001v-.002l-.001-.001v-.001h-.001v-.002l-.001-.002-.001-.001v-.002l-.001-.001v-.001l-.001-.001-.001-.002V28.5h-.001v-.002h-.001v-.002h-.001v-.002l-.001-.001v-.001l-.001-.001v-.001l-.001-.001v-.001l-.001-.001v-.002h-.001v-.002h-.001v-.002l-.001-.001v-.001l-.001-.002-.001-.002v-.001l-.001-.001-.001-.002-.001-.002v-.001l-.001-.002-.001-.002-.001-.001v-.002h-.001v-.002l-.001-.002-.002-.002v-.002l-.001-.002-.001-.002-.001-.002a.02.02 0 00-.002-.003v-.003l-.002-.001v-.003l-.002-.002v-.003l-.001-.001-.001-.002v-.001l-.002-.002v-.001l-.001-.002v-.001l-.001-.002-.001-.001v-.002l-.002-.002v-.001l-.001-.002v-.001l-.002-.002v-.002l-.001-.001v-.002l-.002-.002v-.001l-.001-.002v-.002l-.001-.001-.001-.002-.001-.002v-.001l-.002-.002v-.002l-.001-.002-.001-.001v-.002l-.002-.002v-.002l-.001-.001-.001-.002v-.002l-.002-.002v-.002l-.001-.001-.001-.002-.001-.002v-.002l-.002-.002v-.002l-.002-.002v-.002l-.001-.001-.001-.002-.001-.002v-.002l-.002-.002v-.002l-.002-.002v-.002l-.001-.002-.001-.002a.039.039 0 01-.002-.004l-.001-.002v-.002l-.002-.002v-.002l-.002-.002v-.002l-.002-.002v-.002l-.002-.002v-.002l-.001-.003-.001-.002-.001-.002-.001-.002-.001-.002-.001-.002-.001-.002-.001-.003-.001-.002-.001-.002-.001-.002-.001-.002-.001-.002-.001-.003-.001-.002-.001-.002-.001-.002-.001-.003-.001-.002-.001-.002-.001-.002-.002-.003v-.002l-.002-.002-2.162.987.001.002.002.003v.002l.002.002v.003l.002.002v.002l.002.002v.003l.002.002v.002l.002.002v.002l.002.003v.002l.002.002v.002l.002.002v.002l.002.003v.002l.002.002v.002l.002.002v.002l.001.002.001.002.001.002.001.002.001.002.001.002.001.002.001.002v.003c.001 0 .002 0 .002.002v.001l.002.002v.002l.001.002.001.002.001.002.001.002.001.002v.002l.002.002v.002l.002.002v.002l.001.002.001.001v.002l.002.002v.002l.001.002.001.002.001.001v.002l.002.002v.002l.001.002.001.001.001.002v.002l.002.002v.001l.001.002v.002l.002.002v.001l.001.002.001.002v.001l.002.002v.002l.001.001v.002l.002.001v.002l.001.002v.001l.001.002.001.001v.002l.002.002v.001l.001.002v.001l.001.002.001.001v.002l.001.001.001.002v.001l.002.002v.003h.001l.001.002v.002l.001.001.001.002v.001l.001.001v.002l.002.001v.002l.001.002.001.002.001.002v.002h.001l.001.002v.001l.001.002.001.002v.001l.002.002v.002l.001.001v.001l.001.002.001.002v.001l.001.001v.001l.001.002.001.002.001.002v.001l.001.001v.001l.001.001v.001l.001.001v.001l.001.002.001.002.001.002.001.001v.002l.001.001v.001l.001.001v.001l.001.001v.002h.001v.002h.001v.002h.001v.002l.001.001v.001l.001.001v.002h.001v.001l.001.002v.001h.001v.002h.001v.002l.001.001v.001l.001.001v.002h.001v.002h.001v.002l.001.001v.001l.001.001v.001l.001.001v.001l.001.001v.002h.001v.002h.001v.002h.001v.002l1.082-.494 1.08-.493v-.003h-.001v-.002l-.001-.001v-.001l-.001-.001v-.002h-.001v-.002h-.001v-.002h-.001v-.002l-.001-.001v-.001l-.001-.001v-.002h-.001v-.001l-.001-.002v-.002h-.001v-.002h-.001v-.001l-.001-.002v-.001h-.001v-.002h-.001v-.002h-.001v-.002l-.001-.001v-.001h-.001v-.002l-.001-.002-.001-.001v-.002l-.001-.001v-.001l-.001-.001-.001-.002V28.5h-.001v-.002h-.001v-.002h-.001v-.002l-.001-.001v-.001l-.001-.001v-.001l-.001-.001v-.001l-.001-.001v-.002h-.001v-.002h-.001v-.002l-.001-.001v-.001l-.001-.002-.001-.002v-.001l-.001-.001-.001-.002-.001-.002v-.001l-.001-.002-.001-.002-.001-.001v-.002h-.001v-.002l-.001-.002-.002-.002v-.002l-.001-.002-.001-.002-.001-.002a.02.02 0 00-.002-.003v-.003l-.002-.001v-.003l-.002-.002v-.003l-.001-.001-.001-.002v-.001l-.002-.002v-.001l-.001-.002v-.001l-.001-.002-.001-.001v-.002l-.002-.002v-.001l-.001-.002v-.001l-.002-.002v-.002l-.001-.001v-.002l-.002-.002v-.001l-.001-.002v-.002l-.001-.001-.001-.002-.001-.002v-.001l-.002-.002v-.002l-.001-.002-.001-.001v-.002l-.002-.002v-.002l-.001-.001-.001-.002v-.002l-.002-.002v-.002l-.001-.001-.001-.002-.001-.002v-.002l-.002-.002v-.002l-.002-.002v-.002l-.001-.001-.001-.002-.001-.002v-.002l-.002-.002v-.002l-.002-.002v-.002l-.001-.002-.001-.002a.039.039 0 01-.002-.004l-.001-.002v-.002l-.002-.002v-.002l-.002-.002v-.002l-.002-.002v-.002l-.002-.002v-.002l-.001-.003-.001-.002-.001-.002-.001-.002-.001-.002-.001-.002-.001-.002-.001-.003-.001-.002-.001-.002-.001-.002-.001-.002-.001-.002-.001-.003-.001-.002-.001-.002-.001-.002-.001-.003-.001-.002-.001-.002-.001-.002-.002-.003v-.002l-.002-.002-2.162.987zm1.51-2.473c-.156-.537-.453-1.148-.722-1.678-.292-.576-.567-1.087-.784-1.563l-2.162.988c.244.534.571 1.146.826 1.65.28.55.475.973.56 1.266l2.282-.663zM8.405 24.52l1.577 3.454 2.162-.988-1.577-3.454-2.162.988zm4.186 3.732c.164-.219.356-.527.477-.88.112-.324.24-.905-.053-1.49l-2.127 1.058a.63.63 0 01-.07-.296c.002-.052.011-.07.004-.047a.655.655 0 01-.048.1 1.21 1.21 0 01-.085.13l1.902 1.425zm.425-2.37c-.412-.827-.757-1.819-1.152-2.995l-2.253.757c.388 1.153.78 2.3 1.277 3.296l2.127-1.059zm-1.152-2.995a2.653 2.653 0 00-.489-.894c-.291-.334-.854-.717-1.603-.537l.555 2.311a.812.812 0 01-.497-.041.666.666 0 01-.245-.17c-.027-.03-.029-.041-.016-.016a.815.815 0 01.042.104l2.253-.757zm-2.092-1.431a2.4 2.4 0 00-.51.191l1.06 2.127a.601.601 0 01.024-.011l.01-.004-.03.008-.554-2.311zm-.51.191c-.296.148-.534.35-.652.449l1.519 1.828c.07-.058.111-.092.15-.12.035-.026.047-.032.044-.03l-1.061-2.127zm-.652.449c-.087.072-.15.118-.262.206a2.757 2.757 0 00-.37.338 1.495 1.495 0 00-.385.89 1.5 1.5 0 00.317 1.008l1.896-1.433c.043.057.18.266.158.584a.888.888 0 01-.204.523c-.028.031-.034.03.054-.04.06-.046.194-.148.315-.248l-1.52-1.828zm-.7 2.442a3.674 3.674 0 00.198.24l.045.05c.056.067.066.083.064.08l2.036-1.227a2.948 2.948 0 00-.3-.404c-.093-.108-.116-.132-.147-.172L7.91 24.538zm.307.37c.53.879 1.011 1.908 1.364 2.917l2.244-.785a18.496 18.496 0 00-1.572-3.359l-2.036 1.227zm1.364 2.917c.34.968 1.476 1.486 2.451.928l-1.18-2.063a.69.69 0 01.592-.038.657.657 0 01.38.387l-2.243.786zm2.451.928l.018-.01-1.18-2.063-.008.005-.01.005 1.18 2.063zm.018-.01c.272-.156.457-.378.541-.49l-1.902-1.426a.582.582 0 01.078-.078.814.814 0 01.104-.07l1.18 2.064zM9.986 22.26a1.737 1.737 0 01-.072-.217l-2.282.665c.038.13.098.333.192.54l2.162-.988zm-.072-.217c-.157-.537-.453-1.147-.722-1.676-.292-.575-.566-1.086-.783-1.56l-2.162.987c.243.533.57 1.145.825 1.648.278.549.474.972.56 1.266l2.282-.665zm-3.667-2.25l1.577 3.454 2.162-.987c-.664-1.454-1.08-2.363-1.577-3.454l-2.162.988zm3.805 3.904c.417-.227.712-.6.87-.979.157-.374.252-.94-.03-1.495L8.771 22.3a.604.604 0 01-.043-.5.383.383 0 01.185-.19l1.138 2.087zm.84-2.474c-.426-.838-.78-1.852-1.186-3.062l-2.253.757c.398 1.185.802 2.364 1.32 3.382l2.118-1.077zm-1.186-3.062a2.652 2.652 0 00-.489-.894c-.292-.334-.854-.717-1.603-.537l.554 2.31a.814.814 0 01-.496-.04.666.666 0 01-.245-.17c-.027-.03-.029-.041-.016-.016a.814.814 0 01.042.104l2.253-.757zM7.614 16.73a2.4 2.4 0 00-.51.191l1.06 2.127a.784.784 0 01.033-.015l-.029.008-.554-2.311zm-.51.191c-.28.139-.549.361-.608.405l1.422 1.904c.042-.03.085-.064.115-.087a3.84 3.84 0 01.08-.06c.046-.033.058-.038.052-.035L7.103 16.92zm-.608.405c-.065.049-.126.085-.24.156-.069.043-.29.175-.47.365a1.4 1.4 0 00-.368 1.222c.073.405.307.7.448.86l1.787-1.567c-.022-.025-.012-.018.008.016s.07.125.095.265a.99.99 0 01-.238.832c-.05.052-.086.076-.078.072a.606.606 0 01.07-.045c.078-.05.242-.147.408-.272l-1.422-1.904zm-.63 2.603c.105.12.137.16.154.19l2.03-1.239c-.14-.229-.305-.414-.396-.518L5.866 19.93zm.154.19c.55.901 1.052 1.97 1.415 3.014l2.245-.78a18.447 18.447 0 00-1.63-3.473l-2.03 1.24zm1.415 3.014c.16.46.521.858 1.008 1.034.55.2 1.243.086 1.694-.478l-1.856-1.485c.1-.126.26-.243.467-.295a.864.864 0 01.503.023.69.69 0 01.43.42l-2.246.78zm2.702.556a1.59 1.59 0 00.067-.089l-1.938-1.376a.435.435 0 01.015-.02l1.856 1.485zm.067-.089a1.46 1.46 0 01.03-.04.516.516 0 01-.05.049.774.774 0 01-.132.088L8.914 21.61c-.38.208-.609.56-.648.614l1.938 1.376zm-.152 2.902a8.13 8.13 0 01-.796-.148c-.285-.063-.627-.14-1.021-.188l-.288 2.36c.266.032.502.083.796.148.284.063.626.14 1.02.188l.289-2.36zm-2.105 2.023c.757.093.98.071 1.565.278l.791-2.242c-.902-.318-1.505-.326-2.068-.395l-.288 2.36zm2.356-1.964l-.25-.088-.789 2.242.248.088.791-2.242zm-.25-.088l-.116-.04c-.013-.005-.022-.009-.028-.01a.074.074 0 01-.005-.002h.003l.01.004.024.01.02.008.059.026c.05.026.478.42.66.912-.313.974-1.348 1.334-1.429 1.32a2.308 2.308 0 01-.116-.032l-.012-.004c-.004 0-.006-.002-.007-.002h-.002l.006.001a6.59 6.59 0 01.145.051l.79-2.241-.118-.042-.031-.01a.506.506 0 01-.01-.004l-.006-.002-.007-.003-.012-.004a1.285 1.285 0 00-.117-.031c-.08-.015-1.116.346-1.43 1.32.184.491.61.885.662.911a.74.74 0 00.058.026l.02.009a.806.806 0 00.035.013l.007.002.01.004.03.01.118.042.789-2.242zm.134.056c-.642-.317-1.232-.52-1.707-.687l-.792 2.24c.5.177.952.334 1.445.578l1.054-2.13zm-1.542-.8a21.234 21.234 0 00-1.73-.668l-.791 2.24c.558.198 1.062.376 1.546.594l.975-2.167zm-2.521 1.573c.92.324 1.915.817 3.28 1.456l1.008-2.152c-1.28-.6-2.434-1.17-3.497-1.546l-.791 2.242zm3.388 1.5l.002.001h.001l.002.001h.001l.002.001h.001l.001.001h.002l.001.001h.002l.001.001h.001l.002.001h.001l.002.001.002.001h.002l.001.001h.001l.002.001h.001l.001.001h.003l.001.001h.002v.001h.002l.001.001h.002l.001.001h.001l.002.001h.002l.001.001h.002v.001h.002l.001.001h.001l.002.001h.002l.001.001h.001l.002.001h.002l.001.001h.001l.001.001h.002l.002.001h.001l.001.001h.002l.001.001h.002v.001h.002l.002.001h.001l.001.001H9.6a.149.149 0 01.002.001h.001a.14.14 0 01.002.001h.001a751778189.075 751778189.075 0 01.003.002h.003l.001.001h.002a.116.116 0 01.003.002h.003l.001.001h.002v.001h.002a.098.098 0 01.003.001l.001.001h.002l.002.001h.002v.001h.002v.001h.002a.074.074 0 01.003.002h.003l.002.001h.001l.002.001a.057.057 0 00.002.001h.002v.001h.002l.001.001h.003v.001h.002l.001.001h.002l.001.001h.002v.001h.003v.001h.003v.001h.002l.001.001h.002l.001.001h.002l.001.001h.002l.001.001h.002v.001h.003v.001h.003v.001h.003v.001h.001l.396-1.12.395-1.121h-.002v-.001h-.003v-.001h-.003v-.001h-.002l-.001-.001h-.002l-.001-.001h-.002v-.001h-.003v-.001h-.003v-.001h-.002l-.001-.001h-.003v-.001h-.002l-.001-.001h-.002l-.001-.001h-.001l-.002-.001h-.002v-.001h-.002l-.002-.001h-.001l-.001-.001h-.003v-.001h-.003v-.001h-.001l-.002-.001h-.002v-.001h-.002l-.001-.001h-.002l-.002-.001h-.001l-.001-.001h-.002v-.001h-.002l-.002-.001h-.002l-.001-.001h-.002V26.6h-.002l-.002-.001h-.002v-.001h-.002l-.002-.001-.002-.001H10.4v-.001h-.002l-.002-.001h-.002v-.001h-.002v-.001h-.003l-.001-.001h-.002l-.001-.001h-.002v-.001h-.002l-.002-.001h-.001l-.001-.001h-.003v-.001h-.002v-.001h-.003l-.001-.001h-.002v-.001h-.002l-.001-.001h-.003v-.001h-.002l-.001-.001h-.002v-.001h-.003l-.002-.001-.002-.001h-.001l-.002-.001-.002-.001h-.002l-.002-.001h-.001l-.002-.001h-.001l-.001-.001h-.002l-.001-.001h-.001l-.002-.001h-.001l-.002-.001-.002-.001h-.002l-.001-.001h-.001l-.002-.001h-.001l-.002-.001h-.001l-.001-.001h-.002l-.001-.001h-.002l-.001-.001h-.002l-.79 2.24v.001h.002l.002.001h.001l.002.001h.001l.001.001h.002l.001.001h.002l.001.001h.001l.002.001h.001l.002.001.002.001h.002l.001.001h.001l.002.001h.001l.001.001h.003l.001.001h.002v.001h.002l.001.001h.002l.001.001h.001l.002.001h.002l.001.001h.002v.001h.002l.001.001h.001l.002.001h.002l.001.001h.001l.002.001h.002l.001.001h.001l.001.001h.002l.002.001h.001l.001.001h.002l.001.001h.002v.001h.002l.002.001h.001l.001.001H9.6a.149.149 0 01.002.001h.001a.14.14 0 01.002.001h.001a751778189.075 751778189.075 0 01.003.002h.003l.001.001h.002a.116.116 0 01.003.002h.003l.001.001h.002v.001h.002a.098.098 0 01.003.001l.001.001h.002l.002.001h.002v.001h.002v.001h.002a.074.074 0 01.003.002h.003l.002.001h.001l.002.001a.057.057 0 00.002.001h.002v.001h.002l.001.001h.003v.001h.002l.001.001h.002l.001.001h.002v.001h.003v.001h.003v.001h.002l.001.001h.002l.001.001h.002l.001.001h.002l.001.001h.002v.001h.003v.001h.003v.001h.003v.001h.001l.396-1.12.395-1.121h-.002v-.001h-.003v-.001h-.003v-.001h-.002l-.001-.001h-.002l-.001-.001h-.002v-.001h-.003v-.001h-.003v-.001h-.002l-.001-.001h-.003v-.001h-.002l-.001-.001h-.002l-.001-.001h-.001l-.002-.001h-.002v-.001h-.002l-.002-.001h-.001l-.001-.001h-.003v-.001h-.003v-.001h-.001l-.002-.001h-.002v-.001h-.002l-.001-.001h-.002l-.002-.001h-.001l-.001-.001h-.002v-.001h-.002l-.002-.001h-.002l-.001-.001h-.002V26.6h-.002l-.002-.001h-.002v-.001h-.002l-.002-.001-.002-.001H10.4v-.001h-.002l-.002-.001h-.002v-.001h-.002v-.001h-.003l-.001-.001h-.002l-.001-.001h-.002v-.001h-.002l-.002-.001h-.001l-.001-.001h-.003v-.001h-.002v-.001h-.003l-.001-.001h-.002v-.001h-.002l-.001-.001h-.003v-.001h-.002l-.001-.001h-.002v-.001h-.003l-.002-.001-.002-.001h-.001l-.002-.001-.002-.001h-.002l-.002-.001h-.001l-.002-.001h-.001l-.001-.001h-.002l-.001-.001h-.001l-.002-.001h-.001l-.002-.001-.002-.001h-.002l-.001-.001h-.001l-.002-.001h-.001l-.002-.001h-.001l-.001-.001h-.002l-.001-.001h-.002l-.001-.001h-.002l-.79 2.24zm.312-2.105l-.056-.02-.791 2.242.056.02.791-2.242zm-.556-.101l-.346.003.006 2.376.375-.003-.035-2.376zm-.346.003c-.134 0-.25.004-.342.01a2.067 2.067 0 00-.156.017 1.34 1.34 0 00-.348.104 1.197 1.197 0 00-.642.755 1.189 1.189 0 00.626 1.393c.148.072.277.095.305.1a1.694 1.694 0 00.34.02c.093-.003.208-.012.341-.027L8.79 26.61c-.096.01-.152.013-.173.014l.035.001c.008 0 .07.003.15.018.023.004.15.026.297.098a1.186 1.186 0 01-.207 2.213c-.06.016-.105.022-.114.024l-.024.003c.023-.002.08-.005.175-.005l-.006-2.377zm-.133.01a2.05 2.05 0 00-.468.101 1.372 1.372 0 00-.357.19 1.216 1.216 0 00-.491 1.039c.036.68.566.966.683 1.023.175.086.334.112.412.123.176.024.347.015.484 0l-.257-2.363c-.037.004.003-.004.09.008.035.004.161.022.313.096.095.047.613.32.648.985.034.621-.398.947-.46.994-.123.092-.23.131-.262.143-.078.027-.114.027-.078.023L8.79 26.61zm.263 2.476l.242-.026-.257-2.363-.242.026.257 2.363zm.094-2.396a8.419 8.419 0 00-1.754.233l.53 2.317a6.09 6.09 0 011.263-.173l-.04-2.377zm-1.289 2.656a.983.983 0 01-.421-.031c-.145-.042-.78-.286-.826-1.041-.04-.655.431-.98.514-1.034.155-.1.29-.13.351-.141l.41 2.34c.14-.024.333-.077.527-.201.121-.078.612-.431.57-1.11-.048-.78-.705-1.045-.89-1.098a1.397 1.397 0 00-.601-.033l.366 2.349zm.028.094l1.702-.298-.41-2.341-1.702.298.41 2.34zm1.601-1.51c-.31.178-.571.436-.688.543-.152.14-.257.227-.383.3l1.18 2.063c.368-.21.634-.45.812-.613.098-.09.148-.138.202-.184.047-.04.062-.048.057-.045l-1.18-2.063zm.109 2.906c.31-.178.571-.435.688-.543.152-.139.257-.227.383-.299l-1.18-2.063c-.368.21-.634.449-.812.613-.098.09-.148.137-.202.183a.386.386 0 01-.057.045l1.18 2.064zm-.109-2.905c-.338.193-.68.465-.927.66-.288.226-.483.375-.639.464l1.18 2.064c.339-.194.68-.466.927-.66.289-.226.483-.376.639-.465l-1.18-2.063zM9.1 31.118c.35-.2.655-.456.867-.63.242-.2.39-.318.534-.4l-1.18-2.064c-.35.2-.655.456-.866.63-.242.2-.39.318-.535.4l1.18 2.064zm.221-3.094c-.642.367-1.432.813-2.133 1.491l1.655 1.707c.452-.439.981-.748 1.658-1.135l-1.18-2.063zm-.416 3.133c.254-.287.716-.567 1.431-.975l-1.18-2.064c-.604.346-1.461.82-2.03 1.463l1.779 1.576zm.251-3.039l-.989.566-.99.566 1.18 2.063.99-.566.99-.565-1.18-2.064zm-.799 3.195c.4-.228.81-.531 1.16-.786.374-.272.717-.516 1.066-.716l-1.18-2.063c-.476.272-.916.59-1.283.856-.392.285-.682.497-.942.646l1.18 2.063zm2.226-1.502c-.13.075-.38.172-.7.113a1.11 1.11 0 01-.806-.63c-.324-.71.17-1.227.41-1.364l1.179 2.063c.405-.231.94-.886.573-1.687a1.267 1.267 0 00-.924-.72c-.377-.07-.7.04-.912.162l1.18 2.063zm-1.014-1.7c-.244.14-.46.327-.635.553l1.879 1.456a.216.216 0 01-.064.055L9.57 28.11zm-.635.553c-.626.808-1.126 1.562-1.48 2.257l2.119 1.077c.263-.518.67-1.142 1.24-1.878l-1.879-1.456zm.639 3.334a6.96 6.96 0 01.07-.134l-2.095-1.123-.094.18 2.119 1.077zm.07-.134c.02-.036.005 0-.05.063-.02.023-.107.124-.26.214-.087.05-.697.382-1.305-.084a1.172 1.172 0 01-.457-.928.988.988 0 01.033-.25c.017-.064.032-.085.015-.053l2.119 1.078c.058-.115.12-.254.16-.404.019-.068.049-.196.05-.352a1.205 1.205 0 00-.472-.977c-.618-.474-1.243-.141-1.348-.08a1.334 1.334 0 00-.33.277 2.04 2.04 0 00-.25.373l2.095 1.123zm.095.04c.143-.283.328-.595.538-.95.2-.338.428-.72.613-1.084L8.77 28.793a18.44 18.44 0 01-.538.95c-.201.338-.428.72-.613 1.084l2.119 1.077zm-.968-3.111c-.187.368-.328.712-.434.961-.118.277-.182.408-.235.487l1.978 1.319a5.37 5.37 0 00.444-.875c.12-.281.224-.536.366-.815L8.77 28.793zm1.31 2.767c.192-.29.403-.678.6-1.055l-2.107-1.1c-.198.378-.357.664-.472.836l1.978 1.319zm.6-1.055a1.1 1.1 0 01-.205.275 1.175 1.175 0 01-1.97-.603.965.965 0 01.073-.61l2.147 1.022c.122-.257.17-.566.113-.863a1.242 1.242 0 00-.16-.416 1.202 1.202 0 00-1.868-.226 1.26 1.26 0 00-.237.32l2.107 1.1zm-2.102-.937a1.481 1.481 0 00-.094.262 1.2 1.2 0 00.005.58 1.19 1.19 0 001.67.772c.221-.108.353-.262.36-.27.07-.076.115-.146.128-.166a1.67 1.67 0 00.187-.396l-2.266-.718a.71.71 0 01.087-.182c.006-.01.046-.072.112-.143.005-.005.135-.158.355-.264a1.188 1.188 0 011.633 1.472.819.819 0 01-.03.074l-2.147-1.021zm2.256.782l.061-.202c.018-.06.031-.104.045-.143a.6.6 0 01.043-.108l-2.032-1.233c-.231.381-.349.861-.383.968l2.266.718zm.15-.453a.996.996 0 01-.357.348l-1.18-2.064a1.381 1.381 0 00-.496.483l2.032 1.233zm-.357.348l.122-.07-1.18-2.064-.122.07 1.18 2.064zm.534-.535l.014-.008.013-.008-1.18-2.063-.013.008-.014.008 1.18 2.063zm.027-.016a.841.841 0 01-.549.099c-.054-.01-.087-.022-.083-.02.008.002.02.007.073.03l.917-2.194c-.044-.018-.78-.411-1.537.022l1.18 2.063zm-.56.108a.562.562 0 01-.196-.131.96.96 0 01-.159-.2l2.036-1.227a1.501 1.501 0 00-.43-.45 1.82 1.82 0 00-.333-.184l-.917 2.192zm-.355-.331a16.14 16.14 0 011.467 3.077l2.245-.78a18.53 18.53 0 00-1.676-3.524l-2.036 1.227zm1.467 3.077c.337.97 1.475 1.49 2.45.932l-1.18-2.064a.691.691 0 01.594-.038c.194.077.325.23.38.39l-2.244.78zm2.45.932l.019-.011-1.18-2.063-.01.005a.275.275 0 01-.008.005l1.18 2.064zm.019-.011c.272-.155.456-.378.54-.49l-1.902-1.425a.556.556 0 01.078-.078.805.805 0 01.104-.07l1.18 2.063zm.54-.49c.164-.22.356-.528.478-.88.111-.325.239-.905-.053-1.492l-2.128 1.06a.63.63 0 01-.07-.297c.002-.052.012-.07.004-.047a.655.655 0 01-.048.1c-.025.045-.055.09-.085.13l1.902 1.425zm.425-2.372c-.412-.826-.756-1.818-1.152-2.994l-2.253.758c.388 1.152.78 2.299 1.277 3.296l2.128-1.06zm-1.152-2.994a2.655 2.655 0 00-.488-.893c-.292-.334-.854-.718-1.603-.538l.554 2.311a.813.813 0 01-.496-.041.664.664 0 01-.246-.17c-.026-.03-.029-.04-.016-.016a.794.794 0 01.042.105l2.253-.758zm-2.091-1.431c-.321.077-.592.231-.727.307l1.17 2.069c.063-.036.1-.055.125-.067.025-.011.018-.005-.014.002l-.554-2.311zm-.727.307a1.71 1.71 0 00-.388.304l1.712 1.648a.67.67 0 01-.154.117l-1.17-2.069zm-.388.304a.701.701 0 01-.143.112l1.262 2.014c.171-.107.38-.257.593-.478l-1.712-1.648zm-.143.112a.765.765 0 01.194-.087l-.012.001-.02.001c-.022 0 .017-.004.096.023a.837.837 0 01.225.116c.1.073.236.201.329.404l-2.162.988c.228.5.671.685.86.748.226.075.448.095.615.098.175.003.355-.013.524-.046a1.8 1.8 0 00.613-.232l-1.262-2.014zm.812.458c-.158-.344-.417-.552-.502-.624-.125-.104-.184-.146-.292-.247l-1.626 1.733c.176.165.346.299.396.34.035.03.023.022-.001-.005a.804.804 0 01-.137-.21l2.162-.987zm-.794-.871a3.082 3.082 0 00-.81-.566l-.997 2.158a.768.768 0 01.18.141l1.627-1.733zm-.81-.566a21.682 21.682 0 00-2.775-1.036l-.667 2.282c.765.223 1.724.579 2.445.912l.996-2.158zM7.105 24.89c-.349-.101-.849-.137-1.296.083-.224.11-.74.459-.742 1.16-.003.61.405.968.555 1.086l1.462-1.874c.012.01.362.27.36.798-.004.619-.46.9-.586.962a.726.726 0 01-.3.082.385.385 0 01-.12-.015l.667-2.282zm-1.482 2.33a.66.66 0 01-.153-.166.33.33 0 01-.035-.069c-.002-.007.002.007.001.027 0 .027-.006-.015.039-.103a.8.8 0 01.534-.393l.526 2.317a1.58 1.58 0 001.053-.835c.161-.314.216-.644.224-.915a2.477 2.477 0 00-.124-.855 1.863 1.863 0 00-.603-.882L5.623 27.22zm.386-.704c-.065.014-.129.03-.193.046l.597 2.3.122-.029-.526-2.317zm-.193.046c-.577.15-1.16.66-1.158 1.44.003.838.67 1.343 1.307 1.425l.303-2.358a.853.853 0 01.487.249.963.963 0 01.28.676.882.882 0 01-.622.869l-.597-2.3zm.15 2.865c.703.09 1.567.095 2.335.055.75-.04 1.53-.13 2.04-.275l-.652-2.285c-.243.069-.805.149-1.514.186-.69.037-1.398.027-1.907-.039l-.303 2.358zm4.375-.22a1.593 1.593 0 00.107-.034l.028-.01a.304.304 0 01.011-.005l-.005.002a.895.895 0 01-.12.032l-.458-2.332a1.53 1.53 0 00-.243.07l-.018.006a.724.724 0 01.047-.015l.651 2.286zm.021-.015a1 1 0 01-.193.019l.001-2.377c-.102 0-.192.011-.266.026l.458 2.332zm-.193.019a.978.978 0 01-.501-.139l-.026-.017.025.02.074.053a1.518 1.518 0 00.33.18l.872-2.212c.096.038.155.08.161.085l-.007-.006-.055-.04a1.682 1.682 0 00-.28-.169 1.398 1.398 0 00-.592-.132v2.377zm-.097.097l.03.012.953-2.177a3.292 3.292 0 00-.112-.047l-.871 2.212zm.03.012a.966.966 0 01-.563-1 1.004 1.004 0 01.957-.881l.06 2.376a1.374 1.374 0 001.343-1.212 1.411 1.411 0 00-.844-1.46l-.953 2.177zm.393-1.881c-.01 0-.155 0-.282.014a1.64 1.64 0 00-.643.2l1.18 2.064a.834.834 0 01-.285.1h.007a2.245 2.245 0 01.085-.002l-.062-2.377zm-.925.215l-.235.134 1.18 2.063.235-.134-1.18-2.064zm-.235.134l.007-.004-.019.008.804 2.236c.114-.04.248-.097.388-.177l-1.18-2.063zm-.012.004c-.92.33-1.85 1.014-2.46 1.539l1.552 1.8c.536-.461 1.203-.92 1.712-1.103l-.804-2.236zm-2.46 1.539a1.651 1.651 0 00-.552.932 1.29 1.29 0 00.327 1.121c.397.417.898.412 1.12.384l-.303-2.358c.116-.015.548-.04.905.335.354.372.316.801.29.941a.733.733 0 01-.235.446L6.864 29.33zm.895 2.437a.85.85 0 01-.324-.018.51.51 0 01-.11-.042c-.023-.012-.02-.014-.011-.004.014.014-.02-.013-.055-.101a.89.89 0 01.063-.744l2.088 1.134c.277-.51.163-1.006.055-1.274a2.1 2.1 0 00-.442-.667 2.37 2.37 0 00-.58-.441 1.664 1.664 0 00-.987-.2l.303 2.357zm-.437-.91a1.44 1.44 0 00-.176.825c.035.368.23.75.609.984.727.448 1.415.034 1.677-.213l-1.63-1.73a.994.994 0 011.2-.08c.323.199.482.523.51.813a.94.94 0 01-.102.536l-2.088-1.134zm2.11 1.596c.393-.37.77-.87 1.073-1.342.303-.474.583-.998.75-1.45l-2.23-.824c-.088.24-.275.608-.521.991-.248.386-.504.709-.701.894l1.63 1.73zm1.823-2.793c.014-.036.023-.049.02-.043a.362.362 0 01-.113.093l-1.18-2.063c-.548.313-.823.83-.956 1.19l2.23.823zm-3.862-2.738c-.501.114-1.104.638-.95 1.439.154.8.907 1.063 1.415.984l-.366-2.349c.433-.067 1.14.16 1.285.915.146.757-.428 1.23-.855 1.328l-.529-2.317zm2.376-.245a1.44 1.44 0 00-.5-.081l.035 2.376a.94.94 0 01-.326-.053l.791-2.242zm-.181 2.464c.138-.024.246-.07.258-.074a1.709 1.709 0 00.228-.11l-1.18-2.064a.855.855 0 01.021-.011l.007-.004a1.12 1.12 0 01.256-.078l.41 2.341zm.204-1.705c.038.132.097.331.191.538l2.162-.988a1.678 1.678 0 01-.07-.213l-2.283.663zm-2.266.53c.314.124.644.124.897.064.074-.018.198-.053.334-.129a1.205 1.205 0 00.303-1.878 1.276 1.276 0 00-.414-.295l-.975 2.167a1.1 1.1 0 01-.354-.256 1.172 1.172 0 01.285-1.815c.121-.067.224-.095.274-.107a.85.85 0 01.525.038l-.875 2.21zm.955-2.124a.684.684 0 01.232.137c.018.016.096.083.174.194a1.184 1.184 0 01-1.18 1.844 1.06 1.06 0 01-.18-.052l.874-2.21a1.225 1.225 0 00-.574-.091 1.195 1.195 0 00-.67 2.112 1.7 1.7 0 00.532.307l.792-2.241zm.553 3.097s-.042-.015-.1-.045c-.028-.015-.218-.11-.378-.33a1.161 1.161 0 01-.08-1.237c.157-.289.385-.415.418-.434l1.18 2.064a1.27 1.27 0 00.491-.497 1.212 1.212 0 00-.085-1.291 1.278 1.278 0 00-.444-.381 1.6 1.6 0 00-.21-.09l-.792 2.24z" fill="#fff" mask="url(#path-1-inside-1)"/></svg>