<svg display="none" xmlns="http://www.w3.org/2000/svg">
  <symbol id="plus" viewBox=""0 0 32 32">
    <g>
      <path d="M16 0C14.3432 0 13 1.3432 13 3V13H3C1.3432 13 0 14.3431 0 16C0 17.6568 1.3432 19 3 19H13V29C13 30.6569 14.3432 32 16 32C17.6569 32 19 30.6569 19 29V19H29C30.6568 19 32 17.6568 32 16C32 14.3431 30.6568 13 29 13H19V3C19 1.3432 17.6569 0 16 0Z" />
    </g>
  </symbol>
  <symbol id="minus" viewBox="0 0 32 6">
    <g>
     <path fill-rule="evenodd" clip-rule="evenodd" d="M3.13094 6H28.823C30.5727 6 32 4.64234 32 3.0219C32 1.35766 30.5727 0 28.823 0H3.13094C1.42734 0 0 1.35766 0 3.0219C0 4.64234 1.42734 6 3.13094 6Z" fill="#333B41"/>
    </g>
  </symbol>
</svg> 
